<svg width="68" height="33" viewBox="0 0 68 33" fill="none" xmlns="http://www.w3.org/2000/svg">
<g id="ArrowLeft">
<path id="Vector" d="M63.9998 16.0978C63.9998 16.3631 63.8945 16.6174 63.7069 16.805C63.5194 16.9925 63.265 17.0978 62.9998 17.0978H7.41356L14.7073 24.3903C14.8002 24.4833 14.8739 24.5936 14.9242 24.715C14.9745 24.8363 15.0004 24.9665 15.0004 25.0978C15.0004 25.2292 14.9745 25.3594 14.9242 25.4807C14.8739 25.6021 14.8002 25.7124 14.7073 25.8053C14.6144 25.8983 14.5041 25.972 14.3827 26.0222C14.2613 26.0725 14.1312 26.0984 13.9998 26.0984C13.8684 26.0984 13.7383 26.0725 13.6169 26.0222C13.4955 25.972 13.3852 25.8983 13.2923 25.8053L4.29231 16.8053C4.19933 16.7125 4.12557 16.6022 4.07525 16.4808C4.02493 16.3594 3.99902 16.2293 3.99902 16.0978C3.99902 15.9664 4.02493 15.8363 4.07525 15.7149C4.12557 15.5935 4.19933 15.4832 4.29231 15.3903L13.2923 6.39035C13.4799 6.20271 13.7344 6.09729 13.9998 6.09729C14.2652 6.09729 14.5197 6.20271 14.7073 6.39035C14.895 6.57799 15.0004 6.83248 15.0004 7.09785C15.0004 7.36321 14.895 7.61771 14.7073 7.80535L7.41356 15.0978H62.9998C63.265 15.0978 63.5194 15.2032 63.7069 15.3907C63.8945 15.5783 63.9998 15.8326 63.9998 16.0978Z" fill="#EEEDEE" fill-opacity="0.87"/>
</g>
</svg>
