<svg width="68" height="33" viewBox="0 0 68 33" fill="none" xmlns="http://www.w3.org/2000/svg">
<g id="ArrowRight">
<path id="Vector" d="M3.99922 16.0978C3.99922 15.8326 4.10457 15.5783 4.29211 15.3907C4.47965 15.2032 4.734 15.0978 4.99922 15.0978L60.5855 15.0978L53.2917 7.80533C53.1988 7.71242 53.1251 7.60212 53.0748 7.48073C53.0245 7.35933 52.9987 7.22923 52.9987 7.09783C52.9987 6.96644 53.0245 6.83633 53.0748 6.71493C53.1251 6.59354 53.1988 6.48324 53.2917 6.39033C53.3846 6.29742 53.4949 6.22372 53.6163 6.17344C53.7377 6.12315 53.8678 6.09727 53.9992 6.09727C54.1306 6.09727 54.2607 6.12315 54.3821 6.17344C54.5035 6.22372 54.6138 6.29742 54.7067 6.39033L63.7067 15.3903C63.7997 15.4832 63.8734 15.5935 63.9238 15.7149C63.9741 15.8363 64 15.9664 64 16.0978C64 16.2292 63.9741 16.3594 63.9238 16.4808C63.8734 16.6022 63.7997 16.7125 63.7067 16.8053L54.7067 25.8053C54.5191 25.993 54.2646 26.0984 53.9992 26.0984C53.7338 26.0984 53.4794 25.993 53.2917 25.8053C53.1041 25.6177 52.9987 25.3632 52.9987 25.0978C52.9987 24.8325 53.1041 24.578 53.2917 24.3903L60.5855 17.0978L4.99921 17.0978C4.734 17.0978 4.47965 16.9925 4.29211 16.8049C4.10457 16.6174 3.99922 16.363 3.99922 16.0978Z" fill="#EEEDEE" fill-opacity="0.87"/>
</g>
</svg>
