<svg width="20" height="20" viewBox="0 0 20 20" fill="none" xmlns="http://www.w3.org/2000/svg">
<g id="ArrowsDownUp">
<path id="Vector" d="M9.41374 13.0868C9.50114 13.1739 9.57048 13.2774 9.6178 13.3913C9.66512 13.5053 9.68948 13.6274 9.68948 13.7508C9.68948 13.8742 9.66512 13.9964 9.6178 14.1104C9.57048 14.2243 9.50114 14.3278 9.41374 14.4149L6.91374 16.9149C6.82664 17.0023 6.72315 17.0716 6.60919 17.119C6.49524 17.1663 6.37306 17.1906 6.24967 17.1906C6.12628 17.1906 6.00411 17.1663 5.89016 17.119C5.7762 17.0716 5.67271 17.0023 5.58561 16.9149L3.08561 14.4149C2.9984 14.3277 2.92923 14.2242 2.88203 14.1102C2.83484 13.9963 2.81055 13.8742 2.81055 13.7508C2.81055 13.6275 2.83484 13.5054 2.88203 13.3914C2.92923 13.2775 2.9984 13.174 3.08561 13.0868C3.17282 12.9996 3.27634 12.9304 3.39028 12.8832C3.50422 12.836 3.62635 12.8117 3.74967 12.8117C3.873 12.8117 3.99512 12.836 4.10906 12.8832C4.223 12.9304 4.32653 12.9996 4.41374 13.0868L5.31295 13.9844V3.75006C5.31295 3.50142 5.41173 3.26296 5.58754 3.08714C5.76336 2.91133 6.00181 2.81256 6.25045 2.81256C6.49909 2.81256 6.73755 2.91133 6.91337 3.08714C7.08918 3.26296 7.18795 3.50142 7.18795 3.75006V13.9844L8.08717 13.0844C8.1744 12.9974 8.27791 12.9285 8.39181 12.8815C8.5057 12.8345 8.62774 12.8104 8.75094 12.8106C8.87414 12.8109 8.99609 12.8354 9.10982 12.8827C9.22355 12.9301 9.32682 12.9995 9.41374 13.0868ZM16.9137 5.58677L14.4137 3.08677C14.3266 2.99937 14.2231 2.93003 14.1092 2.88271C13.9952 2.83539 13.8731 2.81104 13.7497 2.81104C13.6263 2.81104 13.5041 2.83539 13.3902 2.88271C13.2762 2.93003 13.1727 2.99937 13.0856 3.08677L10.5856 5.58677C10.4095 5.76289 10.3105 6.00177 10.3105 6.25084C10.3105 6.49991 10.4095 6.73878 10.5856 6.9149C10.7617 7.09102 11.0006 7.18996 11.2497 7.18996C11.4987 7.18996 11.7376 7.09102 11.9137 6.9149L12.813 6.01568V16.2501C12.813 16.4987 12.9117 16.7372 13.0875 16.913C13.2634 17.0888 13.5018 17.1876 13.7505 17.1876C13.9991 17.1876 14.2376 17.0888 14.4134 16.913C14.5892 16.7372 14.688 16.4987 14.688 16.2501V6.01568L15.5872 6.91568C15.7633 7.0918 16.0022 7.19074 16.2512 7.19074C16.5003 7.19074 16.7392 7.0918 16.9153 6.91568C17.0914 6.73956 17.1904 6.50069 17.1904 6.25162C17.1904 6.00255 17.0914 5.76368 16.9153 5.58756L16.9137 5.58677Z" fill="white" fill-opacity="0.3"/>
</g>
</svg>
