<svg width="20" height="13" viewBox="0 0 20 13" fill="none" xmlns="http://www.w3.org/2000/svg">
    <path d="M18.4375 4.43751H16.6406L13.3461 1.14532C13.2014 0.99973 13.0293 0.884299 12.8396 0.805714C12.65 0.727128 12.4467 0.68695 12.2414 0.687506H3.77188C3.51463 0.687553 3.26138 0.751114 3.03459 0.872546C2.80781 0.993977 2.61452 1.16952 2.47188 1.3836L0.156252 4.85469C0.0539569 5.00891 -0.000409518 5.18995 2.32263e-06 5.37501V9.12501C2.32263e-06 9.53941 0.164622 9.93684 0.457648 10.2299C0.750674 10.5229 1.1481 10.6875 1.5625 10.6875H2.61719C2.7841 11.2307 3.12079 11.706 3.57779 12.0436C4.0348 12.3813 4.58804 12.5635 5.15625 12.5635C5.72447 12.5635 6.2777 12.3813 6.73471 12.0436C7.19172 11.706 7.5284 11.2307 7.69531 10.6875H12.3047C12.4716 11.2307 12.8083 11.706 13.2653 12.0436C13.7223 12.3813 14.2755 12.5635 14.8438 12.5635C15.412 12.5635 15.9652 12.3813 16.4222 12.0436C16.8792 11.706 17.2159 11.2307 17.3828 10.6875H18.4375C18.8519 10.6875 19.2493 10.5229 19.5424 10.2299C19.8354 9.93684 20 9.53941 20 9.12501V6.00001C20 5.58561 19.8354 5.18818 19.5424 4.89515C19.2493 4.60213 18.8519 4.43751 18.4375 4.43751ZM3.93906 2.56251H12.1094L13.9844 4.43751H2.68906L3.93906 2.56251ZM5.15625 10.6875C5.00174 10.6875 4.85069 10.6417 4.72221 10.5558C4.59374 10.47 4.4936 10.348 4.43447 10.2052C4.37534 10.0625 4.35987 9.90539 4.39001 9.75384C4.42016 9.6023 4.49457 9.46309 4.60383 9.35383C4.71308 9.24457 4.85229 9.17016 5.00384 9.14002C5.15539 9.10987 5.31247 9.12534 5.45522 9.18448C5.59798 9.24361 5.71999 9.34374 5.80584 9.47222C5.89168 9.60069 5.9375 9.75174 5.9375 9.90626C5.9375 10.1135 5.85519 10.3122 5.70868 10.4587C5.56217 10.6052 5.36345 10.6875 5.15625 10.6875ZM14.8438 10.6875C14.6892 10.6875 14.5382 10.6417 14.4097 10.5558C14.2812 10.47 14.1811 10.348 14.122 10.2052C14.0628 10.0625 14.0474 9.90539 14.0775 9.75384C14.1077 9.6023 14.1821 9.46309 14.2913 9.35383C14.4006 9.24457 14.5398 9.17016 14.6913 9.14002C14.8429 9.10987 15 9.12534 15.1427 9.18448C15.2855 9.24361 15.4075 9.34374 15.4933 9.47222C15.5792 9.60069 15.625 9.75174 15.625 9.90626C15.625 10.1135 15.5427 10.3122 15.3962 10.4587C15.2497 10.6052 15.051 10.6875 14.8438 10.6875ZM18.125 8.81251H17.2656C17.0555 8.3461 16.7152 7.95027 16.2856 7.6726C15.856 7.39492 15.3553 7.24721 14.8438 7.24721C14.3322 7.24721 13.8315 7.39492 13.4019 7.6726C12.9723 7.95027 12.632 8.3461 12.4219 8.81251H7.57813C7.36803 8.3461 7.02772 7.95027 6.59809 7.6726C6.16847 7.39492 5.6678 7.24721 5.15625 7.24721C4.6447 7.24721 4.14404 7.39492 3.71441 7.6726C3.28479 7.95027 2.94448 8.3461 2.73438 8.81251H1.875V6.31251H18.125V8.81251Z" fill="#565557"/>
  </svg>
  