<svg width="24" height="24" viewBox="0 0 24 24" fill="none" xmlns="http://www.w3.org/2000/svg">
<g id="ChatDots">
<path id="Vector" d="M20.25 4.125H3.75002C3.25274 4.125 2.77582 4.32254 2.42419 4.67417C2.07256 5.02581 1.87502 5.50272 1.87502 6V21C1.87352 21.3571 1.97494 21.707 2.16714 22.0079C2.35934 22.3089 2.63418 22.5481 2.95877 22.6969C3.20793 22.8135 3.47958 22.8743 3.7547 22.875C4.19498 22.8739 4.62068 22.7171 4.95658 22.4325L4.97439 22.4175L7.87502 19.875H20.25C20.7473 19.875 21.2242 19.6775 21.5758 19.3258C21.9275 18.9742 22.125 18.4973 22.125 18V6C22.125 5.50272 21.9275 5.02581 21.5758 4.67417C21.2242 4.32254 20.7473 4.125 20.25 4.125ZM19.875 17.625H7.73439C7.29299 17.625 6.86572 17.7807 6.52783 18.0647L6.51002 18.0797L4.12502 20.1694V6.375H19.875V17.625ZM8.25002 12C8.25002 11.7033 8.33799 11.4133 8.50281 11.1666C8.66763 10.92 8.9019 10.7277 9.17599 10.6142C9.45008 10.5006 9.75168 10.4709 10.0427 10.5288C10.3336 10.5867 10.6009 10.7296 10.8107 10.9393C11.0205 11.1491 11.1633 11.4164 11.2212 11.7074C11.2791 11.9983 11.2494 12.2999 11.1358 12.574C11.0223 12.8481 10.83 13.0824 10.5834 13.2472C10.3367 13.412 10.0467 13.5 9.75002 13.5C9.35219 13.5 8.97066 13.342 8.68936 13.0607C8.40805 12.7794 8.25002 12.3978 8.25002 12ZM12.75 12C12.75 11.7033 12.838 11.4133 13.0028 11.1666C13.1676 10.92 13.4019 10.7277 13.676 10.6142C13.9501 10.5006 14.2517 10.4709 14.5427 10.5288C14.8336 10.5867 15.1009 10.7296 15.3107 10.9393C15.5205 11.1491 15.6633 11.4164 15.7212 11.7074C15.7791 11.9983 15.7494 12.2999 15.6358 12.574C15.5223 12.8481 15.33 13.0824 15.0834 13.2472C14.8367 13.412 14.5467 13.5 14.25 13.5C13.8522 13.5 13.4707 13.342 13.1894 13.0607C12.9081 12.7794 12.75 12.3978 12.75 12Z" fill="white" fill-opacity="0.3"/>
</g>
</svg>
