<svg width="20" height="20" viewBox="0 0 20 20" fill="none" xmlns="http://www.w3.org/2000/svg">
<g id="CheckFat">
<path id="Vector" d="M19.0107 7.10235L8.97872 17.1336C8.86264 17.2497 8.72483 17.3418 8.57315 17.4046C8.42148 17.4675 8.25891 17.4998 8.09473 17.4998C7.93056 17.4998 7.76799 17.4675 7.61631 17.4046C7.46464 17.3418 7.32683 17.2497 7.21075 17.1336L1.61544 11.5086C1.38143 11.2742 1.25 10.9566 1.25 10.6254C1.25 10.2942 1.38143 9.97656 1.61544 9.7422L3.49044 7.8672C3.72405 7.63352 4.04069 7.50185 4.37111 7.50097C4.70153 7.50009 5.01886 7.63008 5.25372 7.86251L8.11622 10.618L8.12481 10.6266L15.3693 3.48829C15.6036 3.255 15.9208 3.12402 16.2514 3.12402C16.582 3.12402 16.8991 3.255 17.1334 3.48829L19.0084 5.32892C19.1255 5.44494 19.2185 5.58297 19.282 5.73507C19.3455 5.88716 19.3783 6.05032 19.3785 6.21515C19.3788 6.37998 19.3464 6.54322 19.2833 6.69548C19.2201 6.84775 19.1275 6.98602 19.0107 7.10235Z" fill="#EEEDEE"/>
</g>
</svg>
