<svg width="30" height="31" viewBox="0 0 30 31" fill="none" xmlns="http://www.w3.org/2000/svg">
<path d="M21.25 0.25H8.75C6.43012 0.252482 4.20596 1.17515 2.56556 2.81556C0.925151 4.45596 0.0024816 6.68012 0 9V21.5C0.0024816 23.8199 0.925151 26.044 2.56556 27.6844C4.20596 29.3249 6.43012 30.2475 8.75 30.25H16.25C16.3843 30.2498 16.5178 30.2282 16.6453 30.1859C20.7437 28.8187 28.5687 20.9937 29.9359 16.8953C29.9782 16.7678 29.9998 16.6343 30 16.5V9C29.9975 6.68012 29.0749 4.45596 27.4344 2.81556C25.794 1.17515 23.5699 0.252482 21.25 0.25ZM16.25 27.6594V22.75C16.25 21.0924 16.9085 19.5027 18.0806 18.3306C19.2527 17.1585 20.8424 16.5 22.5 16.5H27.4094C25.9625 19.8672 19.6172 26.2125 16.25 27.6594Z" fill="#EEEDEE"/>
</svg>
