<svg width="68" height="68" viewBox="0 0 68 68" fill="none" xmlns="http://www.w3.org/2000/svg">
<path d="M63.4022 31.0627L64.2742 31.5523L63.4022 31.0627C62.3781 32.887 62.3781 35.113 63.4022 36.9373L64.0586 38.1064C65.0652 39.8994 64.5485 42.1635 62.8636 43.3422L61.7649 44.1108C60.0507 45.31 59.0848 47.3156 59.2161 49.4035L59.3002 50.7417C59.4291 52.7939 57.9812 54.6096 55.9517 54.9405L54.6284 55.1562C52.5636 55.4929 50.8232 56.8808 50.0355 58.819L49.5307 60.0611C48.7565 61.966 46.6642 62.9736 44.6921 62.3912L43.4062 62.0114C41.3998 61.4189 39.2296 61.9142 37.679 63.3187L36.6852 64.2187C35.1612 65.5991 32.8388 65.5991 31.3148 64.2187L30.321 63.3187C28.7704 61.9142 26.6002 61.4189 24.5938 62.0114L23.3079 62.3912C21.3358 62.9736 19.2435 61.966 18.4693 60.0611L17.9645 58.819C17.1768 56.8808 15.4364 55.4929 13.3716 55.1562L12.0483 54.9405C10.0188 54.6096 8.57085 52.7939 8.69984 50.7417L8.78394 49.4035C8.91518 47.3156 7.94934 45.31 6.23507 44.1108L5.66185 44.9302L6.23507 44.1107L5.13643 43.3422C3.45154 42.1635 2.93477 39.8994 3.9414 38.1064L4.59777 36.9373C5.62195 35.113 5.62195 32.887 4.59777 31.0627L3.9414 29.8936C2.93477 28.1006 3.45154 25.8365 5.13644 24.6578L6.23507 23.8892C7.94934 22.69 8.91518 20.6844 8.78394 18.5965L8.69984 17.2583C8.57085 15.2061 10.0188 13.3904 12.0483 13.0595L13.3716 12.8438C15.4364 12.5071 17.1768 11.1192 17.9645 9.18105L18.4693 7.93894C19.2435 6.03401 21.3358 5.02638 23.3079 5.60879L24.5938 5.98855C26.6002 6.58112 28.7704 6.08578 30.321 4.68134L31.3148 3.78127C32.8388 2.4009 35.1612 2.4009 36.6852 3.78127L37.679 4.68134C39.2296 6.08578 41.3998 6.58112 43.4062 5.98855L44.6921 5.60879C46.6642 5.02638 48.7565 6.03401 49.5307 7.93894L50.0355 9.18105C50.8232 11.1192 52.5636 12.5071 54.6284 12.8438L55.9517 13.0595C57.9812 13.3904 59.4291 15.2061 59.3002 17.2583L59.2161 18.5965C59.0848 20.6844 60.0507 22.69 61.7649 23.8892L62.8636 24.6578C64.5485 25.8365 65.0652 28.1006 64.0586 29.8936L63.4022 31.0627Z" stroke="#EEEDEE" stroke-width="2"/>
<path d="M17.5 34C17.5 35.4227 17.6815 36.8044 18.0196 38.1241L18.116 38.5H18.504H24.2H24.7532L24.6975 37.9496C24.4312 35.3233 24.4312 32.6767 24.6975 30.0504L24.7532 29.5H24.2H18.504H18.1162L18.0197 29.8756C17.6736 31.223 17.499 32.6088 17.5 34ZM17.5 34H18M17.5 34C17.5 34.0001 17.5 34.0003 17.5 34.0004L18 34M18 34C17.999 32.6508 18.1683 31.3068 18.504 30H23.6975C23.6992 29.9832 23.7008 29.9664 23.7025 29.9496L24.2 30V30.5H24.1525C23.9462 32.8288 23.9462 35.1712 24.1525 37.5H24.2V38L23.7025 38.0504C23.7008 38.0336 23.6992 38.0168 23.6975 38H18.504C18.176 36.72 18 35.38 18 34ZM27.7772 29.5H28.224H39.776H40.2225L40.2728 29.9437C40.5783 32.6393 40.5783 35.3607 40.2728 38.0563L40.2225 38.5H39.776H28.224H27.7781L27.7273 38.057C27.577 36.7475 27.5 35.3885 27.5 34.0002L27.7772 29.5ZM27.7772 29.5L27.7272 29.9439M27.7772 29.5L27.7272 29.9439M27.7272 29.9439C27.5752 31.2906 27.4994 32.6448 27.5 34L27.7272 29.9439ZM19.7072 25.7495L19.2729 26.5H20.14H24.832H25.2345L25.3205 26.1068C25.8447 23.7085 26.5992 21.5712 27.5177 19.8024L28.2097 18.4699L26.857 19.1215C23.863 20.5639 21.3719 22.8732 19.7072 25.7495ZM49.9803 29.8757L49.8839 29.5H49.496H43.8H43.2467L43.3025 30.0504C43.5688 32.6767 43.5688 35.3233 43.3025 37.9496L43.2467 38.5H43.8H49.496H49.8839L49.9803 38.1243C50.6746 35.4186 50.6746 32.5814 49.9803 29.8757ZM47.86 26.5H48.7271L48.2928 25.7495C46.6281 22.8732 44.137 20.5639 41.143 19.1215L39.7883 18.4689L40.4825 19.8028C41.4027 21.5712 42.1553 23.7082 42.6795 26.1068L42.7655 26.5H43.168H47.86ZM28.455 25.8785L28.2992 26.5H28.94H39.06H39.6955L39.546 25.8823C39.1735 24.344 38.6363 22.8503 37.9436 21.4272L37.9436 21.4272L37.9411 21.4223C37.2966 20.1341 36.6172 19.173 35.9627 18.5261C35.3237 17.8945 34.6434 17.5 34 17.5C33.3557 17.5 32.6754 17.8944 32.0364 18.5262C31.3822 19.1731 30.7034 20.1342 30.0589 21.4223L30.0585 21.423C29.4099 22.7242 28.8684 24.2291 28.455 25.8785ZM20.14 41.5H19.2729L19.7072 42.2505C21.3719 45.1268 23.863 47.4361 26.857 48.8785L28.2117 49.5311L27.5175 48.1972C26.5973 46.4288 25.8447 44.2918 25.3205 41.8932L25.2345 41.5H24.832H20.14ZM48.2928 42.2505L48.7271 41.5H47.86H43.168H42.7655L42.6795 41.8932C42.1553 44.2915 41.4008 46.4288 40.4823 48.1976L39.7903 49.5301L41.143 48.8785C44.137 47.4361 46.6281 45.1268 48.2928 42.2505ZM28.94 41.5H28.2992L28.455 42.1215C28.8684 43.7709 29.4099 45.2758 30.0585 46.577L30.0589 46.5778C30.7034 47.8659 31.3828 48.827 32.0373 49.4739C32.6763 50.1055 33.3566 50.5 34 50.5C34.6443 50.5 35.3246 50.1056 35.9636 49.4738C36.6178 48.8269 37.2966 47.8658 37.9411 46.5778L37.9415 46.577C38.5901 45.2758 39.1316 43.7709 39.545 42.1215L39.7008 41.5H39.06H28.94ZM34 53.5C23.2301 53.5 14.5 44.7699 14.5 34C14.5 23.2301 23.2301 14.5 34 14.5C44.7699 14.5 53.5 23.2301 53.5 34C53.5 44.7699 44.7699 53.5 34 53.5Z" fill="#EEEDEE" stroke="#08060A"/>
</svg>
