<svg width="86" height="90" viewBox="0 0 86 90" fill="none" xmlns="http://www.w3.org/2000/svg">
<g filter="url(#filter0_d_4877_2649)">
<path d="M54.6071 36.8857L43.2441 43.7466L31.8812 36.8857C31.7445 36.8033 31.631 36.6847 31.5521 36.5418C31.4731 36.3989 31.4316 36.2369 31.4316 36.0719C31.4316 35.9069 31.4731 35.7448 31.5521 35.6019C31.631 35.459 31.7445 35.3404 31.8812 35.258L41.8426 29.2427C42.2687 28.9854 42.7521 28.85 43.2441 28.85C43.7362 28.85 44.2196 28.9854 44.6457 29.2427L54.6071 35.258C54.7438 35.3404 54.8573 35.459 54.9362 35.6019C55.0151 35.7448 55.0567 35.9069 55.0567 36.0719C55.0567 36.2369 55.0151 36.3989 54.9362 36.5418C54.8573 36.6847 54.7438 36.8033 54.6071 36.8857ZM28.8691 41.0337V52.6721C28.868 53.2055 29.0006 53.7299 29.2536 54.1931C29.5066 54.6563 29.8712 55.0421 30.3111 55.3121L40.0996 61.2241C40.2361 61.3065 40.391 61.3499 40.5486 61.35C40.7062 61.35 40.8611 61.3067 40.9977 61.2243C41.1342 61.142 41.2476 61.0235 41.3266 60.8808C41.4055 60.7381 41.4471 60.5763 41.4473 60.4114V47.0021L30.2168 40.221C30.0803 40.1386 29.9254 40.0952 29.7678 40.0952C29.6102 40.0951 29.4553 40.1385 29.3188 40.2208C29.1822 40.3031 29.0688 40.4216 28.9899 40.5643C28.9109 40.707 28.8693 40.8689 28.8691 41.0337ZM57.6191 52.6721V41.0337C57.619 40.8689 57.5773 40.707 57.4984 40.5643C57.4195 40.4216 57.3061 40.3031 57.1695 40.2208C57.033 40.1385 56.8781 40.0951 56.7205 40.0952C56.5628 40.0952 56.408 40.1386 56.2715 40.221L45.041 47.0021V60.4114C45.0412 60.5763 45.0828 60.7381 45.1617 60.8808C45.2406 61.0235 45.3541 61.142 45.4906 61.2243C45.6272 61.3067 45.7821 61.35 45.9397 61.35C46.0973 61.3499 46.2522 61.3065 46.3887 61.2241L56.1749 55.3121C56.6153 55.0424 56.9803 54.6568 57.2337 54.1935C57.4871 53.7303 57.62 53.2057 57.6191 52.6721Z" fill="#EEEDEE"/>
</g>
<defs>
<filter id="filter0_d_4877_2649" x="-5" y="-2.75" width="96" height="96" filterUnits="userSpaceOnUse" color-interpolation-filters="sRGB">
<feFlood flood-opacity="0" result="BackgroundImageFix"/>
<feColorMatrix in="SourceAlpha" type="matrix" values="0 0 0 0 0 0 0 0 0 0 0 0 0 0 0 0 0 0 127 0" result="hardAlpha"/>
<feOffset/>
<feGaussianBlur stdDeviation="14"/>
<feComposite in2="hardAlpha" operator="out"/>
<feColorMatrix type="matrix" values="0 0 0 0 1 0 0 0 0 0.447059 0 0 0 0 0.372549 0 0 0 1 0"/>
<feBlend mode="normal" in2="BackgroundImageFix" result="effect1_dropShadow_4877_2649"/>
<feBlend mode="normal" in="SourceGraphic" in2="effect1_dropShadow_4877_2649" result="shape"/>
</filter>
</defs>
</svg>
