<svg width="48" height="48" viewBox="0 0 75 80" fill="none" xmlns="http://www.w3.org/2000/svg">
<g id="Cube48">
<path id="Vector" d="M50.9286 29.9627L37.293 38.1958L23.6574 29.9627C23.4934 29.8638 23.3572 29.7215 23.2625 29.55C23.1678 29.3786 23.1179 29.1841 23.1179 28.9861C23.1179 28.7881 23.1678 28.5936 23.2625 28.4222C23.3572 28.2507 23.4934 28.1084 23.6574 28.0095L35.6111 20.7911C36.1225 20.4824 36.7025 20.3198 37.293 20.3198C37.8834 20.3198 38.4635 20.4824 38.9748 20.7911L50.9286 28.0095C51.0926 28.1084 51.2288 28.2507 51.3235 28.4222C51.4182 28.5936 51.468 28.7881 51.468 28.9861C51.468 29.1841 51.4182 29.3786 51.3235 29.55C51.2288 29.7215 51.0926 29.8638 50.9286 29.9627ZM20.043 34.9403V48.9064C20.0416 49.5465 20.2007 50.1758 20.5043 50.7316C20.8079 51.2875 21.2454 51.7504 21.7734 52.0744L33.5195 59.1688C33.6833 59.2677 33.8692 59.3198 34.0583 59.3198C34.2475 59.3199 34.4333 59.2679 34.5972 59.1691C34.761 59.0703 34.8972 58.9281 34.9919 58.7569C35.0866 58.5856 35.1365 58.3914 35.1367 58.1936V42.1023L21.6602 33.9651C21.4963 33.8662 21.3105 33.8141 21.1214 33.8141C20.9322 33.814 20.7464 33.866 20.5825 33.9648C20.4187 34.0636 20.2825 34.2058 20.1878 34.377C20.0931 34.5482 20.0432 34.7425 20.043 34.9403ZM54.543 48.9064V34.9403C54.5428 34.7425 54.4928 34.5482 54.3981 34.377C54.3034 34.2058 54.1673 34.0636 54.0034 33.9648C53.8396 33.866 53.6537 33.814 53.4646 33.8141C53.2754 33.8141 53.0896 33.8662 52.9258 33.9651L39.4492 42.1023V58.1936C39.4494 58.3914 39.4994 58.5856 39.5941 58.7569C39.6888 58.9281 39.8249 59.0703 39.9888 59.1691C40.1526 59.2679 40.3385 59.3199 40.5276 59.3198C40.7168 59.3198 40.9026 59.2677 41.0664 59.1688L52.8099 52.0744C53.3383 51.7508 53.7764 51.288 54.0805 50.7321C54.3846 50.1762 54.544 49.5467 54.543 48.9064Z"/>
</g>
</svg>
