<svg width="86" height="90" viewBox="0 0 86 90" fill="none" xmlns="http://www.w3.org/2000/svg">
<g filter="url(#filter0_d_5323_53397)">
<path d="M54.6071 36.8854L43.2441 43.7462L31.8812 36.8854C31.7445 36.8029 31.631 36.6843 31.5521 36.5414C31.4731 36.3986 31.4316 36.2365 31.4316 36.0715C31.4316 35.9065 31.4731 35.7444 31.5521 35.6016C31.631 35.4587 31.7445 35.3401 31.8812 35.2576L41.8426 29.2423C42.2687 28.9851 42.7521 28.8496 43.2441 28.8496C43.7362 28.8496 44.2196 28.9851 44.6457 29.2423L54.6071 35.2576C54.7438 35.3401 54.8573 35.4587 54.9362 35.6016C55.0151 35.7444 55.0567 35.9065 55.0567 36.0715C55.0567 36.2365 55.0151 36.3986 54.9362 36.5414C54.8573 36.6843 54.7438 36.8029 54.6071 36.8854ZM28.8691 41.0334V52.6717C28.868 53.2051 29.0006 53.7296 29.2536 54.1928C29.5066 54.656 29.8712 55.0418 30.3111 55.3118L40.0996 61.2237C40.2361 61.3062 40.391 61.3496 40.5486 61.3496C40.7062 61.3497 40.8611 61.3063 40.9977 61.224C41.1342 61.1416 41.2476 61.0232 41.3266 60.8805C41.4055 60.7378 41.4471 60.5759 41.4473 60.411V47.0017L30.2168 40.2207C30.0803 40.1383 29.9254 40.0948 29.7678 40.0948C29.6102 40.0948 29.4553 40.1381 29.3188 40.2204C29.1822 40.3028 29.0688 40.4212 28.9899 40.5639C28.9109 40.7066 28.8693 40.8685 28.8691 41.0334ZM57.6191 52.6717V41.0334C57.619 40.8685 57.5773 40.7066 57.4984 40.5639C57.4195 40.4212 57.3061 40.3028 57.1695 40.2204C57.033 40.1381 56.8781 40.0948 56.7205 40.0948C56.5628 40.0948 56.408 40.1383 56.2715 40.2207L45.041 47.0017V60.411C45.0412 60.5759 45.0828 60.7378 45.1617 60.8805C45.2406 61.0232 45.3541 61.1416 45.4906 61.224C45.6272 61.3063 45.7821 61.3497 45.9397 61.3496C46.0973 61.3496 46.2522 61.3062 46.3887 61.2237L56.1749 55.3118C56.6153 55.0421 56.9803 54.6564 57.2337 54.1932C57.4871 53.73 57.62 53.2054 57.6191 52.6717Z" fill="#EEEDEE"/>
</g>
<defs>
<filter id="filter0_d_5323_53397" x="-5" y="-2.75" width="96" height="96" filterUnits="userSpaceOnUse" color-interpolation-filters="sRGB">
<feFlood flood-opacity="0" result="BackgroundImageFix"/>
<feColorMatrix in="SourceAlpha" type="matrix" values="0 0 0 0 0 0 0 0 0 0 0 0 0 0 0 0 0 0 127 0" result="hardAlpha"/>
<feOffset/>
<feGaussianBlur stdDeviation="14"/>
<feComposite in2="hardAlpha" operator="out"/>
<feColorMatrix type="matrix" values="0 0 0 0 0.345098 0 0 0 0 0.396078 0 0 0 0 0.94902 0 0 0 1 0"/>
<feBlend mode="normal" in2="BackgroundImageFix" result="effect1_dropShadow_5323_53397"/>
<feBlend mode="normal" in="SourceGraphic" in2="effect1_dropShadow_5323_53397" result="shape"/>
</filter>
</defs>
</svg>
