<svg width="75" height="80" viewBox="0 0 75 80" fill="none" xmlns="http://www.w3.org/2000/svg">
<g id="Cube" filter="url(#filter0_d_363_3563)">
<path id="Vector" d="M50.9286 29.9628L37.293 38.1959L23.6574 29.9628C23.4934 29.8639 23.3572 29.7216 23.2625 29.5501C23.1678 29.3787 23.1179 29.1842 23.1179 28.9862C23.1179 28.7882 23.1678 28.5937 23.2625 28.4222C23.3572 28.2508 23.4934 28.1085 23.6574 28.0095L35.6111 20.7912C36.1225 20.4825 36.7025 20.3199 37.293 20.3199C37.8834 20.3199 38.4635 20.4825 38.9748 20.7912L50.9286 28.0095C51.0926 28.1085 51.2288 28.2508 51.3235 28.4222C51.4182 28.5937 51.468 28.7882 51.468 28.9862C51.468 29.1842 51.4182 29.3787 51.3235 29.5501C51.2288 29.7216 51.0926 29.8639 50.9286 29.9628ZM20.043 34.9404V48.9064C20.0416 49.5466 20.2007 50.1759 20.5043 50.7317C20.8079 51.2876 21.2454 51.7505 21.7734 52.0745L33.5195 59.1689C33.6833 59.2678 33.8692 59.3199 34.0583 59.3199C34.2475 59.32 34.4333 59.268 34.5972 59.1692C34.761 59.0703 34.8972 58.9282 34.9919 58.757C35.0866 58.5857 35.1365 58.3915 35.1367 58.1936V42.1024L21.6602 33.9652C21.4963 33.8663 21.3105 33.8142 21.1214 33.8141C20.9322 33.8141 20.7464 33.8661 20.5825 33.9649C20.4187 34.0637 20.2825 34.2059 20.1878 34.3771C20.0931 34.5483 20.0432 34.7426 20.043 34.9404ZM54.543 48.9064V34.9404C54.5428 34.7426 54.4928 34.5483 54.3981 34.3771C54.3034 34.2059 54.1673 34.0637 54.0034 33.9649C53.8396 33.8661 53.6537 33.8141 53.4646 33.8141C53.2754 33.8142 53.0896 33.8663 52.9258 33.9652L39.4492 42.1024V58.1936C39.4494 58.3915 39.4994 58.5857 39.5941 58.757C39.6888 58.9282 39.8249 59.0703 39.9888 59.1692C40.1526 59.268 40.3385 59.32 40.5276 59.3199C40.7168 59.3199 40.9026 59.2678 41.0664 59.1689L52.8099 52.0745C53.3383 51.7509 53.7764 51.2881 54.0805 50.7322C54.3846 50.1763 54.544 49.5468 54.543 48.9064Z" fill="#EEEDEE"/>
</g>
<defs>
<filter id="filter0_d_363_3563" x="-7" y="-4" width="88" height="88" filterUnits="userSpaceOnUse" color-interpolation-filters="sRGB">
<feFlood flood-opacity="0" result="BackgroundImageFix"/>
<feColorMatrix in="SourceAlpha" type="matrix" values="0 0 0 0 0 0 0 0 0 0 0 0 0 0 0 0 0 0 127 0" result="hardAlpha"/>
<feOffset/>
<feGaussianBlur stdDeviation="10"/>
<feComposite in2="hardAlpha" operator="out"/>
<feColorMatrix type="matrix" values="0 0 0 0 1 0 0 0 0 1 0 0 0 0 1 0 0 0 0.7 0"/>
<feBlend mode="normal" in2="BackgroundImageFix" result="effect1_dropShadow_363_3563"/>
<feBlend mode="normal" in="SourceGraphic" in2="effect1_dropShadow_363_3563" result="shape"/>
</filter>
</defs>
</svg>
