<svg width="24" height="24" viewBox="0 0 24 24" fill="none" xmlns="http://www.w3.org/2000/svg">
<g id="DiscordLogo">
<path id="Vector" d="M10.1243 12.7501C10.1243 13.0468 10.0363 13.3368 9.87152 13.5834C9.7067 13.8301 9.47243 14.0224 9.19834 14.1359C8.92425 14.2494 8.62265 14.2791 8.33168 14.2213C8.04071 14.1634 7.77344 14.0205 7.56366 13.8107C7.35388 13.601 7.21102 13.3337 7.15314 13.0427C7.09526 12.7517 7.12497 12.4501 7.2385 12.1761C7.35203 11.902 7.54429 11.6677 7.79096 11.5029C8.03764 11.3381 8.32764 11.2501 8.62432 11.2501C9.02214 11.2501 9.40367 11.4081 9.68498 11.6894C9.96628 11.9707 10.1243 12.3523 10.1243 12.7501ZM15.3743 11.2501C15.0776 11.2501 14.7876 11.3381 14.541 11.5029C14.2943 11.6677 14.102 11.902 13.9885 12.1761C13.875 12.4501 13.8453 12.7517 13.9031 13.0427C13.961 13.3337 14.1039 13.601 14.3137 13.8107C14.5234 14.0205 14.7907 14.1634 15.0817 14.2213C15.3727 14.2791 15.6743 14.2494 15.9483 14.1359C16.2224 14.0224 16.4567 13.8301 16.6215 13.5834C16.7863 13.3368 16.8743 13.0468 16.8743 12.7501C16.8743 12.3523 16.7163 11.9707 16.435 11.6894C16.1537 11.4081 15.7721 11.2501 15.3743 11.2501ZM22.5059 18.4276L16.2246 21.2129C15.989 21.3177 15.7344 21.3732 15.4766 21.3759C15.2187 21.3786 14.963 21.3284 14.7253 21.2286C14.4875 21.1287 14.2727 20.9812 14.0941 20.7952C13.9155 20.6092 13.7769 20.3886 13.6868 20.147L12.8862 17.9785C12.5928 17.9916 12.2984 18.001 12.0003 18.001C11.7021 18.001 11.4078 17.9916 11.1143 17.9785L10.3118 20.147C10.2213 20.3884 10.0824 20.6087 9.90362 20.7945C9.72487 20.9803 9.51005 21.1276 9.27233 21.2274C9.03461 21.3273 8.77901 21.3774 8.52119 21.3749C8.26338 21.3724 8.0088 21.3173 7.77307 21.2129L1.49182 18.4276C1.08697 18.2497 0.758332 17.934 0.564356 17.5366C0.37038 17.1392 0.323638 16.6859 0.432441 16.2573L3.20088 5.34383C3.29123 4.98927 3.48334 4.6689 3.75354 4.42219C4.02374 4.17548 4.36021 4.01321 4.7215 3.95539L8.10213 3.39945C8.56739 3.32504 9.04369 3.42621 9.43853 3.68332C9.83337 3.94042 10.1186 4.33511 10.2387 4.7907L10.6521 6.42289C11.0965 6.39195 11.5446 6.37508 11.9993 6.37508C12.454 6.37508 12.9021 6.39195 13.3465 6.42289L13.7599 4.7907C13.8799 4.33499 14.165 3.94018 14.5599 3.68304C14.9548 3.42591 15.4312 3.32482 15.8965 3.39945L19.2771 3.95539C19.6384 4.01321 19.9749 4.17548 20.2451 4.42219C20.5153 4.6689 20.7074 4.98927 20.7978 5.34383L23.5662 16.2545C23.6757 16.6836 23.6292 17.1376 23.435 17.5357C23.2408 17.9337 22.9115 18.2498 22.5059 18.4276ZM21.3068 16.5001L18.6771 6.13695L15.8581 5.67383L15.5918 6.72101C15.8637 6.77539 16.1337 6.83351 16.399 6.90101C16.5444 6.93501 16.6816 6.99763 16.8026 7.08521C16.9236 7.17279 17.0259 7.28358 17.1036 7.41112C17.1813 7.53866 17.2329 7.6804 17.2552 7.82807C17.2776 7.97574 17.2703 8.12638 17.2339 8.27121C17.1974 8.41604 17.1324 8.55216 17.0428 8.67162C16.9532 8.79109 16.8407 8.89152 16.7118 8.96704C16.583 9.04256 16.4404 9.09168 16.2923 9.11151C16.1443 9.13135 15.9938 9.12151 15.8496 9.08258C14.5899 8.77248 13.2967 8.61882 11.9993 8.62508C10.702 8.61882 9.40877 8.77248 8.149 9.08258C7.8617 9.14974 7.55952 9.10135 7.30756 8.94783C7.0556 8.79431 6.87403 8.54795 6.80198 8.26184C6.72993 7.97573 6.77316 7.67276 6.92236 7.41822C7.07156 7.16368 7.31479 6.97793 7.59963 6.90101C7.86494 6.83351 8.13494 6.77539 8.40682 6.72101L8.1415 5.67383L5.3215 6.13695L2.69182 16.5001L8.33744 19.0032L8.80619 17.731C8.3965 17.6598 7.99338 17.5763 7.59869 17.477C7.45539 17.4409 7.32059 17.3769 7.202 17.2888C7.08341 17.2006 6.98334 17.0899 6.90752 16.9631C6.75438 16.7069 6.70928 16.4004 6.78213 16.111C6.85498 15.8216 7.03982 15.573 7.29598 15.4198C7.55215 15.2667 7.85865 15.2216 8.14807 15.2945C9.40822 15.604 10.7017 15.757 11.9993 15.7501C13.2967 15.7563 14.5899 15.6027 15.8496 15.2926C16.139 15.2197 16.4456 15.2648 16.7017 15.418C16.9579 15.5711 17.1427 15.8197 17.2156 16.1091C17.2884 16.3986 17.2433 16.7051 17.0902 16.9612C16.937 17.2174 16.6884 17.4022 16.399 17.4751C16.0043 17.5745 15.6012 17.6579 15.1915 17.7291L15.6603 19.0013L21.3068 16.5001Z" fill="white" fill-opacity="0.3"/>
</g>
</svg>
