<svg width="44" height="44" viewBox="0 0 44 44" fill="none" xmlns="http://www.w3.org/2000/svg">
<g id="ic:baseline-discord">
<path id="Vector" d="M35.3269 9.77143C32.8886 8.63476 30.2486 7.80976 27.4986 7.33309C27.4745 7.33232 27.4505 7.33685 27.4283 7.34635C27.4061 7.35585 27.3863 7.3701 27.3703 7.38809C27.0403 7.99309 26.6553 8.78143 26.3986 9.38643C23.4818 8.94643 20.5154 8.94643 17.5986 9.38643C17.3419 8.76309 16.9569 7.99309 16.6086 7.38809C16.5903 7.35143 16.5353 7.33309 16.4803 7.33309C13.7303 7.80976 11.1086 8.63476 8.65192 9.77143C8.63359 9.77143 8.61525 9.78976 8.59692 9.80809C3.61025 17.2698 2.23525 24.5298 2.91359 31.7164C2.91359 31.7531 2.93192 31.7898 2.96859 31.8081C6.26859 34.2281 9.44025 35.6948 12.5753 36.6664C12.6303 36.6848 12.6853 36.6664 12.7036 36.6298C13.4369 35.6214 14.0969 34.5581 14.6653 33.4398C14.7019 33.3664 14.6653 33.2931 14.5919 33.2748C13.5469 32.8714 12.5569 32.3948 11.5853 31.8448C11.5119 31.8081 11.5119 31.6981 11.5669 31.6431C11.7686 31.4964 11.9703 31.3314 12.1719 31.1848C12.2086 31.1481 12.2636 31.1481 12.3003 31.1664C18.6069 34.0448 25.4086 34.0448 31.6419 31.1664C31.6786 31.1481 31.7336 31.1481 31.7703 31.1848C31.9719 31.3498 32.1736 31.4964 32.3752 31.6614C32.4486 31.7164 32.4486 31.8264 32.3569 31.8631C31.4036 32.4314 30.3953 32.8898 29.3503 33.2931C29.2769 33.3114 29.2586 33.4031 29.2769 33.4581C29.8636 34.5764 30.5236 35.6398 31.2386 36.6481C31.2936 36.6664 31.3486 36.6848 31.4036 36.6664C34.5569 35.6948 37.7286 34.2281 41.0286 31.8081C41.0653 31.7898 41.0836 31.7531 41.0836 31.7164C41.8903 23.4114 39.7453 16.2064 35.4002 9.80809C35.3819 9.78976 35.3636 9.77143 35.3269 9.77143ZM15.6186 27.3348C13.7303 27.3348 12.1536 25.5931 12.1536 23.4481C12.1536 21.3031 13.6936 19.5614 15.6186 19.5614C17.5619 19.5614 19.1019 21.3214 19.0836 23.4481C19.0836 25.5931 17.5436 27.3348 15.6186 27.3348ZM28.3969 27.3348C26.5086 27.3348 24.9319 25.5931 24.9319 23.4481C24.9319 21.3031 26.4719 19.5614 28.3969 19.5614C30.3403 19.5614 31.8803 21.3214 31.8619 23.4481C31.8619 25.5931 30.3403 27.3348 28.3969 27.3348Z" fill="#EEEDEE"/>
</g>
</svg>
