<svg width="40" height="40" viewBox="0 0 40 40" fill="none" xmlns="http://www.w3.org/2000/svg">
<path d="M31.6074 11.6358L20.2444 18.4967L8.8814 11.6358C8.74473 11.5534 8.63122 11.4348 8.5523 11.2919C8.47338 11.1491 8.43183 10.987 8.43183 10.822C8.43183 10.657 8.47338 10.4949 8.5523 10.352C8.63122 10.2092 8.74473 10.0906 8.8814 10.0081L18.8428 3.99282C19.269 3.73554 19.7523 3.6001 20.2444 3.6001C20.7364 3.6001 21.2198 3.73554 21.646 3.99282L31.6074 10.0081C31.744 10.0906 31.8576 10.2092 31.9365 10.352C32.0154 10.4949 32.0569 10.657 32.0569 10.822C32.0569 10.987 32.0154 11.1491 31.9365 11.2919C31.8576 11.4348 31.744 11.5534 31.6074 11.6358ZM5.86939 15.7838V27.4222C5.86828 27.9556 6.00083 28.4801 6.25383 28.9433C6.50682 29.4065 6.87145 29.7923 7.31138 30.0623L17.0999 35.9742C17.2364 36.0566 17.3912 36.1001 17.5488 36.1001C17.7065 36.1001 17.8613 36.0568 17.9979 35.9745C18.1344 35.8921 18.2479 35.7737 18.3268 35.631C18.4057 35.4883 18.4474 35.3264 18.4475 35.1615V21.7522L7.21705 14.9712C7.08054 14.8887 6.92569 14.8453 6.76806 14.8453C6.61043 14.8452 6.45556 14.8886 6.31901 14.9709C6.18246 15.0533 6.06903 15.1717 5.99011 15.3144C5.91118 15.4571 5.86955 15.619 5.86939 15.7838ZM34.6194 27.4222V15.7838C34.6192 15.619 34.5776 15.4571 34.4987 15.3144C34.4198 15.1717 34.3063 15.0533 34.1698 14.9709C34.0332 14.8886 33.8783 14.8452 33.7207 14.8453C33.5631 14.8453 33.4082 14.8887 33.2717 14.9712L22.0413 21.7522V35.1615C22.0414 35.3264 22.0831 35.4883 22.162 35.631C22.2409 35.7737 22.3543 35.8921 22.4909 35.9745C22.6274 36.0568 22.7823 36.1001 22.9399 36.1001C23.0976 36.1001 23.2524 36.0566 23.3889 35.9742L33.1751 30.0623C33.6155 29.7926 33.9806 29.4069 34.234 28.9437C34.4874 28.4804 34.6203 27.9559 34.6194 27.4222Z" fill="white" fill-opacity="0.38"/>
</svg>
