<svg width="40" height="40" viewBox="0 0 40 40" fill="none" xmlns="http://www.w3.org/2000/svg">
<path d="M20 3.75C16.7861 3.75 13.6443 4.70305 10.972 6.48862C8.29969 8.27419 6.21689 10.8121 4.98696 13.7814C3.75704 16.7507 3.43524 20.018 4.06225 23.1702C4.68926 26.3224 6.23692 29.2179 8.50952 31.4905C10.7821 33.7631 13.6776 35.3107 16.8298 35.9378C19.982 36.5648 23.2493 36.243 26.2186 35.013C29.1879 33.7831 31.7258 31.7003 33.5114 29.028C35.297 26.3557 36.25 23.2139 36.25 20C36.2455 15.6916 34.5319 11.561 31.4855 8.51454C28.439 5.46806 24.3084 3.75455 20 3.75ZM7.75469 26.25H14.1328L16.7891 33.3719C14.8596 32.9042 13.0538 32.0259 11.4947 30.7969C9.93557 29.5678 8.6599 28.0169 7.75469 26.25ZM20 24.375C19.5056 24.375 19.0222 24.2284 18.6111 23.9537C18.2 23.679 17.8795 23.2885 17.6903 22.8317C17.5011 22.3749 17.4516 21.8722 17.548 21.3873C17.6445 20.9023 17.8826 20.4569 18.2322 20.1072C18.5819 19.7576 19.0273 19.5195 19.5123 19.423C19.9972 19.3266 20.4999 19.3761 20.9567 19.5653C21.4135 19.7545 21.804 20.075 22.0787 20.4861C22.3534 20.8972 22.5 21.3805 22.5 21.875C22.5 22.538 22.2366 23.1739 21.7678 23.6428C21.2989 24.1116 20.663 24.375 20 24.375ZM23.1969 33.3734L25.8672 26.25H32.2453C31.3389 28.0188 30.0611 29.571 28.4995 30.8004C26.9378 32.0299 25.129 32.9075 23.1969 33.3734ZM20 15C14.9637 15.0061 10.0924 16.7958 6.25001 20.0516V20C6.25001 16.3533 7.69866 12.8559 10.2773 10.2773C12.8559 7.69866 16.3533 6.25 20 6.25C23.6467 6.25 27.1441 7.69866 29.7227 10.2773C32.3014 12.8559 33.75 16.3533 33.75 20V20.0516C29.9076 16.7958 25.0363 15.0061 20 15Z" fill="white" fill-opacity="0.38"/>
</svg>
