<svg width="32" height="32" viewBox="0 0 32 32" fill="none" xmlns="http://www.w3.org/2000/svg">
<g clip-path="url(#clip0_5408_7774)">
<path d="M15.9819 0C7.53794 0 0.652322 6.47232 0 14.7164L8.5889 18.2599C9.3137 17.7537 10.1835 17.4644 11.1257 17.4644C11.1982 17.4644 11.3069 17.4644 11.3794 17.4644L15.2208 11.9684C15.2208 11.9322 15.2208 11.9322 15.2208 11.896C15.2208 8.56949 17.9388 5.85763 21.2729 5.85763C24.607 5.85763 27.325 8.56949 27.325 11.896C27.325 15.2226 24.607 17.9345 21.2729 17.9345C21.2367 17.9345 21.1642 17.9345 21.128 17.9345L15.692 21.8034C15.692 21.8757 15.692 21.948 15.692 22.0203C15.692 24.5153 13.6625 26.5401 11.1619 26.5401C8.9513 26.5401 7.1393 24.9853 6.70442 22.8881L0.543601 20.3571C2.42809 27.0825 8.62514 32 15.9819 32C24.8245 32 32 24.8407 32 16.0181C32 7.15932 24.8245 0 15.9819 0Z" fill="#EEEDEE"/>
<path d="M10.0385 24.262L8.08154 23.4666C8.44394 24.1897 9.02379 24.8044 9.82107 25.1298C11.5606 25.853 13.5538 25.0214 14.2786 23.2858C14.641 22.4541 14.641 21.514 14.2786 20.6824C13.9162 19.8507 13.2639 19.1999 12.4304 18.8383C11.5968 18.4767 10.6908 18.5129 9.92979 18.8022L11.9592 19.6338C13.2276 20.1762 13.8437 21.6225 13.3001 22.888C12.7928 24.1897 11.3069 24.8044 10.0385 24.262Z" fill="#EEEDEE"/>
<path d="M25.2958 11.8598C25.2958 9.6541 23.4838 7.84619 21.2731 7.84619C19.0625 7.84619 17.2505 9.6541 17.2505 11.8598C17.2505 14.0654 19.0625 15.8733 21.2731 15.8733C23.4838 15.8733 25.2958 14.1016 25.2958 11.8598ZM18.229 11.8598C18.229 10.1965 19.5699 8.85862 21.2731 8.85862C22.9764 8.85862 24.3173 10.1965 24.3173 11.8598C24.3173 13.523 22.9764 14.8609 21.2731 14.8609C19.5699 14.8609 18.229 13.523 18.229 11.8598Z" fill="#EEEDEE"/>
</g>
<defs>
<clipPath id="clip0_5408_7774">
<rect width="32" height="32" fill="white"/>
</clipPath>
</defs>
</svg>
