<svg width="86" height="90" viewBox="0 0 86 90" fill="none" xmlns="http://www.w3.org/2000/svg">
<g filter="url(#filter0_d_5408_9502)">
<path d="M54.6071 36.6358L43.2441 43.4967L31.8812 36.6358C31.7445 36.5534 31.631 36.4348 31.5521 36.2919C31.4731 36.1491 31.4316 35.987 31.4316 35.822C31.4316 35.657 31.4731 35.4949 31.5521 35.352C31.631 35.2092 31.7445 35.0906 31.8812 35.0081L41.8426 28.9928C42.2687 28.7355 42.7521 28.6001 43.2441 28.6001C43.7362 28.6001 44.2196 28.7355 44.6457 28.9928L54.6071 35.0081C54.7438 35.0906 54.8573 35.2092 54.9362 35.352C55.0151 35.4949 55.0567 35.657 55.0567 35.822C55.0567 35.987 55.0151 36.1491 54.9362 36.2919C54.8573 36.4348 54.7438 36.5534 54.6071 36.6358ZM28.8691 40.7838V52.4222C28.868 52.9556 29.0006 53.4801 29.2536 53.9433C29.5066 54.4065 29.8712 54.7923 30.3111 55.0623L40.0996 60.9742C40.2361 61.0566 40.391 61.1001 40.5486 61.1001C40.7062 61.1001 40.8611 61.0568 40.9977 60.9745C41.1342 60.8921 41.2476 60.7737 41.3266 60.631C41.4055 60.4883 41.4471 60.3264 41.4473 60.1615V46.7522L30.2168 39.9712C30.0803 39.8887 29.9254 39.8453 29.7678 39.8453C29.6102 39.8452 29.4553 39.8886 29.3188 39.9709C29.1822 40.0533 29.0688 40.1717 28.9899 40.3144C28.9109 40.4571 28.8693 40.619 28.8691 40.7838ZM57.6191 52.4222V40.7838C57.619 40.619 57.5773 40.4571 57.4984 40.3144C57.4195 40.1717 57.3061 40.0533 57.1695 39.9709C57.033 39.8886 56.8781 39.8452 56.7205 39.8453C56.5628 39.8453 56.408 39.8887 56.2715 39.9712L45.041 46.7522V60.1615C45.0412 60.3264 45.0828 60.4883 45.1617 60.631C45.2406 60.7737 45.3541 60.8921 45.4906 60.9745C45.6272 61.0568 45.7821 61.1001 45.9397 61.1001C46.0973 61.1001 46.2522 61.0566 46.3887 60.9742L56.1749 55.0623C56.6153 54.7926 56.9803 54.4069 57.2337 53.9437C57.4871 53.4804 57.62 52.9559 57.6191 52.4222Z" fill="#EEEDEE"/>
</g>
<defs>
<filter id="filter0_d_5408_9502" x="-5" y="-3" width="96" height="96" filterUnits="userSpaceOnUse" color-interpolation-filters="sRGB">
<feFlood flood-opacity="0" result="BackgroundImageFix"/>
<feColorMatrix in="SourceAlpha" type="matrix" values="0 0 0 0 0 0 0 0 0 0 0 0 0 0 0 0 0 0 127 0" result="hardAlpha"/>
<feOffset/>
<feGaussianBlur stdDeviation="14"/>
<feComposite in2="hardAlpha" operator="out"/>
<feColorMatrix type="matrix" values="0 0 0 0 1 0 0 0 0 0.447059 0 0 0 0 0.372549 0 0 0 1 0"/>
<feBlend mode="normal" in2="BackgroundImageFix" result="effect1_dropShadow_5408_9502"/>
<feBlend mode="normal" in="SourceGraphic" in2="effect1_dropShadow_5408_9502" result="shape"/>
</filter>
</defs>
</svg>
