<svg width="40" height="40" viewBox="0 0 40 40" fill="none" xmlns="http://www.w3.org/2000/svg">
<path d="M32.1168 8.88325C29.9001 7.84991 27.5001 7.09991 25.0001 6.66658C24.9782 6.66588 24.9564 6.66999 24.9362 6.67863C24.9161 6.68727 24.8981 6.70022 24.8834 6.71658C24.5834 7.26658 24.2334 7.98325 24.0001 8.53325C21.3484 8.13325 18.6518 8.13325 16.0001 8.53325C15.7668 7.96658 15.4168 7.26658 15.1001 6.71658C15.0834 6.68325 15.0334 6.66658 14.9834 6.66658C12.4834 7.09991 10.1001 7.84991 7.86678 8.88325C7.85011 8.88325 7.83345 8.89991 7.81678 8.91658C3.28345 15.6999 2.03345 22.2999 2.65011 28.8332C2.65011 28.8666 2.66678 28.8999 2.70011 28.9166C5.70011 31.1166 8.58345 32.4499 11.4334 33.3332C11.4834 33.3499 11.5334 33.3332 11.5501 33.2999C12.2168 32.3832 12.8168 31.4166 13.3334 30.3999C13.3668 30.3332 13.3334 30.2666 13.2668 30.2499C12.3168 29.8832 11.4168 29.4499 10.5334 28.9499C10.4668 28.9166 10.4668 28.8166 10.5168 28.7666C10.7001 28.6332 10.8834 28.4832 11.0668 28.3499C11.1001 28.3166 11.1501 28.3166 11.1834 28.3332C16.9168 30.9499 23.1001 30.9499 28.7668 28.3332C28.8001 28.3166 28.8501 28.3166 28.8834 28.3499C29.0668 28.4999 29.2501 28.6332 29.4334 28.7832C29.5001 28.8332 29.5001 28.9332 29.4168 28.9666C28.5501 29.4832 27.6334 29.8999 26.6834 30.2666C26.6168 30.2832 26.6001 30.3666 26.6168 30.4166C27.1501 31.4332 27.7501 32.3999 28.4001 33.3166C28.4501 33.3332 28.5001 33.3499 28.5501 33.3332C31.4168 32.4499 34.3001 31.1166 37.3001 28.9166C37.3334 28.8999 37.3501 28.8666 37.3501 28.8332C38.0834 21.2832 36.1334 14.7332 32.1834 8.91658C32.1668 8.89991 32.1501 8.88325 32.1168 8.88325ZM14.2001 24.8499C12.4834 24.8499 11.0501 23.2666 11.0501 21.3166C11.0501 19.3666 12.4501 17.7832 14.2001 17.7832C15.9668 17.7832 17.3668 19.3832 17.3501 21.3166C17.3501 23.2666 15.9501 24.8499 14.2001 24.8499ZM25.8168 24.8499C24.1001 24.8499 22.6668 23.2666 22.6668 21.3166C22.6668 19.3666 24.0668 17.7832 25.8168 17.7832C27.5834 17.7832 28.9834 19.3832 28.9668 21.3166C28.9668 23.2666 27.5834 24.8499 25.8168 24.8499Z" fill="white" fill-opacity="0.38"/>
</svg>
