<svg width="24" height="24" viewBox="0 0 24 24" fill="none" xmlns="http://www.w3.org/2000/svg">
<path d="M10.5788 17.9898C9.79574 18.008 9.01704 17.8664 8.28842 17.5735C7.55979 17.2805 6.89594 16.8421 6.33585 16.2839C5.77576 15.7258 5.33073 15.0592 5.02689 14.3232C4.72305 13.5873 4.56654 12.7969 4.56654 11.9985C4.56654 11.2 4.72305 10.4096 5.02689 9.67367C5.33073 8.93774 5.77576 8.27112 6.33585 7.71297C6.89594 7.15483 7.55979 6.7164 8.28842 6.42345C9.01704 6.1305 9.79574 5.98893 10.5788 6.00706L22.5 5.99779V1.5H10.3C7.56827 1.5 4.94842 2.60625 3.0168 4.57538C1.08518 6.54451 0 9.21523 0 12C0 14.7848 1.08518 17.4555 3.0168 19.4246C4.94842 21.3938 7.56827 22.5 10.3 22.5H22.497V9.74801H9.26364V14.2489H17.8848V17.9991L10.5788 17.9898Z" fill="#EEEDEE"/>
</svg>
