<svg width="92" height="84" viewBox="0 0 92 84" fill="none" xmlns="http://www.w3.org/2000/svg">
<g filter="url(#filter0_d_5408_9275)">
<path d="M58.1165 30.8832C55.8999 29.8499 53.4999 29.0999 50.9999 28.6666C50.978 28.6659 50.9561 28.67 50.936 28.6786C50.9158 28.6873 50.8978 28.7002 50.8832 28.7166C50.5832 29.2666 50.2332 29.9832 49.9999 30.5332C47.3482 30.1332 44.6515 30.1332 41.9999 30.5332C41.7665 29.9666 41.4165 29.2666 41.0999 28.7166C41.0832 28.6832 41.0332 28.6666 40.9832 28.6666C38.4832 29.0999 36.0999 29.8499 33.8665 30.8832C33.8499 30.8832 33.8332 30.8999 33.8165 30.9166C29.2832 37.6999 28.0332 44.2999 28.6499 50.8332C28.6499 50.8666 28.6665 50.8999 28.6999 50.9166C31.6999 53.1166 34.5832 54.4499 37.4332 55.3332C37.4832 55.3499 37.5332 55.3332 37.5499 55.2999C38.2165 54.3832 38.8165 53.4166 39.3332 52.3999C39.3665 52.3332 39.3332 52.2666 39.2665 52.2499C38.3165 51.8832 37.4165 51.4499 36.5332 50.9499C36.4665 50.9166 36.4665 50.8166 36.5165 50.7666C36.6999 50.6332 36.8832 50.4832 37.0665 50.3499C37.0999 50.3166 37.1499 50.3166 37.1832 50.3332C42.9165 52.9499 49.0999 52.9499 54.7665 50.3332C54.7999 50.3166 54.8499 50.3166 54.8832 50.3499C55.0665 50.4999 55.2499 50.6332 55.4332 50.7832C55.4999 50.8332 55.4999 50.9332 55.4165 50.9666C54.5499 51.4832 53.6332 51.8999 52.6832 52.2666C52.6165 52.2832 52.5999 52.3666 52.6165 52.4166C53.1499 53.4332 53.7499 54.3999 54.3999 55.3166C54.4499 55.3332 54.4999 55.3499 54.5499 55.3332C57.4165 54.4499 60.2999 53.1166 63.2999 50.9166C63.3332 50.8999 63.3499 50.8666 63.3499 50.8332C64.0832 43.2832 62.1332 36.7332 58.1832 30.9166C58.1665 30.8999 58.1499 30.8832 58.1165 30.8832ZM40.1999 46.8499C38.4832 46.8499 37.0499 45.2666 37.0499 43.3166C37.0499 41.3666 38.4499 39.7832 40.1999 39.7832C41.9665 39.7832 43.3665 41.3832 43.3499 43.3166C43.3499 45.2666 41.9499 46.8499 40.1999 46.8499ZM51.8165 46.8499C50.0999 46.8499 48.6665 45.2666 48.6665 43.3166C48.6665 41.3666 50.0665 39.7832 51.8165 39.7832C53.5832 39.7832 54.9832 41.3832 54.9665 43.3166C54.9665 45.2666 53.5832 46.8499 51.8165 46.8499Z" fill="#EEEDEE"/>
</g>
<defs>
<filter id="filter0_d_5408_9275" x="-2" y="-6" width="96" height="96" filterUnits="userSpaceOnUse" color-interpolation-filters="sRGB">
<feFlood flood-opacity="0" result="BackgroundImageFix"/>
<feColorMatrix in="SourceAlpha" type="matrix" values="0 0 0 0 0 0 0 0 0 0 0 0 0 0 0 0 0 0 127 0" result="hardAlpha"/>
<feOffset/>
<feGaussianBlur stdDeviation="14"/>
<feComposite in2="hardAlpha" operator="out"/>
<feColorMatrix type="matrix" values="0 0 0 0 0.345098 0 0 0 0 0.396078 0 0 0 0 0.94902 0 0 0 1 0"/>
<feBlend mode="normal" in2="BackgroundImageFix" result="effect1_dropShadow_5408_9275"/>
<feBlend mode="normal" in="SourceGraphic" in2="effect1_dropShadow_5408_9275" result="shape"/>
</filter>
</defs>
</svg>
