<svg width="24" height="24" viewBox="0 0 24 24" fill="none" xmlns="http://www.w3.org/2000/svg">
<g clip-path="url(#clip0_5408_7789)">
<path d="M20.5076 11.3528L4.12344 20.8052V16.7542L16.9976 9.29463L14.6739 7.95776L2.368 15.0663C2.0059 15.2751 1.78283 15.6612 1.78283 16.079V22.8308C1.78287 23.0361 1.83698 23.2378 1.9397 23.4156C2.04242 23.5933 2.19014 23.7409 2.368 23.8435C2.54592 23.9462 2.74774 24.0002 2.95316 24.0002C3.15859 24.0002 3.3604 23.9462 3.53833 23.8435L23.4334 12.3655C23.7955 12.1567 24.0186 11.7706 24.0186 11.3528C24.0186 10.935 23.7955 10.5489 23.4334 10.3401L17.6018 6.9756C17.5894 6.9681 17.5768 6.96084 17.564 6.95383L11.7305 3.58829C11.3684 3.37942 10.9223 3.37942 10.5602 3.58829L2.36806 8.31451C1.80829 8.63746 1.61655 9.35262 1.93969 9.91201C2.15645 10.2872 2.54981 10.4969 2.95431 10.4969C3.15939 10.4969 3.36083 10.4428 3.53833 10.3401L11.1452 5.95143L20.5076 11.3528Z" fill="#EEEDEE"/>
<path d="M2.9543 3.74476C2.5498 3.74476 2.15644 3.53506 1.93968 3.15985C1.61653 2.60053 1.80834 1.8853 2.36805 1.56235L4.70859 0.212049C5.26835 -0.110901 5.98409 0.0807812 6.30723 0.640102C6.63037 1.19942 6.43863 1.91465 5.87886 2.2376L3.53838 3.5879C3.36088 3.69066 3.1594 3.74477 2.9543 3.74476Z" fill="#EEEDEE"/>
</g>
<defs>
<clipPath id="clip0_5408_7789">
<rect width="24" height="24" fill="white"/>
</clipPath>
</defs>
</svg>
