<?xml version="1.0" encoding="UTF-8"?>
<svg xmlns="http://www.w3.org/2000/svg" xmlns:xlink="http://www.w3.org/1999/xlink" width="24px" height="24px" viewBox="0 0 24 24" version="1.1">
<g id="surface1">
<path style=" stroke:none;fill-rule:nonzero;fill:rgb(93.333333%,92.941176%,93.333333%);fill-opacity:1;" d="M 23.53125 11.542969 C 23.496094 11.46875 22.675781 9.644531 20.859375 7.828125 C 18.433594 5.40625 15.375 4.125 12 4.125 C 8.625 4.125 5.566406 5.40625 3.140625 7.828125 C 1.328125 9.644531 0.507812 11.46875 0.46875 11.542969 C 0.40625 11.6875 0.371094 11.84375 0.371094 12 C 0.371094 12.15625 0.40625 12.3125 0.46875 12.457031 C 0.503906 12.535156 1.324219 14.355469 3.140625 16.171875 C 5.566406 18.59375 8.625 19.875 12 19.875 C 15.375 19.875 18.433594 18.59375 20.859375 16.171875 C 22.671875 14.355469 23.492188 12.535156 23.527344 12.457031 C 23.59375 12.3125 23.625 12.15625 23.625 12 C 23.625 11.84375 23.59375 11.6875 23.53125 11.542969 Z M 19.214844 14.636719 C 17.199219 16.617188 14.773438 17.625 12 17.625 C 9.226562 17.625 6.800781 16.617188 4.789062 14.636719 C 4 13.855469 3.320312 12.964844 2.765625 12 C 3.320312 11.035156 4 10.148438 4.789062 9.363281 C 6.800781 7.382812 9.226562 6.375 12 6.375 C 14.773438 6.375 17.199219 7.382812 19.210938 9.363281 C 20 10.148438 20.679688 11.035156 21.234375 12 C 20.679688 12.964844 20 13.855469 19.210938 14.636719 Z M 12 7.875 C 11.183594 7.875 10.386719 8.117188 9.707031 8.570312 C 9.03125 9.023438 8.5 9.667969 8.1875 10.421875 C 7.875 11.175781 7.796875 12.003906 7.953125 12.804688 C 8.113281 13.605469 8.507812 14.339844 9.082031 14.917969 C 9.660156 15.492188 10.394531 15.886719 11.195312 16.046875 C 11.996094 16.203125 12.824219 16.125 13.578125 15.8125 C 14.332031 15.5 14.976562 14.96875 15.429688 14.292969 C 15.882812 13.613281 16.125 12.816406 16.125 12 C 16.125 10.90625 15.6875 9.859375 14.914062 9.085938 C 14.140625 8.3125 13.09375 7.875 12 7.875 Z M 12 13.875 C 11.628906 13.875 11.265625 13.765625 10.957031 13.558594 C 10.648438 13.351562 10.410156 13.058594 10.269531 12.71875 C 10.125 12.375 10.089844 11.996094 10.160156 11.632812 C 10.234375 11.269531 10.410156 10.9375 10.675781 10.675781 C 10.9375 10.410156 11.269531 10.234375 11.632812 10.160156 C 11.996094 10.089844 12.375 10.125 12.71875 10.269531 C 13.058594 10.410156 13.351562 10.648438 13.558594 10.957031 C 13.765625 11.265625 13.875 11.628906 13.875 12 C 13.875 12.496094 13.675781 12.972656 13.324219 13.324219 C 12.972656 13.675781 12.496094 13.875 12 13.875 Z M 12 13.875 "/>
</g>
</svg>
