<svg width="32" height="32" viewBox="0 0 32 32" fill="none" xmlns="http://www.w3.org/2000/svg">
<path d="M29.3025 20.25C29.401 20.421 29.4648 20.6098 29.4904 20.8055C29.5159 21.0012 29.5027 21.2001 29.4513 21.3907C29.4 21.5813 29.3117 21.7599 29.1914 21.9163C29.071 22.0728 28.9211 22.204 28.75 22.3025C28.579 22.401 28.3902 22.4648 28.1945 22.4904C27.9988 22.5159 27.7999 22.5026 27.6093 22.4513C27.4187 22.4 27.2401 22.3117 27.0837 22.1913C26.9272 22.071 26.796 21.921 26.6975 21.75L24.59 18.0625C23.414 18.8023 22.1461 19.3848 20.8188 19.795L21.48 23.75C21.5451 24.1423 21.4516 24.5444 21.2203 24.8679C20.9889 25.1914 20.6386 25.4098 20.2463 25.475C20.1637 25.4895 20.0801 25.4966 19.9963 25.4962C19.642 25.4959 19.2994 25.3702 19.029 25.1414C18.7585 24.9126 18.5778 24.5955 18.5188 24.2462L17.875 20.3962C16.6263 20.5346 15.3662 20.5346 14.1175 20.3962L13.48 24.25C13.4209 24.5997 13.2398 24.9171 12.9689 25.146C12.6979 25.3748 12.3547 25.5002 12 25.5C11.9162 25.5004 11.8325 25.4933 11.75 25.4787C11.5557 25.446 11.3698 25.3753 11.2028 25.2708C11.0358 25.1662 10.8911 25.0297 10.7769 24.8692C10.6627 24.7086 10.5812 24.5272 10.5371 24.3351C10.493 24.1431 10.4872 23.9443 10.52 23.75L11.1813 19.785C9.85388 19.3748 8.586 18.7923 7.41001 18.0525L5.30251 21.75C5.1036 22.0954 4.77561 22.3477 4.39069 22.4513C4.00577 22.5549 3.59546 22.5014 3.25001 22.3025C2.90457 22.1036 2.65229 21.7756 2.54868 21.3907C2.44506 21.0058 2.4986 20.5954 2.69751 20.25L5.00001 16.2312C4.21962 15.5265 3.49612 14.7612 2.83626 13.9425C2.60331 13.6318 2.49993 13.2429 2.54787 12.8575C2.5958 12.4722 2.7913 12.1204 3.09326 11.8763C3.39522 11.6321 3.78011 11.5146 4.16695 11.5484C4.5538 11.5822 4.91247 11.7647 5.16751 12.0575C7.17251 14.54 10.68 17.5 16 17.5C21.32 17.5 24.8275 14.54 26.8325 12.0575C27.0834 11.751 27.4454 11.5561 27.8394 11.5155C28.2335 11.4749 28.6276 11.5918 28.9357 11.8407C29.2439 12.0896 29.4411 12.4503 29.4843 12.8441C29.5275 13.2379 29.4131 13.6327 29.1663 13.9425C28.5056 14.7613 27.7813 15.5266 27 16.2312L29.3025 20.25Z" fill="#EEEDEE"/>
</svg>
