<svg width="24" height="24" viewBox="0 0 24 24" fill="none" xmlns="http://www.w3.org/2000/svg">
<g id="FlagCheckered">
<path id="Vector" d="M20.5612 3.82033C20.4303 3.76088 20.2851 3.74032 20.1428 3.7611C20.0005 3.78187 19.8672 3.84311 19.7587 3.93752C17.1337 6.20814 14.91 5.10752 12.3328 3.83158C9.66281 2.50877 6.63562 1.01158 3.25875 3.93752C3.17806 4.00745 3.11324 4.09381 3.06862 4.19082C3.024 4.28782 3.0006 4.39324 3 4.50002V20.25C3 20.4489 3.07902 20.6397 3.21967 20.7803C3.36032 20.921 3.55109 21 3.75 21C3.94891 21 4.13968 20.921 4.28033 20.7803C4.42098 20.6397 4.5 20.4489 4.5 20.25V16.1035C7.01156 14.1197 9.17531 15.1894 11.6672 16.4231C13.2047 17.1835 14.8603 18.0028 16.6359 18.0028C17.9419 18.0028 19.3116 17.5575 20.7441 16.3153C20.8247 16.2454 20.8896 16.159 20.9342 16.062C20.9788 15.965 21.0022 15.8596 21.0028 15.7528V4.50002C21.0021 4.35633 20.96 4.21588 20.8818 4.09539C20.8035 3.97489 20.6922 3.87942 20.5612 3.82033ZM4.5 14.2913V9.92627C6.07969 8.86877 7.56 8.8397 9 9.23814V13.7138C7.58156 13.3566 6.08156 13.3791 4.5 14.2913ZM19.5 15.3985C17.9184 16.6472 16.4747 16.6847 15 16.2338V11.7647C12.9731 11.2022 11.0269 9.79595 9 9.23814V4.01908C9.86719 4.28439 10.7447 4.71752 11.6672 5.17408C12.7228 5.69627 13.8337 6.24564 15 6.53908V11.7647C16.4391 12.1631 17.9194 12.1341 19.5 11.0756V15.3985Z" fill="white" fill-opacity="0.3"/>
</g>
</svg>
