<svg width="88" height="86" viewBox="0 0 88 86" fill="none" xmlns="http://www.w3.org/2000/svg">
<g filter="url(#filter0_d_5408_7825)">
<path d="M59.75 39.2502C59.7502 39.5099 59.6694 39.7632 59.5191 39.9748C59.3687 40.1865 59.1562 40.3461 58.9109 40.4315L31 50.1393V56.7502C31 57.0818 30.8683 57.3997 30.6339 57.6341C30.3995 57.8685 30.0815 58.0002 29.75 58.0002C29.4185 58.0002 29.1005 57.8685 28.8661 57.6341C28.6317 57.3997 28.5 57.0818 28.5 56.7502V29.2502C28.4999 29.0507 28.5475 28.8541 28.639 28.6767C28.7304 28.4994 28.8629 28.3465 29.0255 28.2309C29.1881 28.1152 29.3761 28.0402 29.5736 28.012C29.7711 27.9839 29.9725 28.0034 30.1609 28.069L58.9109 38.069C59.1562 38.1544 59.3687 38.314 59.5191 38.5256C59.6694 38.7373 59.7502 38.9906 59.75 39.2502Z" fill="#EEEDEE"/>
</g>
<defs>
<filter id="filter0_d_5408_7825" x="-7" y="-5" width="96" height="96" filterUnits="userSpaceOnUse" color-interpolation-filters="sRGB">
<feFlood flood-opacity="0" result="BackgroundImageFix"/>
<feColorMatrix in="SourceAlpha" type="matrix" values="0 0 0 0 0 0 0 0 0 0 0 0 0 0 0 0 0 0 127 0" result="hardAlpha"/>
<feOffset/>
<feGaussianBlur stdDeviation="14"/>
<feComposite in2="hardAlpha" operator="out"/>
<feColorMatrix type="matrix" values="0 0 0 0 0.694118 0 0 0 0 0.188235 0 0 0 0 1 0 0 0 1 0"/>
<feBlend mode="normal" in2="BackgroundImageFix" result="effect1_dropShadow_5408_7825"/>
<feBlend mode="normal" in="SourceGraphic" in2="effect1_dropShadow_5408_7825" result="shape"/>
</filter>
</defs>
</svg>
