<svg width="10" height="10" viewBox="0 0 10 10" fill="none" xmlns="http://www.w3.org/2000/svg">
<path d="M9.0622 4.99586C9.06249 5.10722 9.03302 5.21663 8.97684 5.31277C8.92067 5.40892 8.83982 5.48831 8.74267 5.54274L2.18369 9.29313C2.08945 9.34656 1.98304 9.37481 1.8747 9.37516C1.7748 9.37495 1.6764 9.3508 1.58775 9.30473C1.49911 9.25866 1.4228 9.19201 1.36522 9.11037C1.30764 9.02873 1.27047 8.93447 1.25683 8.8355C1.24319 8.73654 1.25347 8.63574 1.28681 8.54156L2.35517 5.41852C2.3657 5.38762 2.38564 5.36079 2.41219 5.34181C2.43875 5.32282 2.47058 5.31263 2.50322 5.31266H5.3122C5.35504 5.31275 5.39745 5.30404 5.43678 5.28705C5.47611 5.27007 5.51152 5.24518 5.54083 5.21393C5.57014 5.18269 5.5927 5.14575 5.60713 5.10541C5.62156 5.06507 5.62754 5.0222 5.6247 4.97945C5.61762 4.8991 5.58044 4.82438 5.52061 4.77027C5.46077 4.71616 5.38271 4.68666 5.30205 4.68766H2.50595C2.47336 4.68772 2.44156 4.67758 2.41502 4.65867C2.38847 4.63975 2.3685 4.61301 2.35791 4.58219L1.28603 1.45719C1.24429 1.33744 1.23996 1.20783 1.27362 1.08557C1.30728 0.963305 1.37734 0.854173 1.47449 0.772665C1.57164 0.691157 1.69128 0.641129 1.81753 0.629225C1.94379 0.617321 2.07067 0.644104 2.18134 0.706017L8.74384 4.45172C8.84037 4.50607 8.92072 4.5851 8.97666 4.68071C9.0326 4.77632 9.06212 4.88509 9.0622 4.99586Z" fill="#EEEDEE" fill-opacity="0.87"/>
</svg>
