<svg width="10" height="10" viewBox="0 0 10 10" fill="none" xmlns="http://www.w3.org/2000/svg">
<path d="M8.58131 4.58056C8.56373 4.50549 8.5279 4.43591 8.477 4.37799C8.4261 4.32007 8.3617 4.27561 8.28951 4.24853L6.16295 3.45126L6.70982 0.716889C6.72981 0.616884 6.71665 0.513086 6.67231 0.421241C6.62798 0.329396 6.55491 0.254514 6.46417 0.207954C6.37344 0.161393 6.26999 0.145694 6.16953 0.163239C6.06906 0.180783 5.97706 0.230613 5.90748 0.305171L1.53248 4.99267C1.47984 5.04901 1.44192 5.11746 1.42206 5.19197C1.4022 5.26647 1.40103 5.34472 1.41865 5.41978C1.43627 5.49484 1.47213 5.5644 1.52305 5.62229C1.57398 5.68018 1.6384 5.72461 1.7106 5.75166L3.83717 6.54892L3.29029 9.2833C3.2703 9.3833 3.28347 9.4871 3.3278 9.57894C3.37213 9.67079 3.4452 9.74567 3.53594 9.79223C3.62668 9.83879 3.73012 9.85449 3.83058 9.83695C3.93105 9.8194 4.02305 9.76957 4.09263 9.69501L8.46764 5.00751C8.52022 4.95118 8.5581 4.88274 8.57793 4.80827C8.59776 4.7338 8.59892 4.65559 8.58131 4.58056ZM4.53326 7.84892L4.83482 6.34189C4.85663 6.23275 4.8389 6.11941 4.7848 6.02215C4.73069 5.92489 4.64374 5.85005 4.53951 5.81103L2.69537 5.12001L5.46607 2.15126L5.16451 3.6583C5.1427 3.76743 5.16043 3.88077 5.21454 3.97804C5.26864 4.0753 5.35559 4.15013 5.45982 4.18915L7.30474 4.88017L4.53326 7.84892Z" fill="#EEEDEE" fill-opacity="0.52"/>
</svg>
