<svg width="8" height="8" viewBox="0 0 8 8" fill="none" xmlns="http://www.w3.org/2000/svg">
<path d="M6.7653 5.26557C6.73046 5.30053 6.68906 5.32827 6.64348 5.34719C6.5979 5.36612 6.54903 5.37586 6.49967 5.37586C6.45032 5.37586 6.40145 5.36612 6.35587 5.34719C6.31029 5.32827 6.26889 5.30053 6.23405 5.26557L3.99999 3.03151L1.7653 5.26557C1.69485 5.33602 1.5993 5.37559 1.49967 5.37559C1.40005 5.37559 1.3045 5.33602 1.23405 5.26557C1.1636 5.19512 1.12402 5.09957 1.12402 4.99994C1.12402 4.90032 1.1636 4.80477 1.23405 4.73432L3.73405 2.23432C3.76889 2.19936 3.81029 2.17162 3.85587 2.15269C3.90145 2.13377 3.95032 2.12402 3.99967 2.12402C4.04903 2.12402 4.0979 2.13377 4.14348 2.15269C4.18906 2.17162 4.23046 2.19936 4.2653 2.23432L6.7653 4.73432C6.80026 4.76916 6.828 4.81056 6.84692 4.85614C6.86585 4.90172 6.8756 4.95059 6.8756 4.99994C6.8756 5.0493 6.86585 5.09817 6.84692 5.14375C6.828 5.18933 6.80026 5.23073 6.7653 5.26557Z" fill="#EEEDEE" fill-opacity="0.68"/>
</svg>
