<svg width="10" height="10" viewBox="0 0 10 10" fill="none" xmlns="http://www.w3.org/2000/svg">
<path d="M8.29956 5.33172L5.09409 8.53485C4.65441 8.97437 4.05814 9.22123 3.43645 9.22112C2.81476 9.22101 2.21857 8.97394 1.77905 8.53426C1.33952 8.09458 1.09266 7.49831 1.09277 6.87662C1.09288 6.25493 1.33995 5.65875 1.77963 5.21922L5.61401 1.39539C5.90715 1.10241 6.30466 0.937878 6.71911 0.937988C6.92432 0.938043 7.12752 0.978517 7.31709 1.0571C7.50666 1.13568 7.6789 1.25083 7.82397 1.39598C7.96904 1.54113 8.0841 1.71342 8.16258 1.90304C8.24106 2.09265 8.28143 2.29587 8.28137 2.50108C8.28132 2.70629 8.24085 2.90949 8.16226 3.09906C8.08368 3.28863 7.96853 3.46087 7.82338 3.60594L7.81674 3.61219L4.07456 7.21453C4.03018 7.25721 3.97784 7.29074 3.92051 7.31319C3.86318 7.33564 3.802 7.34657 3.74044 7.34538C3.67889 7.34418 3.61817 7.33087 3.56176 7.30621C3.50535 7.28155 3.45434 7.24602 3.41166 7.20164C3.36899 7.15727 3.33546 7.10493 3.31301 7.0476C3.29056 6.99027 3.27962 6.92908 3.28082 6.86753C3.28202 6.80597 3.29533 6.74526 3.31999 6.68884C3.34465 6.63243 3.38018 6.58143 3.42456 6.53875L7.16323 2.94032C7.28009 2.82273 7.34545 2.66354 7.34494 2.49776C7.34443 2.33198 7.27808 2.17319 7.16049 2.05633C7.10227 1.99847 7.03322 1.95264 6.95729 1.92146C6.88135 1.89028 6.80002 1.87436 6.71794 1.87462C6.55216 1.87513 6.39337 1.94148 6.27651 2.05907L2.44213 5.88172C2.17842 6.14554 2.03031 6.50331 2.03038 6.87633C2.03042 7.06104 2.06683 7.24392 2.13755 7.41455C2.20826 7.58518 2.3119 7.74021 2.44252 7.87078C2.57315 8.00136 2.72822 8.10493 2.89888 8.17558C3.06953 8.24623 3.25243 8.28257 3.43714 8.28254C3.81016 8.28246 4.16787 8.13421 4.43159 7.87039L7.63706 4.66727C7.68066 4.62367 7.73242 4.58908 7.78939 4.56548C7.84636 4.54188 7.90742 4.52974 7.96909 4.52974C8.03075 4.52974 8.09181 4.54188 8.14878 4.56548C8.20575 4.58908 8.25752 4.62367 8.30112 4.66727C8.34472 4.71087 8.37931 4.76264 8.40291 4.81961C8.4265 4.87658 8.43865 4.93764 8.43865 4.9993C8.43865 5.06096 8.4265 5.12202 8.40291 5.17899C8.37931 5.23596 8.34472 5.28773 8.30112 5.33133L8.29956 5.33172Z" fill="#EEEDEE" fill-opacity="0.52"/>
</svg>
