<svg width="10" height="10" viewBox="0 0 10 10" fill="none" xmlns="http://www.w3.org/2000/svg">
<path d="M6.42133 7.07432C6.70969 6.79198 6.9074 6.43014 6.98926 6.03497C7.07112 5.63979 7.03341 5.22918 6.88094 4.85553C6.72847 4.48187 6.46815 4.1621 6.13318 3.93701C5.79822 3.71192 5.4038 3.5917 5.00024 3.5917C4.59667 3.5917 4.20225 3.71192 3.86729 3.93701C3.53233 4.1621 3.27201 4.48187 3.11954 4.85553C2.96707 5.22918 2.92935 5.63979 3.01121 6.03497C3.09307 6.43014 3.29079 6.79198 3.57914 7.07432C3.09092 7.33385 2.68501 7.72474 2.40727 8.20284C2.34779 8.31032 2.33288 8.43685 2.36574 8.55521C2.3986 8.67357 2.47661 8.77431 2.58299 8.83574C2.68937 8.89717 2.8156 8.91438 2.93455 8.88369C3.05349 8.85299 3.15563 8.77683 3.21899 8.67159C3.40216 8.36211 3.66278 8.10568 3.97518 7.92756C4.28759 7.74944 4.64101 7.65577 5.00063 7.65577C5.36025 7.65577 5.71366 7.74944 6.02607 7.92756C6.33848 8.10568 6.5991 8.36211 6.78227 8.67159C6.81242 8.72608 6.85313 8.77401 6.90202 8.81259C6.95091 8.85117 7.00699 8.87962 7.067 8.89628C7.12701 8.91294 7.18973 8.91748 7.25151 8.90962C7.31329 8.90177 7.37289 8.88169 7.42682 8.85054C7.48075 8.8194 7.52793 8.77782 7.56561 8.72824C7.60329 8.67866 7.63072 8.62206 7.64628 8.56176C7.66184 8.50146 7.66523 8.43866 7.65626 8.37704C7.64728 8.31541 7.62611 8.25619 7.59399 8.20284C7.31604 7.72463 6.90984 7.33373 6.42133 7.07432ZM3.90649 5.6251C3.90649 5.40878 3.97063 5.19731 4.09082 5.01745C4.211 4.83758 4.38182 4.69739 4.58168 4.61461C4.78153 4.53183 5.00145 4.51017 5.21362 4.55237C5.42578 4.59457 5.62067 4.69874 5.77364 4.85171C5.9266 5.00467 6.03077 5.19956 6.07297 5.41172C6.11517 5.62389 6.09351 5.84381 6.01073 6.04366C5.92795 6.24352 5.78776 6.41434 5.60789 6.53452C5.42803 6.65471 5.21656 6.71885 5.00024 6.71885C4.71016 6.71885 4.43196 6.60362 4.22684 6.3985C4.02172 6.19338 3.90649 5.91518 3.90649 5.6251ZM9.65688 5.99971C9.60764 6.03673 9.5516 6.06368 9.49194 6.07902C9.43229 6.09436 9.37019 6.09779 9.30921 6.08912C9.24823 6.08045 9.18955 6.05985 9.13653 6.02849C9.08352 5.99713 9.0372 5.95562 9.00024 5.90635C8.67485 5.47315 8.22485 5.14112 7.85453 5.06104C7.75607 5.03974 7.66708 4.98729 7.60076 4.91145C7.53445 4.83562 7.49433 4.74043 7.48635 4.64C7.47837 4.53958 7.50296 4.43925 7.55647 4.3539C7.60998 4.26854 7.68957 4.20269 7.78344 4.16612C7.90031 4.1205 8.00448 4.0474 8.08712 3.95301C8.16977 3.85862 8.22847 3.74572 8.25826 3.62385C8.28805 3.50198 8.28805 3.37472 8.25826 3.25285C8.22847 3.13098 8.16977 3.01808 8.08712 2.92369C8.00447 2.8293 7.90031 2.7562 7.78344 2.71058C7.66657 2.66496 7.54043 2.64816 7.41569 2.66159C7.29096 2.67503 7.17129 2.71831 7.06681 2.78777C6.96234 2.85723 6.87613 2.95083 6.81547 3.06065C6.78671 3.1163 6.74708 3.16563 6.69893 3.20571C6.65078 3.24578 6.59508 3.2758 6.53513 3.29399C6.47518 3.31218 6.4122 3.31816 6.3499 3.31159C6.28759 3.30502 6.22724 3.28603 6.1724 3.25574C6.11756 3.22545 6.06936 3.18447 6.03062 3.13523C5.99189 3.08599 5.96342 3.02949 5.9469 2.96906C5.93038 2.90863 5.92613 2.8455 5.93442 2.78341C5.94271 2.72131 5.96336 2.6615 5.99516 2.60752C6.11115 2.40243 6.26807 2.22337 6.45618 2.08147C6.64429 1.93958 6.85957 1.83787 7.08864 1.78268C7.31771 1.72749 7.55568 1.71998 7.78777 1.76064C8.01986 1.80129 8.24112 1.88923 8.43779 2.019C8.63446 2.14876 8.80236 2.31758 8.93104 2.51496C9.05972 2.71235 9.14644 2.93408 9.18581 3.16639C9.22519 3.39871 9.21638 3.63663 9.15993 3.8654C9.10347 4.09416 9.00059 4.30887 8.85766 4.4962C9.2016 4.72531 9.50354 5.01191 9.75024 5.34346C9.82487 5.44287 9.85696 5.56785 9.83946 5.69092C9.82195 5.81399 9.75627 5.92506 9.65688 5.99971ZM2.14594 5.06221C1.77563 5.14229 1.32563 5.47432 1.00024 5.90792C0.925386 6.00732 0.814112 6.07292 0.690895 6.09028C0.567678 6.10764 0.44261 6.07535 0.343206 6.00049C0.243801 5.92564 0.178203 5.81437 0.160841 5.69115C0.143479 5.56793 0.175777 5.44287 0.250628 5.34346C0.497439 5.01201 0.799356 4.72542 1.14321 4.4962C1.00028 4.30887 0.897391 4.09416 0.840939 3.8654C0.784488 3.63663 0.775676 3.39871 0.815051 3.16639C0.854426 2.93408 0.941148 2.71235 1.06983 2.51496C1.19851 2.31758 1.3664 2.14876 1.56307 2.019C1.75975 1.88923 1.981 1.80129 2.21309 1.76064C2.44519 1.71998 2.68316 1.72749 2.91223 1.78268C3.1413 1.83787 3.35657 1.93958 3.54468 2.08147C3.73279 2.22337 3.88971 2.40243 4.00571 2.60752C4.0375 2.6615 4.05815 2.72131 4.06644 2.78341C4.07473 2.8455 4.07049 2.90863 4.05397 2.96906C4.03744 3.02949 4.00897 3.08599 3.97024 3.13523C3.93151 3.18447 3.8833 3.22545 3.82846 3.25574C3.77363 3.28603 3.71327 3.30502 3.65097 3.31159C3.58867 3.31816 3.52568 3.31218 3.46573 3.29399C3.40578 3.2758 3.35009 3.24578 3.30194 3.20571C3.25379 3.16563 3.21416 3.1163 3.18539 3.06065C3.12474 2.95083 3.03853 2.85723 2.93405 2.78777C2.82958 2.71831 2.70991 2.67503 2.58517 2.66159C2.46043 2.64816 2.3343 2.66496 2.21743 2.71058C2.10055 2.7562 1.99639 2.8293 1.91374 2.92369C1.83109 3.01808 1.77239 3.13098 1.7426 3.25285C1.71281 3.37472 1.71281 3.50198 1.7426 3.62385C1.77239 3.74572 1.83109 3.85862 1.91374 3.95301C1.99639 4.0474 2.10055 4.1205 2.21742 4.16612C2.31129 4.20269 2.39088 4.26854 2.44439 4.3539C2.49791 4.43925 2.5225 4.53958 2.51452 4.64C2.50654 4.74043 2.46642 4.83562 2.4001 4.91145C2.33378 4.98729 2.2448 5.03974 2.14633 5.06104L2.14594 5.06221Z" fill="#EEEDEE" fill-opacity="0.52"/>
</svg>
