<svg width="8" height="8" viewBox="0 0 8 8" fill="none" xmlns="http://www.w3.org/2000/svg">
<path d="M6.5153 5.9845C6.58575 6.05495 6.62532 6.15049 6.62532 6.25012C6.62532 6.34975 6.58575 6.4453 6.5153 6.51575C6.44485 6.5862 6.3493 6.62577 6.24967 6.62577C6.15005 6.62577 6.0545 6.5862 5.98405 6.51575L3.99999 4.53106L2.0153 6.51512C1.94485 6.58557 1.8493 6.62515 1.74967 6.62515C1.65005 6.62515 1.5545 6.58557 1.48405 6.51512C1.4136 6.44468 1.37402 6.34913 1.37402 6.2495C1.37402 6.14987 1.4136 6.05432 1.48405 5.98387L3.46874 3.99981L1.48467 2.01512C1.41423 1.94467 1.37465 1.84913 1.37465 1.7495C1.37465 1.64987 1.41423 1.55432 1.48467 1.48387C1.55512 1.41342 1.65067 1.37385 1.7503 1.37385C1.84993 1.37385 1.94548 1.41342 2.01592 1.48387L3.99999 3.46856L5.98467 1.48356C6.05512 1.41311 6.15067 1.37354 6.2503 1.37354C6.34993 1.37354 6.44548 1.41311 6.51592 1.48356C6.58637 1.55401 6.62595 1.64956 6.62595 1.74919C6.62595 1.84881 6.58637 1.94436 6.51592 2.01481L4.53124 3.99981L6.5153 5.9845Z" fill="#EEEDEE" fill-opacity="0.68"/>
</svg>
