<svg width="8" height="8" viewBox="0 0 8 8" fill="none" xmlns="http://www.w3.org/2000/svg">
<path d="M4 2.375C3.67861 2.375 3.36443 2.4703 3.0972 2.64886C2.82997 2.82742 2.62169 3.08121 2.4987 3.37814C2.37571 3.67507 2.34353 4.0018 2.40623 4.31702C2.46893 4.63224 2.62369 4.92179 2.85095 5.14905C3.07821 5.37631 3.36776 5.53107 3.68298 5.59377C3.9982 5.65647 4.32493 5.62429 4.62186 5.5013C4.91879 5.37831 5.17258 5.17003 5.35114 4.9028C5.5297 4.63557 5.625 4.32139 5.625 4C5.62451 3.56917 5.45314 3.15614 5.1485 2.8515C4.84386 2.54686 4.43083 2.37549 4 2.375ZM4 4.875C3.82694 4.875 3.65777 4.82368 3.51388 4.72753C3.36999 4.63139 3.25783 4.49473 3.19161 4.33485C3.12538 4.17496 3.10805 3.99903 3.14182 3.82929C3.17558 3.65956 3.25891 3.50365 3.38128 3.38128C3.50365 3.25891 3.65956 3.17557 3.8293 3.14181C3.99903 3.10805 4.17496 3.12538 4.33485 3.1916C4.49474 3.25783 4.63139 3.36998 4.72754 3.51387C4.82368 3.65777 4.875 3.82694 4.875 4C4.875 4.23206 4.78282 4.45462 4.61872 4.61872C4.45463 4.78281 4.23207 4.875 4 4.875ZM7.55813 3.32593C7.54755 3.27311 7.52572 3.22319 7.49412 3.17957C7.46252 3.13594 7.42189 3.09964 7.375 3.07312L6.50657 2.57781L6.50313 1.59937C6.50294 1.54509 6.49096 1.49149 6.46803 1.44228C6.4451 1.39307 6.41176 1.34943 6.37032 1.31437C6.02035 1.01827 5.61739 0.791237 5.18282 0.64531C5.13324 0.628588 5.08072 0.622424 5.02862 0.627214C4.97653 0.632004 4.92601 0.647642 4.88031 0.673122L4 1.16468L3.11969 0.67281C3.07394 0.647189 3.02332 0.631448 2.97111 0.626604C2.9189 0.621759 2.86625 0.627919 2.81656 0.644685C2.38186 0.791219 1.97891 1.01889 1.62906 1.31562C1.58775 1.35064 1.55452 1.3942 1.53165 1.44329C1.50877 1.49238 1.49681 1.54584 1.49656 1.6L1.49219 2.57937L0.625002 3.07343C0.578099 3.10005 0.537488 3.13647 0.50594 3.1802C0.474391 3.22394 0.452646 3.27397 0.44219 3.32687C0.353905 3.7716 0.353905 4.22934 0.44219 4.67406C0.452729 4.72685 0.474512 4.77676 0.506057 4.82038C0.537602 4.864 0.57817 4.90032 0.625002 4.92687L1.49438 5.42218L1.49781 6.40062C1.498 6.45491 1.50998 6.50851 1.53291 6.55771C1.55584 6.60692 1.58918 6.65056 1.63063 6.68562C1.98059 6.98172 2.38355 7.20876 2.81813 7.35468C2.8677 7.37141 2.92022 7.37757 2.97232 7.37278C3.02442 7.36799 3.07494 7.35235 3.12063 7.32687L4 6.83531L4.87938 7.32718C4.92513 7.35281 4.97574 7.36855 5.02796 7.37339C5.08017 7.37824 5.13282 7.37208 5.1825 7.35531C5.6172 7.20878 6.02016 6.9811 6.37 6.68437C6.41131 6.64935 6.44455 6.6058 6.46742 6.55671C6.49029 6.50762 6.50226 6.45415 6.5025 6.4L6.50688 5.42062L7.37594 4.92656C7.42284 4.89994 7.46345 4.86353 7.495 4.81979C7.52655 4.77605 7.5483 4.72603 7.55875 4.67312C7.64683 4.22836 7.64662 3.77062 7.55813 3.32593ZM6.85094 4.36281L6.01094 4.84031C5.95126 4.87414 5.90206 4.92377 5.86875 4.98375C5.85188 5.015 5.83406 5.04406 5.81563 5.07375C5.77859 5.13288 5.75879 5.20117 5.75844 5.27093L5.75407 6.21875C5.5519 6.37088 5.3305 6.49561 5.09563 6.58968L4.24719 6.115C4.19124 6.08366 4.12819 6.0672 4.06406 6.06718H4.055C4.01938 6.06718 3.98313 6.06718 3.9475 6.06718C3.88049 6.0656 3.81426 6.08189 3.75563 6.11437L2.90625 6.58812C2.67099 6.49451 2.44908 6.37032 2.24625 6.21875L2.24281 5.27375C2.24253 5.20387 2.22272 5.13547 2.18563 5.07625C2.1675 5.04687 2.14938 5.01656 2.1325 4.98625C2.09917 4.92664 2.05009 4.87734 1.99063 4.84375L1.15 4.36343C1.11735 4.12245 1.11735 3.87817 1.15 3.63718L1.99 3.15968C2.04958 3.12586 2.09876 3.07636 2.13219 3.01656C2.14906 2.98531 2.16688 2.95593 2.18531 2.92625C2.22235 2.86712 2.24215 2.79883 2.2425 2.72906L2.24594 1.78125C2.44818 1.62955 2.66957 1.50525 2.90438 1.41156L3.75281 1.88625C3.81142 1.91913 3.87783 1.93554 3.945 1.93375C3.98063 1.93375 4.01688 1.93375 4.0525 1.93375C4.11952 1.93533 4.18574 1.91905 4.24438 1.88656L5.09375 1.41187C5.32902 1.50548 5.55092 1.62968 5.75375 1.78125L5.75719 2.72625C5.75748 2.79612 5.77729 2.86453 5.81438 2.92375C5.8325 2.95312 5.85063 2.98343 5.8675 3.01375C5.90084 3.07335 5.94992 3.12265 6.00938 3.15625L6.85 3.63531C6.88308 3.87666 6.8834 4.12137 6.85094 4.36281Z" fill="#EEEDEE" fill-opacity="0.68"/>
</svg>
