<svg width="10" height="10" viewBox="0 0 10 10" fill="none" xmlns="http://www.w3.org/2000/svg">
<path d="M6.96836 6.17188C6.53867 6.91641 5.82031 7.34375 5 7.34375C4.17969 7.34375 3.4625 6.9168 3.03164 6.17188C2.97216 6.0644 2.95725 5.93786 2.99011 5.8195C3.02298 5.70114 3.10099 5.60041 3.20736 5.53898C3.31374 5.47755 3.43998 5.46033 3.55892 5.49103C3.67786 5.52173 3.78 5.59789 3.84336 5.70312C3.99531 5.96602 4.34766 6.40625 5 6.40625C5.65235 6.40625 6.00469 5.96562 6.15664 5.70312C6.1868 5.64864 6.22751 5.6007 6.2764 5.56212C6.32528 5.52354 6.38137 5.49509 6.44137 5.47843C6.50138 5.46177 6.56411 5.45724 6.62589 5.46509C6.68767 5.47294 6.74726 5.49303 6.80119 5.52417C6.85512 5.55531 6.90231 5.59689 6.93999 5.64647C6.97767 5.69606 7.00509 5.75265 7.02065 5.81295C7.03622 5.87325 7.03961 5.93605 7.03063 5.99768C7.02165 6.0593 7.00048 6.11852 6.96836 6.17188ZM9.21875 5C9.21875 5.83439 8.97133 6.65004 8.50776 7.34381C8.0442 8.03758 7.38532 8.57831 6.61445 8.89762C5.84357 9.21692 4.99532 9.30047 4.17696 9.13769C3.35861 8.97491 2.6069 8.57311 2.0169 7.98311C1.42689 7.3931 1.0251 6.64139 0.862314 5.82304C0.699533 5.00468 0.783078 4.15643 1.10239 3.38555C1.42169 2.61468 1.96242 1.9558 2.65619 1.49224C3.34996 1.02868 4.16561 0.78125 5 0.78125C6.1185 0.782491 7.19084 1.22736 7.98174 2.01826C8.77264 2.80916 9.21751 3.8815 9.21875 5ZM8.28125 5C8.28125 4.35103 8.08881 3.71663 7.72826 3.17704C7.36771 2.63744 6.85525 2.21687 6.25568 1.96852C5.65611 1.72017 4.99636 1.65519 4.35986 1.7818C3.72336 1.90841 3.1387 2.22091 2.67981 2.67981C2.22092 3.1387 1.90841 3.72336 1.7818 4.35986C1.65519 4.99636 1.72017 5.65611 1.96852 6.25568C2.21687 6.85525 2.63744 7.36771 3.17704 7.72826C3.71664 8.08881 4.35103 8.28125 5 8.28125C5.86996 8.28032 6.70402 7.93432 7.31917 7.31917C7.93432 6.70401 8.28032 5.86996 8.28125 5ZM3.59375 4.84375C3.71737 4.84375 3.8382 4.80709 3.94098 4.73842C4.04376 4.66974 4.12387 4.57213 4.17118 4.45793C4.21848 4.34372 4.23086 4.21806 4.20674 4.09682C4.18263 3.97558 4.1231 3.86422 4.03569 3.77681C3.94829 3.6894 3.83692 3.62987 3.71568 3.60576C3.59444 3.58164 3.46878 3.59402 3.35457 3.64133C3.24037 3.68863 3.14276 3.76874 3.07408 3.87152C3.00541 3.9743 2.96875 4.09514 2.96875 4.21875C2.96875 4.38451 3.0346 4.54348 3.15181 4.66069C3.26902 4.7779 3.42799 4.84375 3.59375 4.84375ZM6.40625 3.59375C6.28264 3.59375 6.1618 3.63041 6.05902 3.69908C5.95624 3.76776 5.87613 3.86537 5.82883 3.97957C5.78152 4.09378 5.76915 4.21944 5.79326 4.34068C5.81738 4.46192 5.8769 4.57328 5.96431 4.66069C6.05172 4.7481 6.16308 4.80763 6.28432 4.83174C6.40556 4.85586 6.53123 4.84348 6.64543 4.79618C6.75963 4.74887 6.85724 4.66876 6.92592 4.56598C6.9946 4.4632 7.03125 4.34236 7.03125 4.21875C7.03125 4.05299 6.9654 3.89402 6.84819 3.77681C6.73098 3.6596 6.57201 3.59375 6.40625 3.59375Z" fill="#EEEDEE" fill-opacity="0.52"/>
</svg>
