<svg width="46" height="14" viewBox="0 0 46 14" fill="none" xmlns="http://www.w3.org/2000/svg">
<g clip-path="url(#clip0_5408_9068)">
<g clip-path="url(#clip1_5408_9068)">
<path d="M6.49822 6.17492V7.87616L6.19581 8.00036L1.48315 3.27627V8.25877L3.85871 10.6196H1.74509L0 8.88127V0.12445L0.30191 0L6.49822 6.17492ZM8.68499 14L8.9869 13.8756V5.11873L7.24181 3.38043H5.14076L7.50375 5.74123V10.7237L2.79109 5.99964L2.48868 6.12384V7.82508L8.68499 14Z" fill="#B130FF"/>
</g>
<path d="M44.457 9.29214V4.9458H45.7794V9.29214H44.457Z" fill="#B130FF"/>
<path d="M38.615 8.14307L38.6001 7.90127H39.7703L39.7912 8.02068C39.825 8.21372 39.9534 8.34904 40.1762 8.42666C40.3991 8.50427 40.7663 8.54308 41.2778 8.54308C41.7713 8.54308 42.1186 8.50327 42.3196 8.42367C42.5226 8.34208 42.624 8.23063 42.624 8.08934C42.624 7.96993 42.5186 7.88038 42.3076 7.82068C42.0967 7.76097 41.624 7.68933 40.8897 7.60575C40.0658 7.50226 39.4946 7.34007 39.1762 7.11917C38.8578 6.89827 38.6986 6.60075 38.6986 6.22662C38.6986 5.79278 38.9006 5.45646 39.3046 5.21765C39.7086 4.97685 40.3106 4.85645 41.1106 4.85645C41.9345 4.85645 42.5564 4.96192 42.9763 5.17287C43.3962 5.38183 43.6241 5.69925 43.6599 6.12512L43.6718 6.28035H42.5166L42.4987 6.20572C42.4748 6.0704 42.3703 5.95796 42.1852 5.8684C42.0002 5.77686 41.6489 5.73109 41.1315 5.73109C40.6937 5.73109 40.3862 5.76691 40.2091 5.83855C40.034 5.91019 39.9464 6.00472 39.9464 6.12214C39.9464 6.21965 40.0439 6.30125 40.2389 6.36692C40.4359 6.43259 40.9146 6.50722 41.6748 6.5908C42.4788 6.6923 43.0449 6.83061 43.3733 7.00574C43.7017 7.18086 43.8659 7.48336 43.8659 7.91321C43.8659 8.38287 43.6499 8.74507 43.2181 8.9998C42.7882 9.25453 42.1504 9.3819 41.3046 9.3819C40.4568 9.3819 39.8031 9.2804 39.3434 9.07741C38.8857 8.87442 38.6429 8.56298 38.615 8.14307Z" fill="#B130FF"/>
<path d="M33.7524 9.29214V4.9458H38.1436V5.93985H34.9704V6.68314H37.86V7.53092H34.9704V8.33989H38.1973V9.29214H33.7524Z" fill="#B130FF"/>
<path d="M27.6567 9.29214V4.9458H28.9612V6.50105H31.4329V4.9458H32.7374V9.29214H31.4329V7.59062H28.9612V9.29214H27.6567Z" fill="#B130FF"/>
<path d="M18.5728 7.06544V7.1132C18.5728 6.36891 18.8762 5.80671 19.4832 5.4266C20.0902 5.0465 20.8414 4.85645 21.737 4.85645C22.6305 4.85645 23.3828 5.0465 23.9937 5.4266C24.6047 5.80671 24.9102 6.36891 24.9102 7.1132V7.06544C24.9102 7.83958 24.6047 8.41969 23.9937 8.80577C23.3828 9.18985 22.6305 9.3819 21.737 9.3819C20.8434 9.3819 20.0922 9.18985 19.4832 8.80577C18.8762 8.41969 18.5728 7.83958 18.5728 7.06544ZM19.937 7.08335C19.937 7.555 20.1021 7.91023 20.4325 8.14904C20.7648 8.38586 21.2017 8.50725 21.743 8.51322C22.2803 8.52119 22.7151 8.40278 23.0475 8.15799C23.3798 7.91321 23.546 7.55699 23.546 7.08932V7.1132C23.546 6.66742 23.3798 6.33209 23.0475 6.10721C22.7171 5.88034 22.2823 5.76293 21.743 5.75497C21.1977 5.749 20.7599 5.86243 20.4295 6.09527C20.1011 6.32811 19.937 6.66643 19.937 7.11022V7.08335Z" fill="#B130FF"/>
<path d="M13.0415 9.29214V4.9458H14.3042L16.7043 7.58167C16.7341 7.61152 16.758 7.6344 16.7759 7.65032C16.7958 7.66624 16.8127 7.68217 16.8266 7.69809H16.8416C16.8376 7.6543 16.8346 7.61948 16.8326 7.59361C16.8326 7.56774 16.8326 7.53291 16.8326 7.48913V4.9458H17.9311V9.29214H16.7072L14.2833 6.62046C14.2515 6.58662 14.2246 6.56075 14.2027 6.54284C14.1828 6.52294 14.1639 6.50105 14.146 6.47717H14.1341C14.1361 6.49906 14.137 6.52095 14.137 6.54284C14.139 6.56274 14.14 6.58065 14.14 6.59658L14.146 9.29214H13.0415Z" fill="#B130FF"/>
</g>
<defs>
<clipPath id="clip0_5408_9068">
<rect width="45.7795" height="14" fill="white"/>
</clipPath>
<clipPath id="clip1_5408_9068">
<rect width="8.9869" height="14" fill="white"/>
</clipPath>
</defs>
</svg>
