<svg width="28" height="28" viewBox="0 0 28 28" fill="none" xmlns="http://www.w3.org/2000/svg">
<g id="ri:google-fill">
<path id="Vector" d="M3.57532 8.76167C4.546 6.82879 6.03509 5.20393 7.87616 4.06872C9.71722 2.9335 11.8377 2.33266 14.0007 2.33334C17.1448 2.33334 19.7862 3.4895 21.8057 5.3725L18.4608 8.7185C17.251 7.56234 15.7133 6.97317 14.0007 6.97317C10.9615 6.97317 8.38899 9.0265 7.47315 11.7833C7.23982 12.4833 7.10682 13.23 7.10682 14C7.10682 14.77 7.23982 15.5167 7.47315 16.2167C8.39015 18.9747 10.9615 21.0268 14.0007 21.0268C15.5698 21.0268 16.9057 20.6127 17.951 19.9127C18.557 19.5137 19.0758 18.9959 19.4761 18.3907C19.8763 17.7856 20.1497 17.1055 20.2797 16.3917H14.0007V11.879H24.9883C25.126 12.642 25.2007 13.4377 25.2007 14.2648C25.2007 17.8185 23.929 20.8098 21.7217 22.8398C19.792 24.6225 17.1507 25.6667 14.0007 25.6667C12.4684 25.6673 10.951 25.3659 9.53529 24.7798C8.11954 24.1938 6.83318 23.3344 5.7497 22.2509C4.66623 21.1675 3.8069 19.8811 3.22081 18.4654C2.63472 17.0496 2.33337 15.5323 2.33399 14C2.33399 12.117 2.78432 10.3367 3.57532 8.76167Z" fill="#EEEDEE"/>
</g>
</svg>
