<svg width="86" height="90" viewBox="0 0 86 90" fill="none" xmlns="http://www.w3.org/2000/svg">
<g filter="url(#filter0_d_4877_2455)">
<path d="M43 28.75C34.5891 28.75 28 32.5938 28 37.5V52.5C28 57.4062 34.5891 61.25 43 61.25C51.4109 61.25 58 57.4062 58 52.5V37.5C58 32.5938 51.4109 28.75 43 28.75ZM55.5 45C55.5 46.5031 54.2687 48.0359 52.1234 49.2062C49.7078 50.5234 46.4672 51.25 43 51.25C39.5328 51.25 36.2922 50.5234 33.8766 49.2062C31.7313 48.0359 30.5 46.5031 30.5 45V42.4C33.1656 44.7437 37.7234 46.25 43 46.25C48.2766 46.25 52.8344 44.7375 55.5 42.4V45ZM52.1234 56.7062C49.7078 58.0234 46.4672 58.75 43 58.75C39.5328 58.75 36.2922 58.0234 33.8766 56.7062C31.7313 55.5359 30.5 54.0031 30.5 52.5V49.9C33.1656 52.2437 37.7234 53.75 43 53.75C48.2766 53.75 52.8344 52.2375 55.5 49.9V52.5C55.5 54.0031 54.2687 55.5359 52.1234 56.7062Z" fill="#EEEDEE"/>
</g>
<defs>
<filter id="filter0_d_4877_2455" x="-5" y="-3" width="96" height="96" filterUnits="userSpaceOnUse" color-interpolation-filters="sRGB">
<feFlood flood-opacity="0" result="BackgroundImageFix"/>
<feColorMatrix in="SourceAlpha" type="matrix" values="0 0 0 0 0 0 0 0 0 0 0 0 0 0 0 0 0 0 127 0" result="hardAlpha"/>
<feOffset/>
<feGaussianBlur stdDeviation="14"/>
<feComposite in2="hardAlpha" operator="out"/>
<feColorMatrix type="matrix" values="0 0 0 0 0.694118 0 0 0 0 0.188235 0 0 0 0 1 0 0 0 1 0"/>
<feBlend mode="normal" in2="BackgroundImageFix" result="effect1_dropShadow_4877_2455"/>
<feBlend mode="normal" in="SourceGraphic" in2="effect1_dropShadow_4877_2455" result="shape"/>
</filter>
</defs>
</svg>
