<svg width="52" height="53" viewBox="0 0 52 53" fill="none" xmlns="http://www.w3.org/2000/svg">
<g id="Play">
<path id="Vector" d="M48.75 26.0979C48.7513 26.6497 48.6099 27.1924 48.3394 27.6733C48.0688 28.1541 47.6785 28.5568 47.2063 28.8422L17.94 46.7456C17.4466 47.0477 16.8814 47.2127 16.303 47.2234C15.7245 47.2341 15.1536 47.0902 14.6494 46.8065C14.1499 46.5273 13.7338 46.12 13.444 45.6266C13.1541 45.1333 13.0008 44.5716 13 43.9993V8.19653C13.0008 7.6243 13.1541 7.06261 13.444 6.56924C13.7338 6.07586 14.1499 5.66861 14.6494 5.38934C15.1536 5.10568 15.7245 4.96177 16.303 4.97248C16.8814 4.98319 17.4466 5.14814 17.94 5.45028L47.2063 23.3537C47.6785 23.6391 48.0688 24.0417 48.3394 24.5226C48.6099 25.0035 48.7513 25.5462 48.75 26.0979Z" fill="#EEEDEE"/>
</g>
</svg>
