<svg width="36" height="36" viewBox="0 0 36 36" fill="none" xmlns="http://www.w3.org/2000/svg">
<g filter="url(#filter0_d_6446_29589)">
<path d="M8 18C8 12.4772 12.4772 8 18 8C23.5228 8 28 12.4772 28 18C28 23.5228 23.5228 28 18 28C12.4772 28 8 23.5228 8 18Z" fill="#B130FF"/>
<path d="M23.716 15.4019L16.716 22.4019C16.655 22.4631 16.5826 22.5116 16.5028 22.5447C16.423 22.5779 16.3375 22.5949 16.2511 22.5949C16.1648 22.5949 16.0792 22.5779 15.9995 22.5447C15.9197 22.5116 15.8473 22.4631 15.7863 22.4019L12.7238 19.3394C12.6628 19.2784 12.6143 19.2059 12.5813 19.1261C12.5483 19.0464 12.5313 18.9609 12.5312 18.8746C12.5312 18.7882 12.5483 18.7027 12.5813 18.623C12.6143 18.5432 12.6628 18.4708 12.7238 18.4097C12.7848 18.3487 12.8573 18.3002 12.9371 18.2672C13.0168 18.2342 13.1023 18.2172 13.1886 18.2172C13.275 18.2172 13.3605 18.2342 13.4402 18.2672C13.52 18.3002 13.5924 18.3487 13.6535 18.4097L16.2517 21.0079L22.7874 14.4733C22.9107 14.35 23.0779 14.2808 23.2522 14.2808C23.4266 14.2808 23.5938 14.35 23.7171 14.4733C23.8404 14.5966 23.9096 14.7638 23.9096 14.9382C23.9096 15.1125 23.8404 15.2797 23.7171 15.403L23.716 15.4019Z" fill="#EEEDEE"/>
</g>
<defs>
<filter id="filter0_d_6446_29589" x="0" y="0" width="36" height="36" filterUnits="userSpaceOnUse" color-interpolation-filters="sRGB">
<feFlood flood-opacity="0" result="BackgroundImageFix"/>
<feColorMatrix in="SourceAlpha" type="matrix" values="0 0 0 0 0 0 0 0 0 0 0 0 0 0 0 0 0 0 127 0" result="hardAlpha"/>
<feOffset/>
<feGaussianBlur stdDeviation="4"/>
<feComposite in2="hardAlpha" operator="out"/>
<feColorMatrix type="matrix" values="0 0 0 0 0 0 0 0 0 0 0 0 0 0 0 0 0 0 0.75 0"/>
<feBlend mode="normal" in2="BackgroundImageFix" result="effect1_dropShadow_6446_29589"/>
<feBlend mode="normal" in="SourceGraphic" in2="effect1_dropShadow_6446_29589" result="shape"/>
</filter>
</defs>
</svg>
