<svg width="564" height="198" viewBox="0 0 564 198" fill="none" xmlns="http://www.w3.org/2000/svg">
<g style="mix-blend-mode:lighten">
<path d="M395.405 121.222C394.979 122.89 395.986 124.588 397.654 125.014L435.654 134.721C437.322 135.147 439.02 134.14 439.446 132.472L443.11 118.127L482.432 128.172C498.535 132.285 511.862 132.055 521.909 126.69C531.837 121.387 538.286 112.588 541.333 100.659C544.542 88.0952 543.091 76.9704 536.582 67.6534C530.1 58.3744 518.944 51.9805 503.756 48.101L422.596 27.3697C420.928 26.9437 419.23 27.9504 418.804 29.6183L395.405 121.222ZM479.514 94.9887L450.888 87.6765L455.275 70.5007L483.902 77.8129C490.614 79.5275 494.381 81.4756 496.032 83.2716C497.448 84.8127 498.055 86.9491 497.193 90.3227C496.448 93.2403 494.948 94.9167 492.705 95.8138C490.394 96.7001 486.19 96.6938 479.514 94.9887Z" fill="#08060A" stroke="#B130FF" stroke-width="6.23376" stroke-linejoin="round"/>
<path d="M352.063 103.26L352.064 103.26C363.122 102.09 371.194 99.0802 376.636 94.5375L376.643 94.5316C381.559 90.4519 383.803 85.1257 383.257 78.1441C382.152 71.8627 378.819 67.7781 373.166 65.4729L373.152 65.4671C366.678 62.7901 358.006 61.895 346.925 63.0664L352.063 103.26ZM352.063 103.26C340.778 104.457 332.072 103.439 325.694 100.54C320.113 98.0033 316.667 93.4981 315.457 86.498C314.995 80.1636 317.171 75.287 321.981 71.4878L321.986 71.4842M352.063 103.26L321.986 71.4842M321.986 71.4842C327.417 67.1772 335.609 64.2679 346.924 63.0665L321.986 71.4842ZM271.643 69.4374C268.929 75.6129 267.804 82.3866 268.195 89.6993C268.14 90.002 268.13 90.318 268.17 90.6393L268.557 93.7321C268.595 94.0385 268.676 94.329 268.794 94.5981C270.233 102.096 273.017 108.645 277.21 114.168C282.127 120.646 288.863 125.554 297.278 128.947L297.281 128.948C313.877 135.617 333.425 137.457 355.797 134.662C378.084 131.878 396.553 125.289 411.037 114.741C418.422 109.377 423.794 102.96 427.003 95.4663C429.738 89.0768 430.843 82.0395 430.397 74.415C430.446 74.1238 430.454 73.8206 430.415 73.5126L430.029 70.4197C429.989 70.0973 429.9 69.7925 429.772 69.5116C428.348 62.3262 425.58 56.0374 421.41 50.7215C416.486 44.444 409.732 39.6842 401.302 36.3722C384.68 29.8018 365.146 28.0055 342.821 30.7943C320.455 33.5884 301.96 40.135 287.506 50.5902C280.19 55.8713 274.849 62.1441 271.643 69.4374Z" fill="#08060A" stroke="#B130FF" stroke-width="6.23376" stroke-linejoin="round"/>
<path d="M150.201 115.157C149.786 116.828 150.804 118.519 152.474 118.934L190.536 128.396C192.207 128.811 193.898 127.794 194.313 126.123L201.41 97.5763L244.135 108.198L237.039 136.744C236.623 138.415 237.641 140.106 239.312 140.521L277.374 149.983C279.044 150.398 280.735 149.381 281.151 147.71L303.96 55.9574C304.375 54.2869 303.357 52.5959 301.687 52.1807L263.625 42.7186C261.954 42.3033 260.263 43.3209 259.848 44.9915L253.519 70.4504L210.793 59.8291L217.122 34.3702C217.538 32.6997 216.52 31.0087 214.849 30.5935L176.787 21.1314C175.117 20.7161 173.426 21.7337 173.01 23.4043L150.201 115.157Z" fill="#08060A" stroke="#B130FF" stroke-width="6.23376" stroke-linejoin="round"/>
<path d="M36.1284 127.577L36.129 127.578C39.7987 137.806 49.1355 142.929 62.4519 143.825L62.4656 143.826C75.6692 144.656 92.4232 141.928 112.6 135.854C132.783 129.778 147.796 122.168 157.238 112.813C161.98 108.115 165.255 103.044 166.869 97.5822C168.49 92.097 168.377 86.4076 166.628 80.5969C165.016 75.243 162.551 70.8514 159.094 67.6402C155.609 64.4035 151.296 62.5336 146.307 61.9591C141.788 61.4202 136.117 61.4613 129.324 62.0563L150.887 55.5653C151.711 55.3171 152.396 54.739 152.779 53.968C153.163 53.197 153.21 52.3019 152.91 51.4949L151.482 47.6525L151.478 47.6415C147.562 37.2255 138.783 31.4816 126.18 30.0394C113.804 28.6234 97.6034 31.053 77.7635 37.0255C58.5799 42.8004 44.2884 50.0118 35.2868 58.8663C30.7767 63.29 27.6511 68.0846 26.1085 73.2672C24.5587 78.4739 24.6651 83.8797 26.327 89.4003C29.3276 99.3678 35.8872 105.746 45.7844 108.123L45.8043 108.127C50.6304 109.253 56.8596 109.543 64.436 109.055L36.0378 117.603C35.2195 117.85 34.5383 118.421 34.1534 119.184C33.7685 119.947 33.7138 120.834 34.0019 121.639L36.1284 127.577ZM113.726 63.0641L114.28 63.9727C110.981 64.4995 107.506 65.1116 103.857 65.8075C91.2317 68.1989 81.9638 69.9466 76.0446 71.0524C79.0971 69.9494 82.9863 68.6819 87.7436 67.2497C98.3533 64.0559 105.29 62.5727 108.89 62.5219C110.817 62.4948 112.164 62.6271 113.035 62.8368C113.415 62.9283 113.625 63.015 113.726 63.0641ZM73.0355 108.995C72.8876 108.735 72.7068 108.504 72.5007 108.303C77.8631 107.667 83.7578 106.726 90.1706 105.494C108.409 102.049 119.441 100.051 123.39 99.4698C123.255 99.5383 123.115 99.608 122.97 99.6788C119.328 101.411 112.707 103.746 102.938 106.687C92.4355 109.848 84.9814 111.637 80.4284 112.161C75.8596 112.634 74.5402 111.588 74.1678 110.986L73.0355 108.995ZM126.549 97.3455C126.55 97.3454 126.546 97.3519 126.536 97.3653C126.544 97.3523 126.549 97.3456 126.549 97.3455Z" fill="#08060A" stroke="#B130FF" stroke-width="6.23376" stroke-linejoin="round"/>
<path d="M49.3309 20L49.3762 26.3666C49.4733 39.9991 60.5007 51.0264 74.1331 51.1235L80.4997 51.1688L74.1331 51.2142C60.5007 51.3113 49.4733 62.3386 49.3762 75.971L49.3309 82.3377L49.2856 75.971C49.1885 62.3386 38.1611 51.3113 24.5287 51.2142L18.1621 51.1688L24.5287 51.1235C38.1611 51.0264 49.1885 39.9991 49.2856 26.3666L49.3309 20Z" fill="#B130FF"/>
<path d="M486.734 98.9609L486.793 107.238C486.919 124.96 501.255 139.295 518.977 139.421L527.254 139.48L518.977 139.539C501.255 139.666 486.919 154.001 486.793 171.723L486.734 180L486.675 171.723C486.549 154.001 472.214 139.666 454.491 139.539L446.215 139.48L454.491 139.421C472.214 139.295 486.549 124.96 486.675 107.238L486.734 98.9609Z" fill="#B130FF"/>
</g>
<g style="mix-blend-mode:screen" opacity="0.5" filter="url(#filter0_f_6646_30770)">
<path d="M395.405 121.222C394.979 122.89 395.986 124.588 397.654 125.014L435.654 134.721C437.322 135.147 439.02 134.14 439.446 132.472L443.11 118.127L482.432 128.172C498.535 132.285 511.862 132.055 521.909 126.69C531.837 121.387 538.286 112.588 541.333 100.659C544.542 88.0952 543.091 76.9704 536.582 67.6534C530.1 58.3744 518.944 51.9805 503.756 48.101L422.596 27.3697C420.928 26.9437 419.23 27.9504 418.804 29.6183L395.405 121.222ZM479.514 94.9887L450.888 87.6765L455.275 70.5007L483.902 77.8129C490.614 79.5275 494.381 81.4756 496.032 83.2716C497.448 84.8127 498.055 86.9491 497.193 90.3227C496.448 93.2403 494.948 94.9167 492.705 95.8138C490.394 96.7001 486.19 96.6938 479.514 94.9887Z" fill="#08060A" stroke="#B130FF" stroke-width="6.23376" stroke-linejoin="round"/>
<path d="M352.063 103.26L352.064 103.26C363.122 102.09 371.194 99.0802 376.636 94.5375L376.643 94.5316C381.559 90.4519 383.803 85.1257 383.257 78.1441C382.152 71.8627 378.819 67.7781 373.166 65.4729L373.152 65.4671C366.678 62.7901 358.006 61.895 346.925 63.0664L352.063 103.26ZM352.063 103.26C340.778 104.457 332.072 103.439 325.694 100.54C320.113 98.0033 316.667 93.4981 315.457 86.498C314.995 80.1636 317.171 75.287 321.981 71.4878L321.986 71.4842M352.063 103.26L321.986 71.4842M321.986 71.4842C327.417 67.1772 335.609 64.2679 346.924 63.0665L321.986 71.4842ZM271.643 69.4374C268.929 75.6129 267.804 82.3866 268.195 89.6993C268.14 90.002 268.13 90.318 268.17 90.6393L268.557 93.7321C268.595 94.0385 268.676 94.329 268.794 94.5981C270.233 102.096 273.017 108.645 277.21 114.168C282.127 120.646 288.863 125.554 297.278 128.947L297.281 128.948C313.877 135.617 333.425 137.457 355.797 134.662C378.084 131.878 396.553 125.289 411.037 114.741C418.422 109.377 423.794 102.96 427.003 95.4663C429.738 89.0768 430.843 82.0395 430.397 74.415C430.446 74.1238 430.454 73.8206 430.415 73.5126L430.029 70.4197C429.989 70.0973 429.9 69.7925 429.772 69.5116C428.348 62.3262 425.58 56.0374 421.41 50.7215C416.486 44.444 409.732 39.6842 401.302 36.3722C384.68 29.8018 365.146 28.0055 342.821 30.7943C320.455 33.5884 301.96 40.135 287.506 50.5902C280.19 55.8713 274.849 62.1441 271.643 69.4374Z" fill="#08060A" stroke="#B130FF" stroke-width="6.23376" stroke-linejoin="round"/>
<path d="M150.201 115.157C149.786 116.828 150.804 118.519 152.474 118.934L190.536 128.396C192.207 128.811 193.898 127.794 194.313 126.123L201.41 97.5763L244.135 108.198L237.039 136.744C236.623 138.415 237.641 140.106 239.312 140.521L277.374 149.983C279.044 150.398 280.735 149.381 281.151 147.71L303.96 55.9574C304.375 54.2869 303.357 52.5959 301.687 52.1807L263.625 42.7186C261.954 42.3033 260.263 43.3209 259.848 44.9915L253.519 70.4504L210.793 59.8291L217.122 34.3702C217.538 32.6997 216.52 31.0087 214.849 30.5935L176.787 21.1314C175.117 20.7161 173.426 21.7337 173.01 23.4043L150.201 115.157Z" fill="#08060A" stroke="#B130FF" stroke-width="6.23376" stroke-linejoin="round"/>
<path d="M36.1284 127.577L36.129 127.578C39.7987 137.806 49.1355 142.929 62.4519 143.825L62.4656 143.826C75.6692 144.656 92.4232 141.928 112.6 135.854C132.783 129.778 147.796 122.168 157.238 112.813C161.98 108.115 165.255 103.044 166.869 97.5822C168.49 92.097 168.377 86.4076 166.628 80.5969C165.016 75.243 162.551 70.8514 159.094 67.6402C155.609 64.4035 151.296 62.5336 146.307 61.9591C141.788 61.4202 136.117 61.4613 129.324 62.0563L150.887 55.5653C151.711 55.3171 152.396 54.739 152.779 53.968C153.163 53.197 153.21 52.3019 152.91 51.4949L151.482 47.6525L151.478 47.6415C147.562 37.2255 138.783 31.4816 126.18 30.0394C113.804 28.6234 97.6034 31.053 77.7635 37.0255C58.5799 42.8004 44.2884 50.0118 35.2868 58.8663C30.7767 63.29 27.6511 68.0846 26.1085 73.2672C24.5587 78.4739 24.6651 83.8797 26.327 89.4003C29.3276 99.3678 35.8872 105.746 45.7844 108.123L45.8043 108.127C50.6304 109.253 56.8596 109.543 64.436 109.055L36.0378 117.603C35.2195 117.85 34.5383 118.421 34.1534 119.184C33.7685 119.947 33.7138 120.834 34.0019 121.639L36.1284 127.577ZM113.726 63.0641L114.28 63.9727C110.981 64.4995 107.506 65.1116 103.857 65.8075C91.2317 68.1989 81.9638 69.9466 76.0446 71.0524C79.0971 69.9494 82.9863 68.6819 87.7436 67.2497C98.3533 64.0559 105.29 62.5727 108.89 62.5219C110.817 62.4948 112.164 62.6271 113.035 62.8368C113.415 62.9283 113.625 63.015 113.726 63.0641ZM73.0355 108.995C72.8876 108.735 72.7068 108.504 72.5007 108.303C77.8631 107.667 83.7578 106.726 90.1706 105.494C108.409 102.049 119.441 100.051 123.39 99.4698C123.255 99.5383 123.115 99.608 122.97 99.6788C119.328 101.411 112.707 103.746 102.938 106.687C92.4355 109.848 84.9814 111.637 80.4284 112.161C75.8596 112.634 74.5402 111.588 74.1678 110.986L73.0355 108.995ZM126.549 97.3455C126.55 97.3454 126.546 97.3519 126.536 97.3653C126.544 97.3523 126.549 97.3456 126.549 97.3455Z" fill="#08060A" stroke="#B130FF" stroke-width="6.23376" stroke-linejoin="round"/>
<path d="M49.3309 20L49.3762 26.3666C49.4733 39.9991 60.5007 51.0264 74.1331 51.1235L80.4997 51.1688L74.1331 51.2142C60.5007 51.3113 49.4733 62.3386 49.3762 75.971L49.3309 82.3377L49.2856 75.971C49.1885 62.3386 38.1611 51.3113 24.5287 51.2142L18.1621 51.1688L24.5287 51.1235C38.1611 51.0264 49.1885 39.9991 49.2856 26.3666L49.3309 20Z" fill="#B130FF"/>
<path d="M486.734 98.9609L486.793 107.238C486.919 124.96 501.255 139.295 518.977 139.421L527.254 139.48L518.977 139.539C501.255 139.666 486.919 154.001 486.793 171.723L486.734 180L486.675 171.723C486.549 154.001 472.214 139.666 454.491 139.539L446.215 139.48L454.491 139.421C472.214 139.295 486.549 124.96 486.675 107.238L486.734 98.9609Z" fill="#B130FF"/>
</g>
<defs>
<filter id="filter0_f_6646_30770" x="0.828777" y="0.587566" width="562.594" height="196.746" filterUnits="userSpaceOnUse" color-interpolation-filters="sRGB">
<feFlood flood-opacity="0" result="BackgroundImageFix"/>
<feBlend mode="normal" in="SourceGraphic" in2="BackgroundImageFix" result="shape"/>
<feGaussianBlur stdDeviation="8.66667" result="effect1_foregroundBlur_6646_30770"/>
</filter>
</defs>
</svg>
