<svg width="90" height="89" viewBox="0 0 90 89" fill="none" xmlns="http://www.w3.org/2000/svg">
<g filter="url(#filter0_d_4877_2568)">
<path d="M45 28C41.7861 28 38.6443 28.953 35.972 30.7386C33.2997 32.5242 31.2169 35.0621 29.987 38.0314C28.757 41.0007 28.4352 44.268 29.0622 47.4202C29.6893 50.5724 31.2369 53.4679 33.5095 55.7405C35.7821 58.0131 38.6776 59.5607 41.8298 60.1878C44.982 60.8148 48.2493 60.493 51.2186 59.263C54.1879 58.0331 56.7258 55.9503 58.5114 53.278C60.297 50.6057 61.25 47.4639 61.25 44.25C61.2455 39.9416 59.5319 35.811 56.4855 32.7645C53.439 29.7181 49.3084 28.0045 45 28ZM32.7547 50.5H39.1328L41.7891 57.6219C39.8596 57.1542 38.0538 56.2759 36.4947 55.0469C34.9356 53.8178 33.6599 52.2669 32.7547 50.5ZM45 48.625C44.5056 48.625 44.0222 48.4784 43.6111 48.2037C43.2 47.929 42.8795 47.5385 42.6903 47.0817C42.5011 46.6249 42.4516 46.1222 42.548 45.6373C42.6445 45.1523 42.8826 44.7069 43.2322 44.3572C43.5819 44.0076 44.0273 43.7695 44.5123 43.673C44.9972 43.5766 45.4999 43.6261 45.9567 43.8153C46.4135 44.0045 46.804 44.325 47.0787 44.7361C47.3534 45.1472 47.5 45.6305 47.5 46.125C47.5 46.788 47.2366 47.4239 46.7678 47.8928C46.2989 48.3616 45.663 48.625 45 48.625ZM48.1969 57.6234L50.8672 50.5H57.2453C56.3389 52.2688 55.0611 53.821 53.4995 55.0504C51.9378 56.2799 50.129 57.1575 48.1969 57.6234ZM45 39.25C39.9637 39.2561 35.0924 41.0458 31.25 44.3016V44.25C31.25 40.6033 32.6987 37.1059 35.2773 34.5273C37.8559 31.9487 41.3533 30.5 45 30.5C48.6467 30.5 52.1441 31.9487 54.7227 34.5273C57.3014 37.1059 58.75 40.6033 58.75 44.25V44.3016C54.9076 41.0458 50.0363 39.2561 45 39.25Z" fill="#EEEDEE"/>
</g>
<defs>
<filter id="filter0_d_4877_2568" x="-3" y="-3.75" width="96" height="96" filterUnits="userSpaceOnUse" color-interpolation-filters="sRGB">
<feFlood flood-opacity="0" result="BackgroundImageFix"/>
<feColorMatrix in="SourceAlpha" type="matrix" values="0 0 0 0 0 0 0 0 0 0 0 0 0 0 0 0 0 0 127 0" result="hardAlpha"/>
<feOffset/>
<feGaussianBlur stdDeviation="14"/>
<feComposite in2="hardAlpha" operator="out"/>
<feColorMatrix type="matrix" values="0 0 0 0 0.694118 0 0 0 0 0.188235 0 0 0 0 1 0 0 0 1 0"/>
<feBlend mode="normal" in2="BackgroundImageFix" result="effect1_dropShadow_4877_2568"/>
<feBlend mode="normal" in="SourceGraphic" in2="effect1_dropShadow_4877_2568" result="shape"/>
</filter>
</defs>
</svg>
