<svg width="90" height="90" viewBox="0 0 90 90" fill="none" xmlns="http://www.w3.org/2000/svg">
<g filter="url(#filter0_d_5408_9191)">
<path d="M45 28.75C41.7861 28.75 38.6443 29.703 35.972 31.4886C33.2997 33.2742 31.2169 35.8121 29.987 38.7814C28.757 41.7507 28.4352 45.018 29.0622 48.1702C29.6893 51.3224 31.2369 54.2179 33.5095 56.4905C35.7821 58.7631 38.6776 60.3107 41.8298 60.9378C44.982 61.5648 48.2493 61.243 51.2186 60.013C54.1879 58.7831 56.7258 56.7003 58.5114 54.028C60.297 51.3557 61.25 48.2139 61.25 45C61.2455 40.6916 59.5319 36.561 56.4855 33.5145C53.439 30.4681 49.3084 28.7545 45 28.75ZM32.7547 51.25H39.1328L41.7891 58.3719C39.8596 57.9042 38.0538 57.0259 36.4947 55.7969C34.9356 54.5678 33.6599 53.0169 32.7547 51.25ZM45 49.375C44.5056 49.375 44.0222 49.2284 43.6111 48.9537C43.2 48.679 42.8795 48.2885 42.6903 47.8317C42.5011 47.3749 42.4516 46.8722 42.548 46.3873C42.6445 45.9023 42.8826 45.4569 43.2322 45.1072C43.5819 44.7576 44.0273 44.5195 44.5123 44.423C44.9972 44.3266 45.4999 44.3761 45.9567 44.5653C46.4135 44.7545 46.804 45.075 47.0787 45.4861C47.3534 45.8972 47.5 46.3805 47.5 46.875C47.5 47.538 47.2366 48.1739 46.7678 48.6428C46.2989 49.1116 45.663 49.375 45 49.375ZM48.1969 58.3734L50.8672 51.25H57.2453C56.3389 53.0188 55.0611 54.571 53.4995 55.8004C51.9378 57.0299 50.129 57.9075 48.1969 58.3734ZM45 40C39.9637 40.0061 35.0924 41.7958 31.25 45.0516V45C31.25 41.3533 32.6987 37.8559 35.2773 35.2773C37.8559 32.6987 41.3533 31.25 45 31.25C48.6467 31.25 52.1441 32.6987 54.7227 35.2773C57.3014 37.8559 58.75 41.3533 58.75 45V45.0516C54.9076 41.7958 50.0363 40.0061 45 40Z" fill="#EEEDEE"/>
</g>
<defs>
<filter id="filter0_d_5408_9191" x="-3" y="-3" width="96" height="96" filterUnits="userSpaceOnUse" color-interpolation-filters="sRGB">
<feFlood flood-opacity="0" result="BackgroundImageFix"/>
<feColorMatrix in="SourceAlpha" type="matrix" values="0 0 0 0 0 0 0 0 0 0 0 0 0 0 0 0 0 0 127 0" result="hardAlpha"/>
<feOffset/>
<feGaussianBlur stdDeviation="14"/>
<feComposite in2="hardAlpha" operator="out"/>
<feColorMatrix type="matrix" values="0 0 0 0 0.694118 0 0 0 0 0.188235 0 0 0 0 1 0 0 0 1 0"/>
<feBlend mode="normal" in2="BackgroundImageFix" result="effect1_dropShadow_5408_9191"/>
<feBlend mode="normal" in="SourceGraphic" in2="effect1_dropShadow_5408_9191" result="shape"/>
</filter>
</defs>
</svg>
