<svg width="16" height="16" viewBox="0 0 16 16" fill="none" xmlns="http://www.w3.org/2000/svg">
<g id="Tier3" clip-path="url(#clip0_367_8060)">
<path id="Vector" d="M16 8.616C13.6 8.664 12.448 8.792 11.896 8.912C12.104 9.024 12.4 9.168 12.856 9.352L12.624 9.912L12.392 10.464C11.944 10.28 11.624 10.168 11.4 10.104C11.784 10.696 12.808 11.952 15.496 14.64L15.072 15.064L14.648 15.496C11.96 12.8 10.704 11.776 10.112 11.4C10.176 11.616 10.288 11.936 10.472 12.376L9.92 12.616L9.36 12.848C9.176 12.4 9.032 12.096 8.92 11.896C8.8 12.44 8.664 13.592 8.616 16H7.384C7.336 13.592 7.208 12.44 7.088 11.896C6.976 12.096 6.832 12.4 6.648 12.848L6.088 12.616L5.536 12.384C5.72 11.936 5.832 11.616 5.896 11.4C5.304 11.776 4.048 12.8 1.36 15.496L0.936 15.064L0.512 14.64C3.2 11.952 4.224 10.696 4.608 10.104C4.384 10.168 4.064 10.28 3.616 10.464L3.384 9.912L3.152 9.352C3.608 9.168 3.904 9.024 4.104 8.912C3.56 8.792 2.408 8.664 0 8.616V7.384C2.408 7.336 3.56 7.2 4.104 7.088C3.904 6.968 3.608 6.824 3.152 6.64L3.384 6.08L3.616 5.528C4.064 5.712 4.384 5.824 4.608 5.888C4.224 5.304 3.2 4.04 0.512 1.352L0.936 0.928L1.36 0.504C4.048 3.192 5.304 4.216 5.896 4.6C5.832 4.376 5.72 4.056 5.536 3.608L6.088 3.376L6.648 3.144C6.832 3.6 6.976 3.896 7.088 4.104C7.208 3.552 7.336 2.4 7.384 0H8.616C8.664 2.4 8.8 3.552 8.92 4.104C9.032 3.896 9.176 3.6 9.36 3.144L9.92 3.376L10.472 3.608C10.288 4.056 10.176 4.376 10.112 4.6C10.704 4.216 11.96 3.192 14.648 0.504L15.496 1.352C12.808 4.04 11.784 5.304 11.4 5.888C11.624 5.824 11.944 5.712 12.392 5.528L12.624 6.08L12.856 6.64C12.4 6.824 12.104 6.968 11.896 7.088C12.448 7.2 13.6 7.336 16 7.384V8.616Z" fill="#EEEDEE"/>
</g>
<defs>
<clipPath id="clip0_367_8060">
<rect width="16" height="16" fill="white"/>
</clipPath>
</defs>
</svg>
