<svg width="16" height="16" viewBox="0 0 16 16" fill="none" xmlns="http://www.w3.org/2000/svg">
<g id="Tier1" clip-path="url(#clip0_367_8068)">
<path id="Vector" d="M8.592 0H7.4C7.256 1.736 7.12 3.016 6.904 4C6.688 4.976 6.392 5.568 5.976 5.984C5.56 6.4 4.96 6.688 3.992 6.912C3.016 7.128 1.736 7.264 0 7.408V8.6C1.736 8.744 3.016 8.88 4 9.096C4.976 9.312 5.568 9.608 5.984 10.024C6.4 10.44 6.688 11.04 6.912 12.008C7.136 12.984 7.264 14.272 7.408 16.008H8.6C8.744 14.272 8.88 12.992 9.096 12.008C9.312 11.032 9.608 10.44 10.024 10.024C10.44 9.608 11.04 9.32 12.008 9.096C12.984 8.872 14.272 8.744 16.008 8.6L15.976 7.808L16.008 7.416C14.272 7.272 12.992 7.136 12.008 6.92C11.032 6.704 10.44 6.408 10.024 5.992C9.608 5.576 9.32 4.976 9.096 4.008C8.872 3.032 8.744 1.744 8.6 0.008L8.592 0Z" fill="#EEEDEE"/>
</g>
<defs>
<clipPath id="clip0_367_8068">
<rect width="16" height="16" fill="white"/>
</clipPath>
</defs>
</svg>
