<svg version="1.2" xmlns="http://www.w3.org/2000/svg" viewBox="0 0 21 20" width="21" height="20"><style>.a{fill:#eeedee}</style><path fill-rule="evenodd" class="a" d="m16.6 5.8l-5.7 3.4-5.7-3.4q-0.1 0-0.1-0.2-0.1-0.1-0.1-0.2 0-0.1 0.1-0.2 0-0.1 0.1-0.2l5-3q0.3-0.2 0.7-0.2 0.4 0 0.7 0.2l5 3q0.1 0.1 0.2 0.2 0 0.1 0 0.2 0 0.1 0 0.2-0.1 0.2-0.2 0.2zm-12.8 1.9q0.1-0.2 0.2-0.2 0.1-0.1 0.2-0.1 0.1 0 0.2 0.1l5.6 3.4v6.7q0 0.1 0 0.2-0.1 0.1-0.2 0.2-0.1 0-0.2 0-0.1 0-0.2 0l-4.9-3q-0.4-0.2-0.6-0.5-0.2-0.4-0.2-0.8v-5.8q0-0.1 0.1-0.2zm14.1 6.8q-0.2 0.3-0.5 0.5l-4.9 3q-0.1 0-0.2 0-0.1 0-0.3 0-0.1-0.1-0.1-0.2-0.1-0.1-0.1-0.2v-6.7l5.6-3.4q0.1-0.1 0.3-0.1 0.1 0 0.2 0.1 0.1 0 0.2 0.2 0 0.1 0 0.2v5.8q0 0.4-0.2 0.8z"/></svg>