<svg width="21" height="20" viewBox="0 0 21 20" fill="none" xmlns="http://www.w3.org/2000/svg">
<path d="M16.2049 5.81768L10.5234 9.24812L4.84195 5.81768C4.77361 5.77646 4.71686 5.71716 4.6774 5.64572C4.63794 5.57429 4.61716 5.49325 4.61716 5.41075C4.61716 5.32825 4.63794 5.24721 4.6774 5.17578C4.71686 5.10434 4.77361 5.04503 4.84195 5.00382L9.82266 1.99617C10.0357 1.86753 10.2774 1.7998 10.5234 1.7998C10.7695 1.7998 11.0112 1.86753 11.2242 1.99617L16.2049 5.00382C16.2733 5.04503 16.33 5.10434 16.3695 5.17578C16.4089 5.24721 16.4297 5.32825 16.4297 5.41075C16.4297 5.49325 16.4089 5.57429 16.3695 5.64572C16.33 5.71716 16.2733 5.77646 16.2049 5.81768ZM3.33594 7.89168V13.7109C3.33539 13.9776 3.40166 14.2398 3.52816 14.4714C3.65466 14.703 3.83697 14.8959 4.05694 15.0309L8.95117 17.9869C9.01943 18.0281 9.09685 18.0498 9.17567 18.0498C9.25448 18.0498 9.33192 18.0282 9.40019 17.987C9.46847 17.9458 9.52518 17.8866 9.56464 17.8152C9.6041 17.7439 9.62492 17.6629 9.625 17.5805V10.8758L4.00977 7.48534C3.94151 7.44413 3.86409 7.42242 3.78527 7.4224C3.70646 7.42238 3.62903 7.44404 3.56075 7.48522C3.49247 7.52639 3.43576 7.58562 3.3963 7.65697C3.35684 7.72831 3.33602 7.80926 3.33594 7.89168ZM17.7109 13.7109V7.89168C17.7109 7.80926 17.69 7.72831 17.6506 7.65697C17.6111 7.58562 17.5544 7.52639 17.4861 7.48522C17.4179 7.44404 17.3404 7.42238 17.2616 7.4224C17.1828 7.42242 17.1054 7.44413 17.0371 7.48534L11.4219 10.8758V17.5805C11.422 17.6629 11.4428 17.7439 11.4822 17.8152C11.5217 17.8866 11.5784 17.9458 11.6467 17.987C11.715 18.0282 11.7924 18.0498 11.8712 18.0498C11.95 18.0498 12.0274 18.0281 12.0957 17.9869L16.9888 15.0309C17.209 14.896 17.3915 14.7032 17.5182 14.4716C17.6449 14.24 17.7114 13.9777 17.7109 13.7109Z" fill="#EEEDEE" fill-opacity="0.68"/>
</svg>
