<svg width="16" height="16" viewBox="0 0 16 16" fill="none" xmlns="http://www.w3.org/2000/svg">
<g id="Tier2" clip-path="url(#clip0_367_8064)">
<path id="Vector" fill-rule="evenodd" clip-rule="evenodd" d="M16 7.384V8.616C14.792 8.632 13.8 8.664 12.992 8.728C11.736 8.824 11.04 8.976 10.704 9.16C10.608 9.208 10.576 9.248 10.56 9.264C10.56 9.264 10.56 9.336 10.608 9.464C10.76 9.824 11.192 10.344 11.96 11.112L11.112 11.96C10.344 11.192 9.816 10.768 9.464 10.616C9.336 10.56 9.28 10.56 9.264 10.56C9.256 10.568 9.216 10.6 9.152 10.704C8.968 11.04 8.816 11.744 8.72 12.992C8.664 13.8 8.624 14.792 8.616 16H7.384C7.368 14.792 7.336 13.8 7.272 12.992C7.176 11.744 7.024 11.04 6.84 10.704C6.784 10.6 6.744 10.568 6.728 10.56C6.72 10.56 6.664 10.56 6.528 10.616C6.176 10.768 5.648 11.192 4.888 11.96L4.04 11.112C4.8 10.344 5.232 9.824 5.384 9.464C5.44 9.336 5.44 9.28 5.44 9.272H5.432C5.432 9.272 5.384 9.208 5.296 9.16C4.96 8.976 4.256 8.824 3 8.728C2.192 8.664 1.2 8.632 0 8.616V7.384C1.2 7.368 2.192 7.336 3 7.28C4.256 7.184 4.96 7.024 5.296 6.84C5.4 6.784 5.432 6.744 5.44 6.736C5.44 6.72 5.44 6.664 5.384 6.536C5.232 6.184 4.8 5.656 4.04 4.888L4.888 4.04C5.648 4.808 6.176 5.232 6.528 5.392C6.664 5.448 6.72 5.44 6.728 5.44C6.744 5.432 6.784 5.4 6.84 5.296C7.024 4.96 7.176 4.256 7.272 3.008C7.336 2.2 7.368 1.208 7.384 0H8.616C8.624 1.208 8.664 2.2 8.72 3.008C8.816 4.256 8.968 4.96 9.152 5.296C9.216 5.4 9.256 5.432 9.264 5.44C9.28 5.44 9.336 5.448 9.464 5.392C9.816 5.232 10.344 4.808 11.112 4.04L11.96 4.888C11.192 5.656 10.76 6.184 10.608 6.536C10.552 6.664 10.552 6.72 10.56 6.736C10.568 6.744 10.592 6.784 10.704 6.84C11.04 7.024 11.736 7.184 12.992 7.28C13.8 7.336 14.792 7.376 16 7.384Z" fill="#EEEDEE"/>
</g>
<defs>
<clipPath id="clip0_367_8064">
<rect width="16" height="16" fill="white"/>
</clipPath>
</defs>
</svg>
