<!-- sample rectangle -->
<svg xmlns="http://www.w3.org/2000/svg" width="16" height="16" viewBox="0 0 16 16" fill="none">
<g id='SmallCube'>
    <path xmlns="http://www.w3.org/2000/svg"
        d="M12.6429 4.65473L8.09766 7.39908L3.55246 4.65473C3.49779 4.62176 3.45239 4.57431 3.42082 4.51716C3.38926 4.46002 3.37264 4.39518 3.37264 4.32919C3.37264 4.26319 3.38926 4.19835 3.42082 4.14121C3.45239 4.08406 3.49779 4.03661 3.55246 4.00364L7.53703 1.59752C7.70748 1.49461 7.90084 1.44043 8.09766 1.44043C8.29448 1.44043 8.48783 1.49461 8.65828 1.59752L12.6429 4.00364C12.6975 4.03661 12.7429 4.08406 12.7745 4.14121C12.8061 4.19835 12.8227 4.26319 12.8227 4.32919C12.8227 4.39518 12.8061 4.46002 12.7745 4.51716C12.7429 4.57431 12.6975 4.62176 12.6429 4.65473ZM2.34766 6.31393V10.9693C2.34722 11.1826 2.40023 11.3924 2.50143 11.5777C2.60263 11.763 2.74848 11.9173 2.92446 12.0253L6.83985 14.3901C6.89445 14.423 6.95639 14.4404 7.01944 14.4404C7.08249 14.4404 7.14444 14.4231 7.19906 14.3902C7.25368 14.3572 7.29905 14.3099 7.33062 14.2528C7.36219 14.1957 7.37884 14.1309 7.37891 14.065V8.70126L2.88672 5.98885C2.83212 5.95589 2.77018 5.93852 2.70713 5.93851C2.64407 5.93849 2.58213 5.95582 2.52751 5.98876C2.47289 6.0217 2.42751 6.06908 2.39594 6.12616C2.36438 6.18324 2.34772 6.24799 2.34766 6.31393ZM13.8477 10.9693V6.31393C13.8476 6.24799 13.8309 6.18324 13.7994 6.12616C13.7678 6.06908 13.7224 6.0217 13.6678 5.98876C13.6132 5.95582 13.5512 5.93849 13.4882 5.93851C13.4251 5.93852 13.3632 5.95589 13.3086 5.98885L8.81641 8.70126V14.065C8.81647 14.1309 8.83312 14.1957 8.86469 14.2528C8.89626 14.3099 8.94163 14.3572 8.99625 14.3902C9.05087 14.4231 9.11282 14.4404 9.17587 14.4404C9.23893 14.4404 9.30086 14.423 9.35547 14.3901L13.27 12.0253C13.4461 11.9174 13.5921 11.7631 13.6935 11.5779C13.7949 11.3926 13.848 11.1827 13.8477 10.9693Z"
        fill="#eeedee" />
</g>
</svg>