<svg width="28" height="22" viewBox="0 0 28 22" fill="none" xmlns="http://www.w3.org/2000/svg">
<path d="M16.667 17.6668H23.3337V11.0002H20.667V15.0002H16.667V17.6668ZM4.66699 11.0002H7.33366V7.00016H11.3337V4.3335H4.66699V11.0002ZM3.33366 21.6668C2.60033 21.6668 1.97255 21.4057 1.45033 20.8835C0.928103 20.3613 0.666992 19.7335 0.666992 19.0002V3.00016C0.666992 2.26683 0.928103 1.63905 1.45033 1.11683C1.97255 0.594607 2.60033 0.333496 3.33366 0.333496H24.667C25.4003 0.333496 26.0281 0.594607 26.5503 1.11683C27.0725 1.63905 27.3337 2.26683 27.3337 3.00016V19.0002C27.3337 19.7335 27.0725 20.3613 26.5503 20.8835C26.0281 21.4057 25.4003 21.6668 24.667 21.6668H3.33366Z" fill="#6AFF67"/>
</svg>
