<svg width="30" height="30" viewBox="0 0 30 30" fill="none" xmlns="http://www.w3.org/2000/svg">
<path d="M14.9997 29.6668C12.9775 29.6668 11.0719 29.2835 9.28301 28.5168C7.49412 27.7502 5.93856 26.7057 4.61634 25.3835C3.29412 24.0613 2.24967 22.5057 1.48301 20.7168C0.716341 18.9279 0.333008 17.0224 0.333008 15.0002C0.333008 12.9557 0.716341 11.0446 1.48301 9.26683C2.24967 7.48905 3.29412 5.93905 4.61634 4.61683C5.93856 3.29461 7.49412 2.25016 9.28301 1.4835C11.0719 0.716829 12.9775 0.333496 14.9997 0.333496C17.0441 0.333496 18.9552 0.716829 20.733 1.4835C22.5108 2.25016 24.0608 3.29461 25.383 4.61683C26.7052 5.93905 27.7497 7.48905 28.5163 9.26683C29.283 11.0446 29.6663 12.9557 29.6663 15.0002C29.6663 17.0224 29.283 18.9279 28.5163 20.7168C27.7497 22.5057 26.7052 24.0613 25.383 25.3835C24.0608 26.7057 22.5108 27.7502 20.733 28.5168C18.9552 29.2835 17.0441 29.6668 14.9997 29.6668ZM14.1663 25.3668C14.3886 25.5891 14.6441 25.7002 14.933 25.7002C15.2219 25.7002 15.4775 25.5891 15.6997 25.3668L25.2997 15.7668C25.5219 15.5446 25.633 15.2779 25.633 14.9668C25.633 14.6557 25.5219 14.3891 25.2997 14.1668L15.6997 4.56683C15.4775 4.34461 15.2219 4.2335 14.933 4.2335C14.6441 4.2335 14.3886 4.34461 14.1663 4.56683L4.56634 14.1668C4.34412 14.3891 4.23301 14.6557 4.23301 14.9668C4.23301 15.2779 4.34412 15.5446 4.56634 15.7668L14.1663 25.3668ZM9.63301 18.9668V13.6335C9.63301 13.2335 9.75523 12.9113 9.99967 12.6668C10.2441 12.4224 10.5663 12.3002 10.9663 12.3002H16.4997L15.0997 10.8335L16.9663 8.96683L21.633 13.6335L16.9663 18.3002L15.0997 16.4335L16.4997 14.9668H12.2997V18.9668H9.63301Z" fill="#FF725F"/>
</svg>
