<svg width="24" height="27" viewBox="0 0 24 27" fill="none" xmlns="http://www.w3.org/2000/svg">
<path d="M2.66667 27.0002C1.93333 27.0002 1.30556 26.7391 0.783333 26.2168C0.261111 25.6946 0 25.0668 0 24.3335V5.66683C0 4.9335 0.261111 4.30572 0.783333 3.7835C1.30556 3.26127 1.93333 3.00016 2.66667 3.00016H8.26667C8.55556 2.20016 9.03889 1.55572 9.71667 1.06683C10.3944 0.577941 11.1556 0.333496 12 0.333496C12.8444 0.333496 13.6056 0.577941 14.2833 1.06683C14.9611 1.55572 15.4444 2.20016 15.7333 3.00016H21.3333C22.0667 3.00016 22.6944 3.26127 23.2167 3.7835C23.7389 4.30572 24 4.9335 24 5.66683V24.3335C24 25.0668 23.7389 25.6946 23.2167 26.2168C22.6944 26.7391 22.0667 27.0002 21.3333 27.0002H2.66667ZM5.33333 21.6668H14.6667V19.0002H5.33333V21.6668ZM5.33333 16.3335H18.6667V13.6668H5.33333V16.3335ZM5.33333 11.0002H18.6667V8.3335H5.33333V11.0002ZM12 4.66683C12.2889 4.66683 12.5278 4.57239 12.7167 4.3835C12.9056 4.19461 13 3.95572 13 3.66683C13 3.37794 12.9056 3.13905 12.7167 2.95016C12.5278 2.76127 12.2889 2.66683 12 2.66683C11.7111 2.66683 11.4722 2.76127 11.2833 2.95016C11.0944 3.13905 11 3.37794 11 3.66683C11 3.95572 11.0944 4.19461 11.2833 4.3835C11.4722 4.57239 11.7111 4.66683 12 4.66683Z" fill="#FFD643"/>
</svg>
