<svg width="869" height="577" viewBox="0 0 869 577" fill="none" xmlns="http://www.w3.org/2000/svg">
<path d="M813.375 2.81825C817.948 3.43041 823.408 3.43686 827.148 6.54996L855.505 24.3543C855.505 27.6715 857.125 31.2026 857.125 34.8751C857.125 40.6778 858.209 47.8826 859.601 53.4437C863.318 68.299 866.195 82.9731 867.657 98.2693C870.955 132.761 867.188 167.819 866.802 202.353C866.414 237.022 863.212 271.569 859.601 306.032C856.241 338.087 849.846 369.509 845.422 401.393C840.754 435.04 836.15 469.139 833.495 503.003C832.256 518.799 833.856 534.721 832.459 550.482C832.136 554.129 831.871 563.306 827.958 565.498C818.734 570.668 806.785 573.943 796.451 575.615C782.853 577.814 767.271 577.023 753.601 575.794C745.413 575.058 736.973 573.789 728.845 572.512C701.237 568.176 673.123 566.341 645.306 563.7C577.583 557.269 509.57 555.05 441.769 549.583C398.698 546.109 354.54 544.578 312.05 536.184C307.519 535.289 301.662 534.54 297.736 531.688C294.668 529.459 295.057 520.776 294.856 517.616C294.454 511.294 293.376 505.121 293.235 498.777C293.003 488.345 290.499 478.051 289.544 467.665C288.701 458.491 287.859 449.429 286.754 440.284C284.31 420.057 285.133 399.427 285.133 379.092L285.133 377.752C285.132 365.756 285.131 353.836 285.944 341.865C286.902 327.746 286.754 313.659 286.754 299.512C286.754 283.611 290.195 268.959 293.595 253.518C296.698 239.432 303.887 223.305 312.5 211.66C319.495 202.201 326.969 194.886 337.976 190.708C352.687 185.124 370.673 187.831 386.182 187.831C393.228 187.831 401.681 195.508 405.851 200.599C407.409 202.501 407.472 203.685 407.472 200.779C407.472 196.94 407.331 193.06 408.057 189.269C412.746 164.767 444.37 159.393 464.365 166.969C465.673 167.465 467.722 169.443 466.615 166.789C465.24 163.492 465.62 159.126 465.925 155.632L465.94 155.459C467.098 142.155 472.801 130.31 481.244 120.075C488.809 110.904 499.342 97.8686 511.536 94.6725C531.514 89.4358 553.475 109.289 557.986 127.314C558.298 128.559 558.957 124.895 559.156 124.436C560.138 122.184 561.916 120.011 563.567 118.232C567.027 114.504 570.095 113.442 574.91 115.085C584.316 118.293 592.666 123.689 598.676 131.81C599.702 133.196 598.513 130.688 598.496 130.641C597.294 127.303 597.006 123.74 597.055 120.21C597.222 108.311 605.062 97.6752 611.233 88.0633C620.972 72.8962 632.014 63.6157 650.662 61.5816C667.776 59.715 688.114 61.8701 704.63 66.9319C708.718 68.1848 714.062 69.9725 718.05 72.9178C713.704 63.147 711.487 51.4237 714.892 41.4393C722.01 20.57 743.626 6.79324 764.089 2.09888C781.176 -1.82111 796.329 0.536281 813.375 2.81825Z" fill="#D15382"/>
<path d="M8.45805 119.67C2.33698 136.101 0 151.388 0 168.717L8.45805 505.544L654.94 531.615C656.265 521.015 660.593 511.089 661.962 500.442L662.092 499.43C663.888 485.466 665.79 470.681 666.324 456.663C666.917 441.087 664.851 425.568 664.515 410.01C664.272 398.717 663.22 386.281 659.621 375.487C653.44 356.942 637.688 340.528 617.278 340.112C612.307 340.01 604.61 338.644 600.309 341.601C598.331 342.961 598.166 344.648 596.745 346.07C596.584 346.23 593.757 337.799 593.234 336.601C585.218 318.249 578.166 298.688 566.583 282.235C553.382 263.484 534.133 252.319 511.845 247.658C481.826 241.382 448.668 242.854 419.232 251.169C400.147 256.561 385.117 264.595 370.452 277.767C368.098 279.881 364.921 281.876 363.537 284.842C362.82 286.376 363.814 283.349 363.856 283.086C365.94 270.057 367.531 251.849 360.824 239.998C354.996 229.703 343.046 216.884 331.141 214.305C319.491 211.781 306.446 212.21 294.702 213.72C286.087 214.827 278.032 216.651 270.179 220.316C264.173 223.119 267.3 219.359 269.275 216.167C276.028 205.246 282.436 194.218 283.212 181.164C284.1 166.227 284.895 149.848 278.052 136.161C272.051 124.16 263.711 118.809 251.188 114.138C235.602 108.325 219.048 111.515 203.11 114.586L202.674 114.67C190.482 117.019 175.929 122.316 167.725 132.278C166.831 133.363 162.804 139.165 162.778 138.821C162.252 131.984 161.288 124.685 160.224 117.915C157.864 102.894 147.898 90.5104 138.414 79.2421C127.946 66.8041 116.72 54.152 101.231 47.9101C87.7594 42.4814 71.0289 49.6411 59.6851 56.6873C45.6591 65.3995 35.5754 78.2609 25.8529 91.3706C19.2967 100.211 12.3364 109.26 8.45805 119.67Z" fill="#FD8DB7"/>
<path d="M243.216 523.479C240.433 520.444 236.245 518.912 232.758 516.858C219.093 508.812 205.141 501.392 191.362 493.549C182.003 488.222 175.63 482.482 169.456 473.369C161.019 460.916 151.974 445.862 149.484 430.738C147.409 418.132 157.863 402.988 166.312 394.547C171.109 389.755 178.657 383.925 185.797 383.844C191.848 383.776 195.05 390.368 198.061 394.661C203.657 402.639 213.757 429.56 212.895 419.853C211.508 404.233 212.173 392.001 220.717 377.864C233.134 357.322 272.014 340.812 290.572 362.213C298.479 371.332 303.884 384.432 306.318 396.142C306.491 396.978 306.557 402.795 306.534 406.591C307.455 403.462 309.708 399.329 310.19 398.335C315.711 386.948 326.542 378.222 337.227 371.888C348.936 364.948 362.533 361.565 375.865 359.462C387.583 357.614 403.086 356.146 411.859 366.184C417.975 373.182 420.227 383.962 418.947 392.955C418.486 396.198 415.121 405.411 416.638 402.507C418.759 398.446 426.002 395.635 429.806 394.087C442.115 389.075 456.447 385.354 469.811 385.82C482.66 386.268 489.029 394.055 493.139 405.721C498.832 421.878 496.647 435.629 488.005 450.135C475.173 471.675 458.497 490.784 438.982 506.527C430.684 513.221 420.918 511.478 410.181 512.046C377.015 513.803 342.305 509.391 309.54 514.914C298.685 516.744 287.895 519.154 277.091 521.27L243.216 523.479Z" fill="#D15382"/>
</svg>
