<svg width="672" height="912" viewBox="0 0 672 912" fill="none" xmlns="http://www.w3.org/2000/svg">
<g clip-path="url(#clip0_207_53)">
<path d="M0 24C0 10.7452 10.7452 0 24 0H648C661.255 0 672 10.7452 672 24V888C672 901.255 661.255 912 648 912H24C10.7452 912 0 901.255 0 888V24Z" fill="#DD0355"/>
<path d="M700.375 454.818C704.948 455.43 710.408 455.437 714.148 458.55L742.505 476.354C742.505 479.671 744.125 483.203 744.125 486.875C744.125 492.678 745.209 499.883 746.601 505.444C750.318 520.299 753.195 534.973 754.657 550.269C757.955 584.761 754.188 619.819 753.802 654.353C753.414 689.022 750.212 723.569 746.601 758.032C743.241 790.087 736.846 821.509 732.422 853.393C727.754 887.04 723.15 921.139 720.495 955.003C719.256 970.799 720.856 986.721 719.459 1002.48C719.136 1006.13 718.871 1015.31 714.958 1017.5C705.734 1022.67 693.785 1025.94 683.451 1027.61C669.853 1029.81 654.271 1029.02 640.601 1027.79C632.413 1027.06 623.973 1025.79 615.845 1024.51C588.237 1020.18 560.123 1018.34 532.306 1015.7C464.583 1009.27 396.57 1007.05 328.769 1001.58C285.698 998.109 241.54 996.578 199.05 988.184C194.519 987.289 188.662 986.54 184.736 983.688C181.668 981.459 182.057 972.776 181.856 969.616C181.454 963.294 180.376 957.121 180.235 950.777C180.003 940.345 177.499 930.051 176.544 919.665C175.701 910.491 174.859 901.429 173.754 892.284C171.31 872.057 172.133 851.427 172.133 831.092L172.133 829.752C172.132 817.756 172.131 805.836 172.944 793.865C173.902 779.746 173.754 765.659 173.754 751.512C173.754 735.611 177.195 720.959 180.595 705.518C183.698 691.432 190.887 675.305 199.5 663.66C206.495 654.201 213.969 646.886 224.976 642.708C239.687 637.124 257.673 639.831 273.182 639.831C280.228 639.831 288.681 647.508 292.851 652.599C294.409 654.501 294.472 655.685 294.472 652.779C294.472 648.94 294.331 645.06 295.057 641.269C299.746 616.767 331.37 611.393 351.365 618.969C352.673 619.465 354.722 621.443 353.615 618.789C352.24 615.492 352.62 611.126 352.925 607.632L352.94 607.459C354.098 594.155 359.801 582.31 368.244 572.075C375.809 562.904 386.342 549.869 398.536 546.672C418.514 541.436 440.475 561.289 444.986 579.314C445.298 580.559 445.957 576.895 446.156 576.436C447.138 574.184 448.916 572.011 450.567 570.232C454.027 566.504 457.095 565.442 461.91 567.085C471.316 570.293 479.666 575.689 485.676 583.81C486.702 585.196 485.513 582.688 485.496 582.641C484.294 579.303 484.006 575.74 484.055 572.21C484.222 560.311 492.062 549.675 498.233 540.063C507.972 524.896 519.014 515.616 537.662 513.582C554.776 511.715 575.114 513.87 591.63 518.932C595.718 520.185 601.062 521.973 605.05 524.918C600.704 515.147 598.487 503.424 601.892 493.439C609.01 472.57 630.626 458.793 651.089 454.099C668.176 450.179 683.329 452.536 700.375 454.818Z" fill="#D15382"/>
<path d="M-104.542 571.67C-110.663 588.101 -113 603.388 -113 620.717L-104.542 957.544L541.94 983.615C543.265 973.015 547.593 963.089 548.962 952.442L549.092 951.43C550.888 937.466 552.79 922.681 553.324 908.663C553.917 893.087 551.851 877.568 551.515 862.01C551.272 850.717 550.22 838.281 546.621 827.487C540.44 808.942 524.688 792.528 504.278 792.112C499.307 792.01 491.61 790.644 487.309 793.601C485.331 794.961 485.166 796.648 483.745 798.07C483.584 798.23 480.757 789.799 480.234 788.601C472.218 770.249 465.166 750.688 453.583 734.235C440.382 715.484 421.133 704.319 398.845 699.658C368.826 693.382 335.668 694.854 306.232 703.169C287.147 708.561 272.117 716.595 257.452 729.767C255.098 731.881 251.921 733.876 250.537 736.842C249.82 738.376 250.814 735.349 250.856 735.086C252.94 722.057 254.531 703.849 247.824 691.998C241.996 681.703 230.046 668.884 218.141 666.305C206.491 663.781 193.446 664.21 181.702 665.72C173.087 666.827 165.032 668.651 157.179 672.316C151.173 675.119 154.3 671.359 156.275 668.167C163.028 657.246 169.436 646.218 170.212 633.164C171.1 618.227 171.895 601.848 165.052 588.161C159.051 576.16 150.711 570.809 138.188 566.138C122.602 560.325 106.048 563.515 90.1097 566.586L89.674 566.67C77.4823 569.019 62.9289 574.316 54.7247 584.278C53.831 585.363 49.804 591.165 49.7776 590.821C49.2516 583.984 48.288 576.685 47.2242 569.915C44.8638 554.894 34.8979 542.51 25.4141 531.242C14.9459 518.804 3.71977 506.152 -11.7694 499.91C-25.2406 494.481 -41.9711 501.641 -53.3149 508.687C-67.3409 517.399 -77.4246 530.261 -87.1471 543.371C-93.7033 552.211 -100.664 561.26 -104.542 571.67Z" fill="#FD8DB7"/>
<path d="M420.737 162.034C405.537 173.577 387.699 180.691 372.024 191.607C370.078 192.963 349.188 211.789 355.903 214.199C359.794 215.596 364.907 215.067 368.925 214.866C378.494 214.388 388.037 212.934 397.439 211.14C404.12 209.865 410.738 208.348 417.364 206.826C420.052 206.208 422.139 205.67 420.502 208.944C416.527 216.894 379.813 268.716 399.871 271.855C405.082 272.671 411.06 270.78 415.874 269.11C430.636 263.989 444.333 256.249 459.214 251.382C473.572 246.685 488.562 244.626 503.338 241.811" stroke="#FFD643" stroke-width="25" stroke-linecap="round"/>
<path d="M633.948 236.869C637.072 244.419 636.05 253.563 634.104 261.304C630.594 275.272 621.192 285.955 610.022 294.604C602.087 300.748 589.75 309.674 579.115 304.88C569.107 300.368 565.933 287.506 565.231 277.581C564.678 269.766 567.697 262.104 577.233 263.148C592.775 264.85 606.245 279.922 615.631 291.113C623.486 300.479 629.871 311.203 633.242 323" stroke="#FFD643" stroke-width="25" stroke-linecap="round"/>
<path d="M-149 109.79C-138.121 117.185 -128.66 126.168 -118.172 134.069C-91.4868 154.169 -59.5748 166.159 -26.7062 171.447C-0.121994 175.724 27.5817 177.626 54.4831 177.879C85.0535 178.167 114.779 174.619 143.831 164.701C164.128 157.771 189.136 148.011 197.878 126.106C202.319 114.981 200.155 99.8307 196.741 88.8065C194.512 81.6099 190.913 73.1776 184.464 68.6072C180.69 65.932 175.442 66.0426 171.09 66.1755C159.76 66.5214 148.758 71.3146 140.261 78.8441C129.29 88.5667 122.935 102.56 122.494 117.125C121.96 134.739 129.243 148.863 141.163 161.445C159.349 180.641 182.996 189.31 208.664 193.411C222.848 195.677 237.172 196.659 251.534 196.235C263.29 195.888 275.86 195.264 287.147 191.607C302.414 186.66 317.552 178.301 330.919 169.564C343.41 161.4 353.353 151.832 361.512 139.363C374.274 119.861 382.24 97.5349 381.947 74.0983C381.718 55.8304 378.854 39.9057 364.767 27.4242C353.218 17.1904 340.612 11.5572 325.036 15.893C310.089 20.0534 301.696 34.5413 300.522 49.3885C299.192 66.2075 307.516 81.6392 318.525 93.7484C328.448 104.664 339.976 110.996 354.609 113.163C385.903 117.797 416.406 112.101 444.741 98.4943C470.081 86.3253 492.443 68.6816 517.929 56.9191C539.002 47.193 564.322 43.0942 587.352 41.6226C607.521 40.3337 628.172 40.8163 645.243 52.9969C658.204 62.2449 662.795 75.0769 666.658 89.8655C670.574 104.855 670.672 119.866 663.364 133.951C649.63 160.417 620.765 179.463 595.588 193.49C578.978 202.743 550.312 220.755 531.5 206.354C522.581 199.528 518.584 183.485 518.086 172.859C516.621 141.612 547.592 123.939 575.271 122.812C584.315 122.444 593.633 122.469 602.452 124.773C614.792 127.996 626.576 133.986 637.948 139.599C662.433 151.683 685.389 166.386 709.018 179.997C728.967 191.489 749.538 201.848 770.91 210.434C777.925 213.251 785.114 215.607 792.09 218.513" stroke="#FFD643" stroke-width="25" stroke-linecap="round"/>
<path d="M-7 32.1312C-2.21095 33.5989 1.51259 35.7061 5.78633 38.2891C14.7491 43.7061 24.4295 47.583 34.6929 49.6634C46.3116 52.0186 58.2921 53.0738 70.1102 53.7033C81.2436 54.2963 92.5948 54.7934 103.723 53.7817C107.932 53.3991 112.849 52.9501 115.529 49.1535C121.845 40.2055 114.494 28.915 109.881 21.2276C108.19 18.4091 105.667 15.1077 105.292 11.7359C104.933 8.50008 111.544 9.63308 113.058 9.65711C127.59 9.88778 140.284 14.7316 153.731 19.8156C169.543 25.7937 185.597 31.0593 201.425 36.9948C207.565 39.2971 214.105 41.1523 220.722 41.1523C227.395 41.1523 228.617 34.719 229.822 29.2681C233.417 12.9948 240.277 -1.28125 247.707 -16.1901C254.272 -29.3643 263.907 -40.9038 270.456 -54" stroke="#FFD643" stroke-width="25" stroke-linecap="round"/>
<path d="M421.445 -37.0561C422.069 -23.6487 424.907 -9.46807 428.309 3.46005C430.959 13.5313 435.644 24.2405 443.253 31.6606C454.115 42.2536 471.227 28.0965 479.925 21.4237C493.505 11.0055 505.89 -0.366778 520.363 -9.64005C537.665 -20.7261 556.06 -29.99 575.038 -37.8406C588.465 -43.395 602.054 -48.1511 616.3 -51.0584C620.812 -51.9792 625.317 -52.6811 629.714 -54" stroke="#FFD643" stroke-width="25" stroke-linecap="round"/>
<path d="M-31.0977 226.985C-29.3583 232.856 -25.5279 236.101 -19.7233 238.438C-8.17634 243.088 3.61128 242.439 15.8902 242.047C44.8797 241.12 73.8319 238.987 102.845 238.987C106.125 238.987 135.341 236.928 134.772 242.909C134.434 246.455 130.445 249.39 127.908 251.381C121.28 256.582 114.397 261.457 107.199 265.815C101.317 269.376 90.5054 274.721 88.1369 281.974C87.7341 283.208 104.528 281.595 105.551 281.504C117.565 280.427 129.573 279.935 141.635 279.935C150.003 279.935 158.673 279.832 166.738 282.367C169.89 283.357 168.902 288.721 169.405 291.584C170.217 296.212 170.112 300.413 171.523 304.645" stroke="#FFD643" stroke-width="25" stroke-linecap="round"/>
<path d="M130.216 975.479C127.433 972.444 123.245 970.912 119.758 968.858C106.093 960.812 92.1411 953.392 78.3623 945.549C69.0035 940.222 62.6305 934.482 56.4559 925.369C48.0187 912.916 38.974 897.862 36.4844 882.738C34.4093 870.132 44.8625 854.988 53.3125 846.547C58.1093 841.755 65.6574 835.925 72.7969 835.844C78.8478 835.776 82.0496 842.368 85.0607 846.661C90.6567 854.639 100.757 881.56 99.8946 871.853C98.5076 856.233 99.1726 844.001 107.717 829.864C120.134 809.322 159.014 792.812 177.572 814.213C185.479 823.332 190.884 836.432 193.318 848.142C193.491 848.978 193.557 854.795 193.534 858.591C194.455 855.462 196.708 851.329 197.19 850.335C202.711 838.948 213.542 830.222 224.227 823.888C235.936 816.948 249.533 813.565 262.865 811.462C274.583 809.614 290.086 808.146 298.859 818.184C304.975 825.182 307.227 835.962 305.947 844.955C305.486 848.198 302.121 857.411 303.638 854.507C305.759 850.446 313.002 847.635 316.806 846.087C329.115 841.075 343.447 837.354 356.811 837.82C369.66 838.268 376.029 846.055 380.139 857.721C385.832 873.878 383.647 887.629 375.005 902.135C362.173 923.675 345.497 942.784 325.982 958.527C317.684 965.221 307.918 963.478 297.181 964.046C264.015 965.803 229.305 961.391 196.54 966.914C185.685 968.744 174.895 971.154 164.091 973.27L130.216 975.479Z" fill="#D15382"/>
</g>
<path d="M24 0.5H648C660.979 0.5 671.5 11.0213 671.5 24V888C671.5 900.979 660.979 911.5 648 911.5H24C11.0213 911.5 0.5 900.979 0.5 888V24C0.5 11.0213 11.0213 0.5 24 0.5Z" stroke="white" stroke-opacity="0.1"/>
<defs>
<clipPath id="clip0_207_53">
<path d="M0 24C0 10.7452 10.7452 0 24 0H648C661.255 0 672 10.7452 672 24V888C672 901.255 661.255 912 648 912H24C10.7452 912 0 901.255 0 888V24Z" fill="white"/>
</clipPath>
</defs>
</svg>
