<svg width="284" height="356" viewBox="0 0 284 356" fill="none" xmlns="http://www.w3.org/2000/svg">
<g filter="url(#filter0_d_207_213)">
<g clip-path="url(#clip0_207_213)">
<path d="M40 43.2557C40 39.2485 43.2485 36 47.2557 36L235.904 36C239.911 36 243.16 39.2485 243.16 43.2557L243.16 304.461C243.16 308.468 239.911 311.717 235.904 311.717H47.2557C43.2485 311.717 40 308.468 40 304.461L40 43.2557Z" fill="#0307DD"/>
<path d="M94.5206 145.405L94.7092 145.468C94.2691 147.071 95.2123 149.272 96.7215 149.272C99.9285 149.272 102.098 145.122 107.097 145.153C110.713 145.185 113.951 148.36 111.467 153.265C109.644 156.849 103.67 163.578 103.67 167.288C103.67 168.546 104.362 170.023 105.902 170.023C111.971 170.023 111.185 157.384 114.329 149.492C115.618 146.254 120.271 145.436 122.975 145.436H127.597L127.534 145.719C125.773 145.719 124.453 145.625 122.786 146.505C118.164 148.989 115.618 162.226 112.694 166.187C111.625 167.665 109.267 170.401 105.871 170.401C103.796 170.401 99.4883 168.703 99.4883 164.71C99.4883 158.767 109.078 156.818 111.31 152.542C111.782 151.63 111.908 150.624 111.782 149.869C111.499 148.234 107.537 147.511 105.305 147.26C100.149 157.51 96.5643 170.055 90.8419 170.055L92.0367 162.1C96.8472 162.32 102.129 152.668 104.739 147.228C104.33 147.197 104.016 147.165 103.859 147.165C99.0796 147.165 97.5704 153.894 95.1494 153.894C93.7346 153.894 93.3887 151.976 93.3887 150.53C93.3887 148.329 93.9546 146.285 94.5206 145.405ZM138.739 145.625L138.864 145.593C139.399 146.442 139.933 148.392 139.933 150.498C139.933 151.913 139.588 153.768 138.267 153.768C135.909 153.768 134.557 147.228 130.187 147.228C129.118 147.228 125.785 147.7 126.791 151.693C128.426 158.233 136.601 153.831 136.601 156.441C136.601 158.107 133.394 157.007 131.79 156.975C128.552 156.912 126.854 160.559 128.709 163.483C132.136 168.86 138.141 169.332 139.588 166.156C141.223 162.572 134.243 161.723 133.771 163.389C133.645 163.892 133.677 164.175 134.274 164.867L134.117 164.961C132.45 163.263 130.784 160.214 131.664 159.113C133.802 156.409 141.977 160.717 139.965 166.219C137.984 171.595 122.201 170.778 122.201 162.446C122.201 155.812 131.884 156.441 133.677 156.441V156.252C132.042 156.189 122.546 155.812 122.546 150.027C122.546 148.423 123.27 145.342 126.76 145.342C131.161 145.31 133.614 149.303 136.726 149.303C138.173 149.303 139.525 147.26 138.739 145.625ZM162.932 156.126C162.932 156.409 162.963 157.132 162.932 157.918C162.68 164.71 156.298 170.306 151.864 170.306C147.368 170.306 145.293 166.848 144.759 162.163C139.005 160.339 136.993 153.422 139.571 150.152C141.803 147.26 144.947 150.53 146.111 153.014H146.016C145.105 151.127 142.558 151.096 140.891 153.171C138.219 156.472 140.64 161.44 146.331 162.194C145.45 161.974 144.696 161.66 144.696 161.345C144.696 152.636 152.745 145.09 159.63 145.09C161.768 145.09 164.787 146.694 164.787 150.53C164.787 157.101 155.952 162.257 148.815 162.603C148.72 166.093 149.192 169.96 151.864 169.96C156.329 169.96 157.87 163.735 158.184 162.54C158.593 160.874 158.75 159.805 158.813 159.459C160.479 158.421 161.391 157.667 162.932 156.126ZM150.733 158.767L150.512 158.704C150.45 155.183 152.147 148.486 157.115 148.769C161.171 148.989 162.869 152.322 162.9 155.277C163.938 153.831 164.567 152.259 164.567 150.593C164.567 147.071 161.8 145.468 159.19 145.468C154.789 145.468 151.141 150.121 149.506 156.158C148.657 159.365 148.815 161.314 148.815 162.289C152.305 162.163 156.015 160.905 158.939 158.956C160.354 153.014 160.385 149.932 157.147 149.555C152.273 148.958 150.575 155.56 150.733 158.767ZM167.101 145.405L167.29 145.468C166.849 147.071 167.793 149.272 169.302 149.272C172.509 149.272 174.678 145.122 179.678 145.153C183.293 145.185 186.532 148.36 184.048 153.265C182.224 156.849 176.25 163.578 176.25 167.288C176.25 168.546 176.942 170.023 178.483 170.023C184.551 170.023 183.765 157.384 186.909 149.492C188.198 146.254 192.851 145.436 195.555 145.436H200.177L200.114 145.719C198.354 145.719 197.033 145.625 195.367 146.505C190.745 148.989 188.198 162.226 185.274 166.187C184.205 167.665 181.847 170.401 178.451 170.401C176.376 170.401 172.069 168.703 172.069 164.71C172.069 158.767 181.658 156.818 183.891 152.542C184.362 151.63 184.488 150.624 184.362 149.869C184.079 148.234 180.118 147.511 177.885 147.26C172.729 157.51 169.145 170.055 163.422 170.055L164.617 162.1C169.428 162.32 174.71 152.668 177.319 147.228C176.911 147.197 176.596 147.165 176.439 147.165C171.66 147.165 170.151 153.894 167.73 153.894C166.315 153.894 165.969 151.976 165.969 150.53C165.969 148.329 166.535 146.285 167.101 145.405ZM59.6041 171.128L59.7927 171.065C60.3272 171.945 60.8617 173.863 60.8617 175.938C60.8617 177.353 60.5159 179.177 59.1954 179.177C55.2966 179.177 55.5167 172.291 52.3411 172.291C51.5865 172.291 49.6057 172.951 49.4485 175.718V185.528C49.4485 189.584 51.8381 193.263 55.1709 193.263C56.8058 193.263 60.4216 190.904 60.4216 185.056H60.6731V193.766H55.2023C49.4171 193.766 45.0467 189.993 45.0467 184.365V175.341C45.0467 173.486 45.7699 170.436 49.2284 170.436C53.5674 170.405 54.6364 174.744 57.6862 174.744C59.1325 174.744 60.0443 172.668 59.6041 171.128ZM83.1009 181.126C83.1009 181.409 83.1323 182.132 83.1009 182.918C82.8493 189.71 76.4667 195.306 72.0335 195.306C67.5374 195.306 65.4623 191.848 64.9278 187.163C59.174 185.339 57.1617 178.422 59.7399 175.152C61.9723 172.26 65.1164 175.53 66.2797 178.014H66.1854C65.2736 176.127 62.7269 176.096 61.0605 178.171C58.388 181.472 60.8089 186.44 66.4998 187.194C65.6195 186.974 64.8649 186.66 64.8649 186.345C64.8649 177.636 72.9139 170.09 79.7995 170.09C81.9375 170.09 84.9559 171.694 84.9559 175.53C84.9559 182.101 76.1209 187.257 68.9837 187.603C68.8894 191.093 69.361 194.96 72.0335 194.96C76.4982 194.96 78.0388 188.735 78.3532 187.54C78.762 185.874 78.9192 184.805 78.982 184.459C80.6484 183.421 81.5602 182.667 83.1009 181.126ZM70.9016 183.767L70.6815 183.704C70.6186 180.183 72.3165 173.486 77.2842 173.769C81.3401 173.989 83.038 177.322 83.0694 180.277C84.107 178.831 84.7358 177.259 84.7358 175.593C84.7358 172.071 81.969 170.468 79.3593 170.468C74.9575 170.468 71.3104 175.121 69.6754 181.158C68.8265 184.365 68.9837 186.314 68.9837 187.289C72.4737 187.163 76.1838 185.905 79.1078 183.956C80.5227 178.014 80.5541 174.932 77.3157 174.555C72.4422 173.958 70.7444 180.56 70.9016 183.767ZM89.408 193.734L84.1259 190.496L87.4587 186.377V174.712C87.0814 174.618 86.6412 174.555 86.2325 174.555C85.132 174.555 84.2517 175.498 83.4342 176.599L83.1512 176.347L89.1251 170.153L94.4072 173.392L92.2063 176.127V182.981L88.5277 187.131L91.3574 188.987C95.1304 191.03 98.9662 185.717 100.35 189.678L102.142 195.243L101.922 195.306C100.413 190.559 97.8343 192.98 96.5452 193.703L92.0491 190.087L89.408 193.734ZM107.716 193.734L102.434 190.496L105.767 186.377V174.712C105.39 174.618 104.95 174.555 104.541 174.555C103.44 174.555 102.56 175.498 101.743 176.599L101.46 176.347L107.434 170.153L112.716 173.392L110.515 176.127V182.981L106.836 187.131L109.666 188.987C113.439 191.03 117.275 185.717 118.658 189.678L120.45 195.243L120.23 195.306C118.721 190.559 116.143 192.98 114.854 193.703L110.358 190.087L107.716 193.734ZM136.778 170.625L136.904 170.593C137.438 171.442 137.973 173.392 137.973 175.498C137.973 176.913 137.627 178.768 136.306 178.768C133.948 178.768 132.596 172.228 128.226 172.228C127.157 172.228 123.824 172.7 124.83 176.693C126.465 183.233 134.64 178.831 134.64 181.441C134.64 183.107 131.433 182.007 129.829 181.975C126.591 181.912 124.893 185.559 126.748 188.483C130.175 193.86 136.181 194.332 137.627 191.156C139.262 187.572 132.282 186.723 131.81 188.389C131.684 188.892 131.716 189.175 132.313 189.867L132.156 189.961C130.49 188.263 128.823 185.214 129.704 184.113C131.842 181.409 140.016 185.717 138.004 191.219C136.023 196.595 120.24 195.778 120.24 187.446C120.24 180.812 129.924 181.441 131.716 181.441V181.252C130.081 181.189 120.586 180.812 120.586 175.027C120.586 173.423 121.309 170.342 124.799 170.342C129.201 170.31 131.653 174.303 134.766 174.303C136.212 174.303 137.564 172.26 136.778 170.625ZM153.142 171.128L153.331 171.065C153.865 171.945 154.4 173.863 154.4 175.938C154.4 177.353 154.054 179.177 152.733 179.177C148.835 179.177 149.055 172.291 145.879 172.291C145.125 172.291 143.144 172.951 142.987 175.718V185.528C142.987 189.584 145.376 193.263 148.709 193.263C150.344 193.263 153.96 190.904 153.96 185.056H154.211V193.766H148.74C142.955 193.766 138.585 189.993 138.585 184.365V175.341C138.585 173.486 139.308 170.436 142.766 170.436C147.105 170.405 148.174 174.744 151.224 174.744C152.671 174.744 153.582 172.668 153.142 171.128ZM162.84 169.996L167.619 167.229C167.557 170.122 165.859 173.329 160.325 176.221C166.833 173.863 172.367 172.889 175.574 172.323L170.103 179.365L169.978 179.303C170.418 178.705 172.147 174.712 169.978 174.712C166.016 174.712 160.073 180.214 160.073 188.798C160.073 189.678 160.011 193.671 162.211 193.671C164.601 193.671 170.386 188.892 171.99 184.239L172.116 184.302L169.663 192.917C168.531 193.923 166.425 194.489 164.381 194.489C159.728 194.489 156.018 191.502 156.018 187.603C156.018 181.786 164.35 176.819 166.833 175.247C162.557 177.416 160.451 179.177 157.275 179.806C155.483 180.152 154.854 178.014 155.703 176.253L157.275 173.046L157.37 173.077C156.049 175.404 158.91 175.278 159.948 175.278C161.017 175.278 162.023 174.901 162.432 174.398C163.281 173.266 163.123 171.505 162.84 169.996ZM180.102 194.803L174.6 191.408L178.09 187.1V174.901C177.681 174.806 177.241 174.744 176.801 174.744C175.669 174.744 174.726 175.718 173.877 176.882L173.563 176.63L179.851 170.153L185.353 173.549L183.058 176.379V183.579L179.191 187.886L183.058 190.213C184.315 190.213 185.385 189.018 186.076 188.075L186.391 188.326L180.102 194.803ZM208.067 181.126C208.067 181.409 208.098 182.132 208.067 182.918C207.815 189.71 201.433 195.306 196.999 195.306C192.503 195.306 190.428 191.848 189.894 187.163C184.14 185.339 182.128 178.422 184.706 175.152C186.938 172.26 190.082 175.53 191.246 178.014H191.151C190.24 176.127 187.693 176.096 186.026 178.171C183.354 181.472 185.775 186.44 191.466 187.194C190.585 186.974 189.831 186.66 189.831 186.345C189.831 177.636 197.88 170.09 204.765 170.09C206.903 170.09 209.922 171.694 209.922 175.53C209.922 182.101 201.087 187.257 193.95 187.603C193.855 191.093 194.327 194.96 196.999 194.96C201.464 194.96 203.005 188.735 203.319 187.54C203.728 185.874 203.885 184.805 203.948 184.459C205.614 183.421 206.526 182.667 208.067 181.126ZM195.868 183.767L195.647 183.704C195.585 180.183 197.282 173.486 202.25 173.769C206.306 173.989 208.004 177.322 208.035 180.277C209.073 178.831 209.702 177.259 209.702 175.593C209.702 172.071 206.935 170.468 204.325 170.468C199.923 170.468 196.276 175.121 194.641 181.158C193.792 184.365 193.95 186.314 193.95 187.289C197.44 187.163 201.15 185.905 204.074 183.956C205.489 178.014 205.52 174.932 202.282 174.555C197.408 173.958 195.71 180.56 195.868 183.767ZM212.236 170.405L212.425 170.468C211.984 172.071 212.928 174.272 214.437 174.272C217.644 174.272 219.813 170.122 224.812 170.153C228.428 170.185 231.667 173.36 229.183 178.265C227.359 181.849 221.385 188.578 221.385 192.288C221.385 193.546 222.077 195.023 223.618 195.023C229.686 195.023 228.9 182.384 232.044 174.492C233.333 171.254 237.986 170.436 240.69 170.436H245.312L245.249 170.719C243.489 170.719 242.168 170.625 240.502 171.505C235.88 173.989 233.333 187.226 230.409 191.187C229.34 192.665 226.982 195.401 223.586 195.401C221.511 195.401 217.204 193.703 217.204 189.71C217.204 183.767 226.793 181.818 229.026 177.542C229.497 176.63 229.623 175.624 229.497 174.869C229.214 173.234 225.253 172.511 223.02 172.26C217.864 182.51 214.28 195.055 208.557 195.055L209.752 187.1C214.563 187.32 219.845 177.668 222.454 172.228C222.046 172.197 221.731 172.165 221.574 172.165C216.795 172.165 215.286 178.894 212.865 178.894C211.45 178.894 211.104 176.976 211.104 175.53C211.104 173.329 211.67 171.285 212.236 170.405Z" fill="#00FF44"/>
<path d="M110.976 61.0448C120.053 48.8892 129.91 36.878 137.304 23.5692L142.264 23.3438C144.839 23.3438 147.122 23.6518 149.654 24.2456C156.579 25.87 163.833 27.1606 170.922 28.0032C174.222 28.3955 177.641 28.5896 180.892 29.3183C181.584 29.4735 182.232 29.7946 181.643 30.5333C178.779 34.1238 174.351 36.9521 170.821 39.7644C163.658 45.4719 155.748 50.9356 149.578 57.7632C149.097 58.2959 145.922 61.3879 146.898 62.2723C148.395 63.6292 150.623 64.3677 152.434 65.1531C155.34 66.4131 158.217 67.7092 161.039 69.1487C161.146 69.2032 163.457 70.0377 162.855 70.6392C161.608 71.8861 159.611 72.8767 158.196 73.8958C153.991 76.9233 149.664 79.7409 145.32 82.5633C137.423 87.6942 130.85 93.7219 124.34 100.537C119.821 105.268 115.34 110.056 111.326 115.229C111.038 115.601 110.216 116.719 110.387 116.281C110.6 115.736 111.165 114.489 111.351 114.102C112.771 111.163 114.921 108.719 116.437 105.835C118.885 101.179 120.642 96.2184 123.2 91.6065C125.36 87.7136 128.068 84.1514 130.239 80.2837C131.193 78.5861 127.011 79.2618 126.394 79.2691C122.153 79.3193 117.919 79.5483 113.681 79.7075C109.578 79.8617 105.48 80.0113 101.381 80.2586C100.904 80.2874 98.7373 80.7346 98.2248 80.2837C97.732 79.85 98.8652 77.8539 99.0264 77.5782C102.425 71.7672 106.959 66.423 110.976 61.0448Z" fill="#D15382"/>
<path d="M249.006 78.6305C250.401 77.0346 251.809 75.4569 253.415 74.0713L265.59 97.9695C255.524 103.155 244.738 106.826 234.427 111.497C230.709 113.181 226.968 114.936 223.58 117.233C223.294 117.428 222.117 118.692 222.503 117.534C223.156 115.574 224.132 113.71 225.108 111.898C227.976 106.569 231.132 101.425 234.677 96.5166C239.148 90.327 243.982 84.3785 249.006 78.6305Z" fill="#D15382"/>
<path d="M244.085 205.712C246.791 203.629 249.455 201.422 252.514 199.875L274.383 211.824C271.41 212.968 268.572 214.557 265.728 215.983C256.135 220.792 246.513 225.341 236.281 228.658C228.435 231.202 220.359 232.764 212.458 235.071C211.809 235.261 210.141 236.193 210.504 235.622C212.097 233.12 214.808 230.868 216.88 228.796C220.961 224.715 225.47 221.131 229.893 217.435C234.604 213.499 239.218 209.457 244.085 205.712Z" fill="#D15382"/>
<path d="M97.7614 296.069C84.482 308.225 72.5415 321.617 59.9727 334.471L64.0308 336.5C74.3928 335.087 84.897 336.387 95.2689 337.052C105.562 337.711 115.877 336.886 126.181 337.327C130.447 337.51 134.84 337.706 139.032 338.58C140.897 338.968 140.753 338.907 141.512 336.976C150.039 315.278 164.946 296.46 178.938 278.083C183.25 272.419 187.762 266.908 192.014 261.198C192.493 260.555 193.804 259.48 192.415 259.282C185.067 258.232 177.25 258.6 169.869 258.994C161.869 259.421 153.916 260.377 145.921 260.848C145.094 260.896 145.186 260.731 145.57 260.096C146.369 258.776 147.145 257.444 147.925 256.113C154.124 245.534 160.415 234.973 167.264 224.8C169.269 221.821 171.482 218.979 173.439 215.97L173.442 215.966C173.504 215.874 174.799 213.971 174.128 214.216C171.738 215.089 169.322 216.723 167.089 217.861C164.029 219.421 160.136 221.338 157.069 222.821C146.123 228.114 135.023 233.069 124.027 238.252C111.9 243.968 99.9855 250.16 88.9687 257.842C85.7468 260.088 82.7366 262.613 79.5497 264.906C78.9266 265.354 77.5182 265.664 77.7836 266.384C78.0753 267.176 82.2825 267.635 82.6685 267.724C90.5751 269.552 98.2843 272.091 105.79 275.177L105.797 275.179C108.992 276.493 112.434 277.908 115.309 279.886C116.715 280.854 112.423 283.492 112.003 283.844C107.201 287.864 102.383 291.838 97.7614 296.069Z" fill="#D15382"/>
<path d="M63.3314 222.834C50.1223 228.269 36.6653 232.899 23 237.075L30.2146 268.188C31.4006 264.63 35.0778 261.925 37.6922 259.27C46.9947 249.821 55.6819 239.785 64.9346 230.286C67.5669 227.584 69.7295 225.446 72.3997 222.896C73.1429 222.187 74.0939 221.644 74.6292 220.767C74.6719 220.697 71.1953 220.749 71.0219 220.767C68.3339 221.049 65.8277 221.807 63.3314 222.834Z" fill="#D15382"/>
<path d="M61.4535 75.1482C63.0052 68.9319 65.1162 62.5715 65.9395 56.1821C67.2438 57.0463 68.5956 57.8506 69.8455 58.7902C70.6023 59.3591 72.1635 60.2191 72.5509 61.17C72.7015 61.5395 72.5652 61.9662 72.3505 62.2722C70.856 64.4028 69.2351 66.4667 67.7162 68.585C65.1828 72.1181 62.8106 75.7076 60.7772 79.5571C60.7577 79.594 60.0656 81.2367 59.6211 82.4886C59.614 82.5177 59.6069 82.5467 59.5998 82.5757C59.493 83.0125 59.7489 83.8909 59.2992 83.8909C59.1651 83.8909 59.3455 83.2648 59.6211 82.4886C60.2205 80.0391 60.8428 77.5949 61.4535 75.1482Z" fill="#D15382"/>
<path d="M66.0628 55.1328C65.349 61.8749 63.0901 68.5917 61.4535 75.1482C60.8356 77.6239 60.2057 80.097 59.5998 82.5757C59.493 83.0125 59.7489 83.8909 59.2992 83.8909C58.9488 83.8909 60.7456 79.6168 60.7772 79.5571C62.8106 75.7076 65.1828 72.1181 67.7162 68.585C69.2351 66.4667 70.856 64.4028 72.3505 62.2722C72.5652 61.9662 72.7015 61.5395 72.5509 61.17C72.1635 60.2191 70.6023 59.3591 69.8455 58.7902C68.4178 57.717 66.8572 56.8203 65.3865 55.8092" stroke="#D15382" stroke-width="0.906962" stroke-linecap="round"/>
<path d="M187.245 107.551C193.729 96.932 201.35 87.0701 208.325 76.7768L209.452 75.875C210.297 76.2975 211.04 76.9051 211.882 77.353C213.775 78.3602 215.919 78.7673 217.869 79.6576C217.994 79.7147 219.371 80.1561 219.096 80.5344C218.583 81.2427 217.948 81.9304 217.38 82.5886C212.718 87.9974 206.893 92.3467 201.661 97.168C193.92 104.302 186.272 111.773 179.944 120.227C178.848 122.09 177.716 123.931 176.51 125.726C175.45 127.304 178.351 122.385 179.479 120.853C179.633 120.644 179.788 120.435 179.944 120.227C182.416 116.025 184.704 111.711 187.245 107.551Z" fill="#D15382"/>
</g>
<path d="M47.2557 36.1512L235.904 36.1512C239.828 36.1512 243.008 39.332 243.008 43.2557L243.008 304.461C243.008 308.385 239.828 311.565 235.904 311.565H47.2557C43.332 311.565 40.1512 308.385 40.1512 304.461L40.1512 43.2557C40.1512 39.332 43.332 36.1512 47.2557 36.1512Z" stroke="white" stroke-opacity="0.1" stroke-width="0.302321"/>
</g>
<defs>
<filter id="filter0_d_207_213" x="0" y="0" width="283.16" height="355.717" filterUnits="userSpaceOnUse" color-interpolation-filters="sRGB">
<feFlood flood-opacity="0" result="BackgroundImageFix"/>
<feColorMatrix in="SourceAlpha" type="matrix" values="0 0 0 0 0 0 0 0 0 0 0 0 0 0 0 0 0 0 127 0" result="hardAlpha"/>
<feOffset dy="4"/>
<feGaussianBlur stdDeviation="20"/>
<feComposite in2="hardAlpha" operator="out"/>
<feColorMatrix type="matrix" values="0 0 0 0 0 0 0 0 0 0 0 0 0 0 0 0 0 0 0.75 0"/>
<feBlend mode="normal" in2="BackgroundImageFix" result="effect1_dropShadow_207_213"/>
<feBlend mode="normal" in="SourceGraphic" in2="effect1_dropShadow_207_213" result="shape"/>
</filter>
<clipPath id="clip0_207_213">
<path d="M40 43.2557C40 39.2485 43.2485 36 47.2557 36L235.904 36C239.911 36 243.16 39.2485 243.16 43.2557L243.16 304.461C243.16 308.468 239.911 311.717 235.904 311.717H47.2557C43.2485 311.717 40 308.468 40 304.461L40 43.2557Z" fill="white"/>
</clipPath>
</defs>
</svg>
