<svg width="967" height="403" viewBox="0 0 967 403" fill="none" xmlns="http://www.w3.org/2000/svg">
<path d="M582.737 229.034C567.537 240.577 549.699 247.691 534.024 258.607C532.078 259.963 511.188 278.789 517.903 281.199C521.794 282.596 526.907 282.067 530.925 281.866C540.494 281.388 550.037 279.934 559.439 278.14C566.12 276.865 572.738 275.348 579.364 273.826C582.052 273.208 584.139 272.67 582.502 275.944C578.527 283.894 541.813 335.716 561.871 338.855C567.082 339.671 573.06 337.78 577.874 336.11C592.636 330.989 606.333 323.249 621.214 318.382C635.572 313.685 650.562 311.626 665.338 308.811" stroke="#FFD643" stroke-width="25" stroke-linecap="round"/>
<path d="M795.948 303.869C799.072 311.419 798.05 320.563 796.104 328.304C792.594 342.272 783.192 352.955 772.022 361.604C764.087 367.748 751.75 376.674 741.115 371.88C731.107 367.368 727.933 354.506 727.231 344.581C726.678 336.766 729.697 329.104 739.233 330.148C754.775 331.85 768.245 346.922 777.631 358.113C785.486 367.479 791.871 378.203 795.242 390" stroke="#FFD643" stroke-width="25" stroke-linecap="round"/>
<path d="M13 176.79C23.8791 184.185 33.3396 193.168 43.8284 201.069C70.5132 221.169 102.425 233.159 135.294 238.447C161.878 242.724 189.582 244.626 216.483 244.879C247.053 245.167 276.779 241.619 305.831 231.701C326.128 224.771 351.136 215.011 359.878 193.106C364.319 181.981 362.155 166.831 358.741 155.806C356.512 148.61 352.913 140.178 346.464 135.607C342.69 132.932 337.442 133.043 333.09 133.175C321.76 133.521 310.758 138.315 302.261 145.844C291.29 155.567 284.935 169.56 284.494 184.125C283.96 201.739 291.243 215.863 303.163 228.445C321.349 247.641 344.996 256.31 370.664 260.411C384.848 262.677 399.172 263.659 413.534 263.235C425.29 262.888 437.86 262.264 449.147 258.607C464.414 253.66 479.552 245.301 492.919 236.564C505.41 228.4 515.353 218.832 523.512 206.363C536.274 186.861 544.24 164.535 543.947 141.098C543.718 122.83 540.854 106.906 526.767 94.4242C515.218 84.1904 502.612 78.5572 487.036 82.893C472.089 87.0534 463.696 101.541 462.522 116.388C461.192 133.207 469.516 148.639 480.525 160.748C490.448 171.664 501.976 177.996 516.609 180.163C547.903 184.797 578.406 179.101 606.741 165.494C632.081 153.325 654.443 135.682 679.929 123.919C701.002 114.193 726.322 110.094 749.352 108.623C769.521 107.334 790.172 107.816 807.243 119.997C820.204 129.245 824.795 142.077 828.658 156.865C832.574 171.855 832.672 186.866 825.364 200.951C811.63 227.417 782.765 246.463 757.588 260.49C740.978 269.743 712.312 287.755 693.5 273.354C684.581 266.528 680.584 250.485 680.086 239.859C678.621 208.612 709.592 190.939 737.271 189.812C746.315 189.444 755.633 189.469 764.452 191.773C776.792 194.996 788.576 200.986 799.948 206.599C824.433 218.683 847.389 233.386 871.018 246.997C890.967 258.489 911.538 268.848 932.91 277.434C939.925 280.251 947.114 282.607 954.09 285.513" stroke="#FFD643" stroke-width="25" stroke-linecap="round"/>
<path d="M155 99.1312C159.789 100.599 163.513 102.706 167.786 105.289C176.749 110.706 186.43 114.583 196.693 116.663C208.312 119.019 220.292 120.074 232.11 120.703C243.244 121.296 254.595 121.793 265.723 120.782C269.932 120.399 274.849 119.95 277.529 116.154C283.845 107.206 276.494 95.915 271.881 88.2276C270.19 85.4091 267.667 82.1077 267.292 78.7359C266.933 75.5001 273.544 76.6331 275.058 76.6571C289.59 76.8878 302.284 81.7316 315.731 86.8156C331.543 92.7937 347.597 98.0593 363.425 103.995C369.565 106.297 376.105 108.152 382.722 108.152C389.395 108.152 390.617 101.719 391.822 96.2681C395.417 79.9948 402.277 65.7187 409.707 50.8099C416.272 37.6357 425.907 26.0962 432.456 13" stroke="#FFD643" stroke-width="25" stroke-linecap="round"/>
<path d="M583.445 29.9439C584.069 43.3513 586.907 57.5319 590.309 70.4601C592.959 80.5313 597.644 91.2405 605.253 98.6606C616.115 109.254 633.227 95.0965 641.925 88.4237C655.505 78.0055 667.89 66.6332 682.363 57.3599C699.665 46.2739 718.06 37.01 737.038 29.1594C750.465 23.605 764.054 18.8489 778.3 15.9416C782.812 15.0208 787.317 14.3189 791.714 13" stroke="#FFD643" stroke-width="25" stroke-linecap="round"/>
<path d="M130.902 293.985C132.642 299.856 136.472 303.101 142.277 305.438C153.824 310.088 165.611 309.439 177.89 309.047C206.88 308.12 235.832 305.987 264.845 305.987C268.125 305.987 297.341 303.928 296.772 309.909C296.434 313.455 292.445 316.39 289.908 318.381C283.28 323.582 276.397 328.457 269.199 332.815C263.317 336.376 252.505 341.721 250.137 348.974C249.734 350.208 266.528 348.595 267.551 348.504C279.565 347.427 291.573 346.935 303.635 346.935C312.003 346.935 320.673 346.832 328.738 349.367C331.89 350.357 330.902 355.721 331.405 358.584C332.217 363.212 332.112 367.413 333.523 371.645" stroke="#FFD643" stroke-width="25" stroke-linecap="round"/>
</svg>
