<svg width="24" height="25" viewBox="0 0 24 25" fill="none" xmlns="http://www.w3.org/2000/svg">
<path d="M19.2701 5.4277C17.9401 4.8077 16.5001 4.3577 15.0001 4.0977C14.987 4.09728 14.9739 4.09975 14.9618 4.10493C14.9497 4.11012 14.9389 4.11789 14.9301 4.1277C14.7501 4.4577 14.5401 4.8877 14.4001 5.2177C12.8091 4.9777 11.1911 4.9777 9.60012 5.2177C9.46012 4.8777 9.25012 4.4577 9.06012 4.1277C9.05012 4.1077 9.02012 4.0977 8.99012 4.0977C7.49012 4.3577 6.06012 4.8077 4.72012 5.4277C4.71012 5.4277 4.70012 5.4377 4.69012 5.4477C1.97012 9.5177 1.22012 13.4777 1.59012 17.3977C1.59012 17.4177 1.60012 17.4377 1.62012 17.4477C3.42012 18.7677 5.15012 19.5677 6.86012 20.0977C6.89012 20.1077 6.92012 20.0977 6.93012 20.0777C7.33012 19.5277 7.69012 18.9477 8.00012 18.3377C8.02012 18.2977 8.00012 18.2577 7.96012 18.2477C7.39012 18.0277 6.85012 17.7677 6.32012 17.4677C6.28012 17.4477 6.28012 17.3877 6.31012 17.3577C6.42012 17.2777 6.53012 17.1877 6.64012 17.1077C6.66012 17.0877 6.69012 17.0877 6.71012 17.0977C10.1501 18.6677 13.8601 18.6677 17.2601 17.0977C17.2801 17.0877 17.3101 17.0877 17.3301 17.1077C17.4401 17.1977 17.5501 17.2777 17.6601 17.3677C17.7001 17.3977 17.7001 17.4577 17.6501 17.4777C17.1301 17.7877 16.5801 18.0377 16.0101 18.2577C15.9701 18.2677 15.9601 18.3177 15.9701 18.3477C16.2901 18.9577 16.6501 19.5377 17.0401 20.0877C17.0701 20.0977 17.1001 20.1077 17.1301 20.0977C18.8501 19.5677 20.5801 18.7677 22.3801 17.4477C22.4001 17.4377 22.4101 17.4177 22.4101 17.3977C22.8501 12.8677 21.6801 8.9377 19.3101 5.4477C19.3001 5.4377 19.2901 5.4277 19.2701 5.4277ZM8.52012 15.0077C7.49012 15.0077 6.63012 14.0577 6.63012 12.8877C6.63012 11.7177 7.47012 10.7677 8.52012 10.7677C9.58012 10.7677 10.4201 11.7277 10.4101 12.8877C10.4101 14.0577 9.57012 15.0077 8.52012 15.0077ZM15.4901 15.0077C14.4601 15.0077 13.6001 14.0577 13.6001 12.8877C13.6001 11.7177 14.4401 10.7677 15.4901 10.7677C16.5501 10.7677 17.3901 11.7277 17.3801 12.8877C17.3801 14.0577 16.5501 15.0077 15.4901 15.0077Z" fill="white" fill-opacity="0.3"/>
</svg>
