<svg width="12" height="14" viewBox="0 0 12 14" fill="none" xmlns="http://www.w3.org/2000/svg">
<path d="M11.3538 4.14625L7.85375 0.64625C7.80728 0.599833 7.75212 0.563026 7.69143 0.537932C7.63073 0.512838 7.56568 0.499949 7.5 0.5H1.5C1.23478 0.5 0.98043 0.605357 0.792893 0.792893C0.605357 0.98043 0.5 1.23478 0.5 1.5V12.5C0.5 12.7652 0.605357 13.0196 0.792893 13.2071C0.98043 13.3946 1.23478 13.5 1.5 13.5H10.5C10.7652 13.5 11.0196 13.3946 11.2071 13.2071C11.3946 13.0196 11.5 12.7652 11.5 12.5V4.5C11.5001 4.43432 11.4872 4.36927 11.4621 4.30858C11.437 4.24788 11.4002 4.19272 11.3538 4.14625ZM7.85375 9.35375L6.35375 10.8538C6.30731 10.9002 6.25217 10.9371 6.19147 10.9623C6.13077 10.9874 6.06571 11.0004 6 11.0004C5.93429 11.0004 5.86923 10.9874 5.80853 10.9623C5.74783 10.9371 5.69269 10.9002 5.64625 10.8538L4.14625 9.35375C4.05243 9.25993 3.99972 9.13268 3.99972 9C3.99972 8.86732 4.05243 8.74007 4.14625 8.64625C4.24007 8.55243 4.36732 8.49972 4.5 8.49972C4.63268 8.49972 4.75993 8.55243 4.85375 8.64625L5.5 9.29313V6.5C5.5 6.36739 5.55268 6.24021 5.64645 6.14645C5.74021 6.05268 5.86739 6 6 6C6.13261 6 6.25979 6.05268 6.35355 6.14645C6.44732 6.24021 6.5 6.36739 6.5 6.5V9.29313L7.14625 8.64625C7.24007 8.55243 7.36732 8.49972 7.5 8.49972C7.63268 8.49972 7.75993 8.55243 7.85375 8.64625C7.94757 8.74007 8.00028 8.86732 8.00028 9C8.00028 9.13268 7.94757 9.25993 7.85375 9.35375ZM7.5 4.5V1.75L10.25 4.5H7.5Z" fill="white" fill-opacity="0.3"/>
</svg>
