<svg width="64" height="65" viewBox="0 0 64 65" fill="none" xmlns="http://www.w3.org/2000/svg">
<rect y="0.0979004" width="64" height="64" rx="16" fill="#FFD643" fill-opacity="0.2"/>
<mask id="mask0_735_4462" style="mask-type:alpha" maskUnits="userSpaceOnUse" x="16" y="16" width="32" height="33">
<rect x="16" y="16.0979" width="32" height="32" fill="#D9D9D9"/>
</mask>
<g mask="url(#mask0_735_4462)">
<path d="M22.6667 44.0979C21.9333 44.0979 21.3056 43.8368 20.7833 43.3146C20.2611 42.7924 20 42.1646 20 41.4313V22.7646C20 22.0313 20.2611 21.4035 20.7833 20.8813C21.3056 20.3591 21.9333 20.0979 22.6667 20.0979H28.2667C28.5556 19.2979 29.0389 18.6535 29.7167 18.1646C30.3944 17.6757 31.1556 17.4313 32 17.4313C32.8444 17.4313 33.6056 17.6757 34.2833 18.1646C34.9611 18.6535 35.4444 19.2979 35.7333 20.0979H41.3333C42.0667 20.0979 42.6944 20.3591 43.2167 20.8813C43.7389 21.4035 44 22.0313 44 22.7646V41.4313C44 42.1646 43.7389 42.7924 43.2167 43.3146C42.6944 43.8368 42.0667 44.0979 41.3333 44.0979H22.6667ZM25.3333 38.7646H34.6667V36.0979H25.3333V38.7646ZM25.3333 33.4313H38.6667V30.7646H25.3333V33.4313ZM25.3333 28.0979H38.6667V25.4313H25.3333V28.0979ZM32 21.7646C32.2889 21.7646 32.5278 21.6702 32.7167 21.4813C32.9056 21.2924 33 21.0535 33 20.7646C33 20.4757 32.9056 20.2368 32.7167 20.0479C32.5278 19.8591 32.2889 19.7646 32 19.7646C31.7111 19.7646 31.4722 19.8591 31.2833 20.0479C31.0944 20.2368 31 20.4757 31 20.7646C31 21.0535 31.0944 21.2924 31.2833 21.4813C31.4722 21.6702 31.7111 21.7646 32 21.7646Z" fill="#FFD643"/>
</g>
</svg>
