<svg width="64" height="65" viewBox="0 0 64 65" fill="none" xmlns="http://www.w3.org/2000/svg">
<rect y="0.0979004" width="64" height="64" rx="16" fill="#6AFF67" fill-opacity="0.2"/>
<mask id="mask0_735_4454" style="mask-type:alpha" maskUnits="userSpaceOnUse" x="16" y="16" width="32" height="33">
<rect x="16" y="16.0979" width="32" height="32" fill="#D9D9D9"/>
</mask>
<g mask="url(#mask0_735_4454)">
<path d="M34.666 38.7646H41.3327V32.0979H38.666V36.0979H34.666V38.7646ZM22.666 32.0979H25.3327V28.0979H29.3327V25.4313H22.666V32.0979ZM21.3327 42.7646C20.5993 42.7646 19.9716 42.5035 19.4493 41.9813C18.9271 41.4591 18.666 40.8313 18.666 40.0979V24.0979C18.666 23.3646 18.9271 22.7368 19.4493 22.2146C19.9716 21.6924 20.5993 21.4313 21.3327 21.4313H42.666C43.3993 21.4313 44.0271 21.6924 44.5494 22.2146C45.0716 22.7368 45.3327 23.3646 45.3327 24.0979V40.0979C45.3327 40.8313 45.0716 41.4591 44.5494 41.9813C44.0271 42.5035 43.3993 42.7646 42.666 42.7646H21.3327Z" fill="#6AFF67"/>
</g>
</svg>
