<svg width="64" height="65" viewBox="0 0 64 65" fill="none" xmlns="http://www.w3.org/2000/svg">
<rect y="0.0979004" width="64" height="64" rx="16" fill="#FF725F" fill-opacity="0.2"/>
<mask id="mask0_735_4470" style="mask-type:alpha" maskUnits="userSpaceOnUse" x="16" y="16" width="32" height="33">
<rect x="16" y="16.0979" width="32" height="32" fill="#D9D9D9"/>
</mask>
<g mask="url(#mask0_735_4470)">
<path d="M32.0007 46.7646C29.9784 46.7646 28.0729 46.3813 26.284 45.6146C24.4951 44.8479 22.9395 43.8035 21.6173 42.4813C20.2951 41.1591 19.2507 39.6035 18.484 37.8146C17.7173 36.0257 17.334 34.1202 17.334 32.0979C17.334 30.0535 17.7173 28.1424 18.484 26.3646C19.2507 24.5868 20.2951 23.0368 21.6173 21.7146C22.9395 20.3924 24.4951 19.3479 26.284 18.5813C28.0729 17.8146 29.9784 17.4313 32.0007 17.4313C34.0451 17.4313 35.9562 17.8146 37.734 18.5813C39.5118 19.3479 41.0618 20.3924 42.384 21.7146C43.7062 23.0368 44.7507 24.5868 45.5173 26.3646C46.284 28.1424 46.6673 30.0535 46.6673 32.0979C46.6673 34.1202 46.284 36.0257 45.5173 37.8146C44.7507 39.6035 43.7062 41.1591 42.384 42.4813C41.0618 43.8035 39.5118 44.8479 37.734 45.6146C35.9562 46.3813 34.0451 46.7646 32.0007 46.7646ZM31.1673 42.4646C31.3895 42.6868 31.6451 42.7979 31.934 42.7979C32.2229 42.7979 32.4784 42.6868 32.7007 42.4646L42.3006 32.8646C42.5229 32.6424 42.634 32.3757 42.634 32.0646C42.634 31.7535 42.5229 31.4868 42.3006 31.2646L32.7007 21.6646C32.4784 21.4424 32.2229 21.3313 31.934 21.3313C31.6451 21.3313 31.3895 21.4424 31.1673 21.6646L21.5673 31.2646C21.3451 31.4868 21.234 31.7535 21.234 32.0646C21.234 32.3757 21.3451 32.6424 21.5673 32.8646L31.1673 42.4646ZM26.634 36.0646V30.7313C26.634 30.3313 26.7562 30.0091 27.0007 29.7646C27.2451 29.5202 27.5673 29.3979 27.9673 29.3979H33.5007L32.1006 27.9313L33.9673 26.0646L38.634 30.7313L33.9673 35.3979L32.1006 33.5313L33.5007 32.0646H29.3007V36.0646H26.634Z" fill="#FF725F"/>
</g>
</svg>
