<svg width="9" height="16" viewBox="0 0 9 16" fill="none" xmlns="http://www.w3.org/2000/svg">
<path d="M8.16343 13.5868C8.33955 13.763 8.4385 14.0018 8.4385 14.2509C8.4385 14.5 8.33955 14.7388 8.16343 14.915C7.98731 15.0911 7.74844 15.19 7.49937 15.19C7.2503 15.19 7.01143 15.0911 6.83531 14.915L0.585309 8.66496C0.497909 8.57786 0.428562 8.47437 0.381245 8.36041C0.333927 8.24646 0.30957 8.12428 0.30957 8.00089C0.30957 7.87751 0.333927 7.75533 0.381245 7.64138C0.428562 7.52742 0.497909 7.42393 0.585309 7.33683L6.83531 1.08683C7.01143 0.910711 7.2503 0.811768 7.49937 0.811768C7.74844 0.811768 7.98731 0.910711 8.16343 1.08683C8.33955 1.26295 8.4385 1.50182 8.4385 1.75089C8.4385 1.99997 8.33955 2.23884 8.16343 2.41496L2.57828 8.00011L8.16343 13.5868Z" fill="#EEEDEE" fill-opacity="0.68"/>
</svg>
