<svg width="108" height="49" viewBox="0 0 108 49" fill="none" xmlns="http://www.w3.org/2000/svg">
<path d="M0.5 24.0979C0.5 11.1192 11.0213 0.5979 24 0.5979H84C96.9787 0.5979 107.5 11.1192 107.5 24.0979C107.5 37.0766 96.9787 47.5979 84 47.5979H24C11.0213 47.5979 0.5 37.0766 0.5 24.0979Z" stroke="white" stroke-opacity="0.05"/>
<path d="M84.0008 24.0977C84.0008 24.3629 83.8954 24.6173 83.7079 24.8048C83.5204 24.9924 83.266 25.0977 83.0008 25.0977H27.4145L34.7083 32.3902C34.8012 32.4831 34.8749 32.5934 34.9252 32.7148C34.9755 32.8362 35.0013 32.9663 35.0013 33.0977C35.0013 33.2291 34.9755 33.3592 34.9252 33.4806C34.8749 33.602 34.8012 33.7123 34.7083 33.8052C34.6154 33.8981 34.5051 33.9718 34.3837 34.0221C34.2623 34.0724 34.1322 34.0983 34.0008 34.0983C33.8694 34.0983 33.7393 34.0724 33.6179 34.0221C33.4965 33.9718 33.3862 33.8981 33.2933 33.8052L24.2933 24.8052C24.2003 24.7124 24.1266 24.6021 24.0762 24.4807C24.0259 24.3593 24 24.2291 24 24.0977C24 23.9663 24.0259 23.8362 24.0762 23.7148C24.1266 23.5934 24.2003 23.4831 24.2933 23.3902L33.2933 14.3902C33.4809 14.2026 33.7354 14.0972 34.0008 14.0972C34.2662 14.0972 34.5206 14.2026 34.7083 14.3902C34.8959 14.5779 35.0013 14.8324 35.0013 15.0977C35.0013 15.3631 34.8959 15.6176 34.7083 15.8052L27.4145 23.0977H83.0008C83.266 23.0977 83.5204 23.2031 83.7079 23.3906C83.8954 23.5782 84.0008 23.8325 84.0008 24.0977Z" fill="#EEEDEE" fill-opacity="0.87"/>
</svg>
