<svg width="171" height="81" viewBox="0 0 171 81" fill="none" xmlns="http://www.w3.org/2000/svg">
<g filter="url(#filter0_dd_752_3415)">
<path d="M38.5663 37.7403V42.601L37.7023 42.9558L24.2376 29.4584V43.6942L31.0249 50.4393H24.986L20 45.4727V20.4532L20.8626 20.0977L38.5663 37.7403ZM44.8143 60.0977L45.6769 59.7421V34.7226L40.6909 29.756H34.6879L41.4393 36.5012V50.7369L27.9745 37.2395L27.1105 37.5943V42.455L44.8143 60.0977Z" fill="#B130FF"/>
<path d="M147.02 46.6479V34.2297H150.798V46.6479H147.02Z" fill="#B130FF"/>
<path d="M130.33 43.3642L130.287 42.6734H133.63L133.69 43.0145C133.787 43.5661 134.154 43.9527 134.79 44.1745C135.427 44.3962 136.476 44.5071 137.938 44.5071C139.348 44.5071 140.34 44.3934 140.914 44.1659C141.494 43.9328 141.784 43.6144 141.784 43.2107C141.784 42.8696 141.483 42.6137 140.88 42.4431C140.277 42.2725 138.927 42.0678 136.829 41.829C134.475 41.5334 132.843 41.0699 131.933 40.4388C131.023 39.8077 130.569 38.9576 130.569 37.8887C130.569 36.6491 131.146 35.6882 132.3 35.0059C133.454 34.3179 135.174 33.9739 137.46 33.9739C139.814 33.9739 141.591 34.2752 142.791 34.8779C143.99 35.475 144.641 36.3819 144.744 37.5987L144.778 38.0422H141.477L141.426 37.829C141.358 37.4423 141.059 37.1211 140.53 36.8652C140.002 36.6036 138.998 36.4729 137.52 36.4729C136.269 36.4729 135.39 36.5752 134.884 36.7799C134.384 36.9846 134.134 37.2547 134.134 37.5901C134.134 37.8688 134.412 38.1019 134.969 38.2895C135.532 38.4772 136.9 38.6904 139.072 38.9292C141.369 39.2192 142.987 39.6143 143.925 40.1147C144.863 40.6151 145.332 41.4793 145.332 42.7075C145.332 44.0494 144.715 45.0842 143.481 45.812C142.253 46.5398 140.431 46.9037 138.014 46.9037C135.592 46.9037 133.724 46.6138 132.411 46.0338C131.103 45.4538 130.409 44.564 130.33 43.3642Z" fill="#B130FF"/>
<path d="M116.436 46.6479V34.2297H128.982V37.0699H119.915V39.1936H128.171V41.6158H119.915V43.9271H129.135V46.6479H116.436Z" fill="#B130FF"/>
<path d="M99.0195 46.6479V34.2297H102.747V38.6733H109.809V34.2297H113.536V46.6479H109.809V41.7864H102.747V46.6479H99.0195Z" fill="#B130FF"/>
<path d="M73.0664 40.2853V40.4217C73.0664 38.2952 73.9335 36.6889 75.6677 35.6029C77.4019 34.5169 79.5484 33.9739 82.1071 33.9739C84.6601 33.9739 86.8094 34.5169 88.5549 35.6029C90.3005 36.6889 91.1733 38.2952 91.1733 40.4217V40.2853C91.1733 42.4971 90.3005 44.1546 88.5549 45.2577C86.8094 46.355 84.6601 46.9037 82.1071 46.9037C79.5541 46.9037 77.4076 46.355 75.6677 45.2577C73.9335 44.1546 73.0664 42.4971 73.0664 40.2853ZM76.9641 40.3365C76.9641 41.684 77.4361 42.699 78.3799 43.3813C79.3295 44.0579 80.5776 44.4048 82.1241 44.4218C83.6593 44.4446 84.9017 44.1062 85.8513 43.4069C86.8008 42.7075 87.2756 41.6897 87.2756 40.3535V40.4217C87.2756 39.1481 86.8008 38.19 85.8513 37.5475C84.9074 36.8993 83.665 36.5638 82.1241 36.5411C80.5662 36.524 79.3153 36.8481 78.3714 37.5134C77.4332 38.1786 76.9641 39.1453 76.9641 40.4132V40.3365Z" fill="#B130FF"/>
<path d="M57.2617 46.6479V34.2297H60.8695L67.7267 41.7608C67.812 41.8461 67.8802 41.9115 67.9314 41.9569C67.9883 42.0024 68.0366 42.0479 68.0764 42.0934H68.119C68.1077 41.9683 68.0991 41.8688 68.0935 41.7949C68.0935 41.721 68.0935 41.6215 68.0935 41.4964V34.2297H71.2321V46.6479H67.7352L60.8098 39.0145C60.7188 38.9178 60.642 38.8439 60.5795 38.7927C60.5226 38.7359 60.4686 38.6733 60.4174 38.6051H60.3833C60.389 38.6676 60.3918 38.7302 60.3918 38.7927C60.3975 38.8496 60.4004 38.9007 60.4004 38.9462L60.4174 46.6479H57.2617Z" fill="#B130FF"/>
</g>
<defs>
<filter id="filter0_dd_752_3415" x="0" y="0.0976562" width="170.799" height="80" filterUnits="userSpaceOnUse" color-interpolation-filters="sRGB">
<feFlood flood-opacity="0" result="BackgroundImageFix"/>
<feColorMatrix in="SourceAlpha" type="matrix" values="0 0 0 0 0 0 0 0 0 0 0 0 0 0 0 0 0 0 127 0" result="hardAlpha"/>
<feOffset/>
<feGaussianBlur stdDeviation="10"/>
<feComposite in2="hardAlpha" operator="out"/>
<feColorMatrix type="matrix" values="0 0 0 0 0.694118 0 0 0 0 0.188235 0 0 0 0 1 0 0 0 0.54 0"/>
<feBlend mode="normal" in2="BackgroundImageFix" result="effect1_dropShadow_752_3415"/>
<feColorMatrix in="SourceAlpha" type="matrix" values="0 0 0 0 0 0 0 0 0 0 0 0 0 0 0 0 0 0 127 0" result="hardAlpha"/>
<feOffset/>
<feGaussianBlur stdDeviation="4"/>
<feComposite in2="hardAlpha" operator="out"/>
<feColorMatrix type="matrix" values="0 0 0 0 0.897947 0 0 0 0 0.729167 0 0 0 0 1 0 0 0 0.19 0"/>
<feBlend mode="normal" in2="effect1_dropShadow_752_3415" result="effect2_dropShadow_752_3415"/>
<feBlend mode="normal" in="SourceGraphic" in2="effect2_dropShadow_752_3415" result="shape"/>
</filter>
</defs>
</svg>
