<svg width="66" height="10" viewBox="0 0 66 10" fill="none" xmlns="http://www.w3.org/2000/svg">
<g id="NO HESI">
<path id="Vector" d="M62.9142 9.58526V0.892578H65.559V9.58526H62.9142Z" fill="#EEEDEE"/>
<path id="Vector_2" d="M51.2304 7.28663L51.2006 6.80304H53.5409L53.5827 7.04185C53.6504 7.42792 53.9071 7.69857 54.3529 7.8538C54.7986 8.00903 55.533 8.08664 56.5559 8.08664C57.543 8.08664 58.2375 8.00704 58.6395 7.84783C59.0455 7.68464 59.2485 7.46175 59.2485 7.17916C59.2485 6.94035 59.0375 6.76124 58.6156 6.64184C58.1937 6.52243 57.2484 6.37915 55.7797 6.21198C54.132 6.00501 52.9896 5.68063 52.3528 5.23883C51.716 4.79703 51.3976 4.202 51.3976 3.45372C51.3976 2.58605 51.8016 1.9134 52.6095 1.43578C53.4175 0.954179 54.6215 0.713379 56.2215 0.713379C57.8693 0.713379 59.1131 0.924328 59.9529 1.34623C60.7928 1.76414 61.2485 2.39898 61.3201 3.25074L61.344 3.56119H59.0335L58.9977 3.41193C58.9499 3.14128 58.741 2.9164 58.3708 2.73729C58.0007 2.55421 57.2982 2.46266 56.2633 2.46266C55.3877 2.46266 54.7728 2.53431 54.4185 2.67759C54.0683 2.82088 53.8931 3.00994 53.8931 3.24477C53.8931 3.43979 54.0882 3.60298 54.4782 3.73433C54.8723 3.86567 55.8295 4.01493 57.3499 4.1821C58.9579 4.38508 60.0903 4.66171 60.747 5.01196C61.4037 5.36222 61.7321 5.9672 61.7321 6.82692C61.7321 7.76624 61.3002 8.49063 60.4365 9.00009C59.5768 9.50955 58.3012 9.76428 56.6096 9.76428C54.9141 9.76428 53.6066 9.56129 52.6872 9.15532C51.7717 8.74934 51.2861 8.12644 51.2304 7.28663Z" fill="#EEEDEE"/>
<path id="Vector_3" d="M41.5049 9.58526V0.892578H50.2871V2.88067H43.9407V4.36726H49.7199V6.06282H43.9407V7.68075H50.3946V9.58526H41.5049Z" fill="#EEEDEE"/>
<path id="Vector_4" d="M29.3136 9.58526V0.892578H31.9226V4.00308H36.866V0.892578H39.475V9.58526H36.866V6.18222H31.9226V9.58526H29.3136Z" fill="#EEEDEE"/>
<path id="Vector_5" d="M11.1461 5.13137V5.22689C11.1461 3.73831 11.7531 2.61391 12.967 1.8537C14.181 1.09348 15.6835 0.713379 17.4746 0.713379C19.2617 0.713379 20.7662 1.09348 21.9881 1.8537C23.21 2.61391 23.821 3.73831 23.821 5.22689V5.13137C23.821 6.67965 23.21 7.83987 21.9881 8.61202C20.7662 9.38019 19.2617 9.76428 17.4746 9.76428C15.6875 9.76428 14.185 9.38019 12.967 8.61202C11.7531 7.83987 11.1461 6.67965 11.1461 5.13137ZM13.8745 5.16719C13.8745 6.11049 14.2049 6.82095 14.8656 7.29857C15.5303 7.77221 16.4039 8.015 17.4865 8.02694C18.5612 8.04286 19.4308 7.80604 20.0955 7.31648C20.7602 6.82692 21.0926 6.11447 21.0926 5.17913V5.22689C21.0926 4.33533 20.7602 3.66467 20.0955 3.21491C19.4348 2.76118 18.5652 2.52635 17.4865 2.51042C16.396 2.49848 15.5203 2.72535 14.8596 3.19103C14.2029 3.65671 13.8745 4.33334 13.8745 5.22092V5.16719Z" fill="#EEEDEE"/>
<path id="Vector_6" d="M0.083252 9.58526V0.892578H2.60867L7.40875 6.16431C7.46845 6.22401 7.51622 6.26978 7.55204 6.30163C7.59184 6.33347 7.62567 6.36531 7.65353 6.39715H7.68338C7.67542 6.30959 7.66945 6.23993 7.66547 6.18819C7.66547 6.13645 7.66547 6.0668 7.66547 5.97923V0.892578H9.86252V9.58526H7.41472L2.56688 4.24189C2.50319 4.17423 2.44946 4.12248 2.40568 4.08666C2.36588 4.04686 2.32807 4.00308 2.29225 3.95532H2.26836C2.27234 3.9991 2.27433 4.04288 2.27433 4.08666C2.27831 4.12646 2.2803 4.16229 2.2803 4.19413L2.29225 9.58526H0.083252Z" fill="#EEEDEE"/>
</g>
</svg>
