<svg width="108" height="49" viewBox="0 0 108 49" fill="none" xmlns="http://www.w3.org/2000/svg">
<path d="M0.5 24.0979C0.5 11.1192 11.0213 0.5979 24 0.5979H84C96.9787 0.5979 107.5 11.1192 107.5 24.0979C107.5 37.0766 96.9787 47.5979 84 47.5979H24C11.0213 47.5979 0.5 37.0766 0.5 24.0979Z" stroke="white" stroke-opacity="0.05"/>
<path d="M23.9992 24.0978C23.9992 23.8326 24.1046 23.5783 24.2921 23.3907C24.4796 23.2032 24.734 23.0978 24.9992 23.0978L80.5855 23.0978L73.2917 15.8053C73.1988 15.7124 73.1251 15.6021 73.0748 15.4807C73.0245 15.3593 72.9987 15.2292 72.9987 15.0978C72.9987 14.9664 73.0245 14.8363 73.0748 14.7149C73.1251 14.5935 73.1988 14.4832 73.2917 14.3903C73.3846 14.2974 73.4949 14.2237 73.6163 14.1734C73.7377 14.1232 73.8678 14.0973 73.9992 14.0973C74.1306 14.0973 74.2607 14.1232 74.3821 14.1734C74.5035 14.2237 74.6138 14.2974 74.7067 14.3903L83.7067 23.3903C83.7997 23.4832 83.8734 23.5935 83.9238 23.7149C83.9741 23.8363 84 23.9664 84 24.0978C84 24.2292 83.9741 24.3594 83.9238 24.4808C83.8734 24.6022 83.7997 24.7125 83.7067 24.8053L74.7067 33.8053C74.5191 33.993 74.2646 34.0984 73.9992 34.0984C73.7338 34.0984 73.4794 33.993 73.2917 33.8053C73.1041 33.6177 72.9987 33.3632 72.9987 33.0978C72.9987 32.8325 73.1041 32.578 73.2917 32.3903L80.5855 25.0978L24.9992 25.0978C24.734 25.0978 24.4796 24.9925 24.2921 24.8049C24.1046 24.6174 23.9992 24.363 23.9992 24.0978Z" fill="#EEEDEE" fill-opacity="0.87"/>
</svg>
