<svg width="9" height="16" viewBox="0 0 9 16" fill="none" xmlns="http://www.w3.org/2000/svg">
<path d="M8.41374 8.66325L2.16374 14.9132C1.98761 15.0894 1.74874 15.1883 1.49967 15.1883C1.2506 15.1883 1.01173 15.0894 0.83561 14.9132C0.65949 14.7371 0.560547 14.4983 0.560547 14.2492C0.560547 14.0001 0.65949 13.7612 0.83561 13.5851L6.42233 7.99997L0.837173 2.41325C0.749967 2.32604 0.680791 2.22251 0.633596 2.10857C0.5864 1.99463 0.562109 1.87251 0.562109 1.74918C0.562109 1.62586 0.5864 1.50374 0.633596 1.3898C0.680791 1.27586 0.749967 1.17233 0.837173 1.08512C0.924379 0.997916 1.02791 0.928741 1.14185 0.881545C1.25579 0.83435 1.37791 0.810059 1.50124 0.810059C1.62456 0.810059 1.74668 0.83435 1.86062 0.881545C1.97456 0.928741 2.07809 0.997916 2.1653 1.08512L8.4153 7.33512C8.50259 7.42232 8.57182 7.5259 8.619 7.63991C8.66619 7.75392 8.6904 7.87612 8.69026 7.99951C8.69011 8.1229 8.66561 8.24504 8.61816 8.35894C8.57071 8.47284 8.50124 8.57625 8.41374 8.66325Z" fill="#EEEDEE"/>
</svg>
