<svg width="24" height="24" viewBox="0 0 24 24" fill="none" xmlns="http://www.w3.org/2000/svg">
<path d="M12 22C10.6333 22 9.34167 21.7373 8.125 21.212C6.90834 20.6867 5.84567 19.97 4.937 19.062C4.029 18.154 3.31233 17.0917 2.787 15.875C2.26167 14.6583 1.99933 13.3667 2 12C2 10.6167 2.26267 9.32067 2.788 8.112C3.31333 6.90333 4.03 5.84533 4.938 4.938C5.846 4.02933 6.908 3.31267 8.124 2.788C9.34 2.26333 10.632 2.00067 12 2C13.3833 2 14.6793 2.26267 15.888 2.788C17.0967 3.31333 18.1547 4.03 19.062 4.938C19.9707 5.846 20.6873 6.90433 21.212 8.113C21.7367 9.32167 21.9993 10.6173 22 12C22 13.3667 21.7373 14.6583 21.212 15.875C20.6867 17.0917 19.97 18.1543 19.062 19.063C18.154 19.971 17.0957 20.6877 15.887 21.213C14.6783 21.7383 13.3827 22.0007 12 22ZM7 11C7.28334 11 7.521 10.904 7.713 10.712C7.905 10.52 8.00067 10.2827 8 10C8 9.71667 7.904 9.479 7.712 9.287C7.52 9.095 7.28267 8.99933 7 9C6.71667 9 6.479 9.096 6.287 9.288C6.095 9.48 5.99934 9.71733 6 10C6 10.2833 6.096 10.521 6.288 10.713C6.48 10.905 6.71734 11.0007 7 11ZM10 8C10.2833 8 10.521 7.904 10.713 7.712C10.905 7.52 11.0007 7.28267 11 7C11 6.71667 10.904 6.479 10.712 6.287C10.52 6.095 10.2827 5.99933 10 6C9.71667 6 9.479 6.096 9.287 6.288C9.095 6.48 8.99934 6.71733 9 7C9 7.28333 9.096 7.521 9.288 7.713C9.48 7.905 9.71734 8.00067 10 8ZM17 11C17.2833 11 17.521 10.904 17.713 10.712C17.905 10.52 18.0007 10.2827 18 10C18 9.71667 17.904 9.479 17.712 9.287C17.52 9.095 17.2827 8.99933 17 9C16.7167 9 16.479 9.096 16.287 9.288C16.095 9.48 15.9993 9.71733 16 10C16 10.2833 16.096 10.521 16.288 10.713C16.48 10.905 16.7173 11.0007 17 11ZM12 14C12.55 14 13.021 13.804 13.413 13.412C13.805 13.02 14.0007 12.5493 14 12C14 11.7833 13.9667 11.5707 13.9 11.362C13.8333 11.1533 13.7333 10.966 13.6 10.8L14.95 7.4C15.0667 7.13333 15.071 6.87067 14.963 6.612C14.855 6.35333 14.6673 6.166 14.4 6.05C14.15 5.93333 13.8957 5.92933 13.637 6.038C13.3783 6.14667 13.1993 6.334 13.1 6.6L11.75 10C11.25 10.0833 10.8333 10.3127 10.5 10.688C10.1667 11.0633 10 11.5007 10 12C10 12.55 10.196 13.021 10.588 13.413C10.98 13.805 11.4507 14.0007 12 14ZM8.15 19C8.73334 18.6667 9.35 18.4167 10 18.25C10.65 18.0833 11.3167 18 12 18C12.6833 18 13.35 18.0833 14 18.25C14.65 18.4167 15.2667 18.6667 15.85 19L17.6 17.7C16.7667 17.15 15.875 16.729 14.925 16.437C13.975 16.145 13 15.9993 12 16C11 16 10.025 16.146 9.075 16.438C8.125 16.73 7.23334 17.1507 6.4 17.7L8.15 19Z" fill="#EEEDEE" fill-opacity="0.52"/>
</svg>
