<svg width="24" height="24" viewBox="0 0 24 24" fill="none" xmlns="http://www.w3.org/2000/svg">
<path d="M21 12C21 17.523 18.928 22 16.371 22H8.657C9.524 21.439 10.313 20.45 10.857 19.276C11.73 17.388 12.257 14.816 12.257 12C12.257 9.18503 11.73 6.61203 10.857 4.72403C10.312 3.54903 9.523 2.56003 8.656 2.00003H16.37C18.928 2.00003 21 6.47703 21 12Z" fill="#08060A" fill-opacity="0.83"/>
<path fill-rule="evenodd" clip-rule="evenodd" d="M4.31 5.13403C3.51 6.86603 3 9.29303 3 12C3 14.707 3.509 17.134 4.31 18.866C5.134 20.644 6.165 21.5 7.114 21.5C8.064 21.5 9.095 20.644 9.918 18.866C10.72 17.134 11.228 14.707 11.228 12C11.228 9.29303 10.72 6.86603 9.918 5.13403C9.095 3.35603 8.064 2.50003 7.114 2.50003C6.164 2.50003 5.134 3.35603 4.31 5.13403ZM5.571 12C5.571 15.314 6.262 18 7.114 18C7.901 18 8.55 15.71 8.645 12.75H7.63C7.53003 12.7516 7.43072 12.7335 7.33778 12.6966C7.24483 12.6597 7.16007 12.6049 7.08836 12.5352C7.01664 12.4656 6.95938 12.3824 6.91985 12.2906C6.88032 12.1987 6.8593 12.1 6.858 12C6.8593 11.9001 6.88032 11.8013 6.91985 11.7095C6.95938 11.6176 7.01664 11.5345 7.08836 11.4648C7.16007 11.3952 7.24483 11.3403 7.33778 11.3035C7.43072 11.2666 7.53003 11.2484 7.63 11.25H8.646C8.55 8.29003 7.901 6.00003 7.115 6.00003C6.261 6.00003 5.571 8.68603 5.571 12Z" fill="#08060A" fill-opacity="0.83"/>
</svg>
