<svg width="24" height="25" viewBox="0 0 24 25" fill="none" xmlns="http://www.w3.org/2000/svg">
<path d="M10 15.0977L15.19 12.0977L10 9.09766V15.0977ZM21.56 7.26766C21.69 7.73766 21.78 8.36766 21.84 9.16766C21.91 9.96766 21.94 10.6577 21.94 11.2577L22 12.0977C22 14.2877 21.84 15.8977 21.56 16.9277C21.31 17.8277 20.73 18.4077 19.83 18.6577C19.36 18.7877 18.5 18.8777 17.18 18.9377C15.88 19.0077 14.69 19.0377 13.59 19.0377L12 19.0977C7.81 19.0977 5.2 18.9377 4.17 18.6577C3.27 18.4077 2.69 17.8277 2.44 16.9277C2.31 16.4577 2.22 15.8277 2.16 15.0277C2.09 14.2277 2.06 13.5377 2.06 12.9377L2 12.0977C2 9.90766 2.16 8.29766 2.44 7.26766C2.69 6.36766 3.27 5.78766 4.17 5.53766C4.64 5.40766 5.5 5.31766 6.82 5.25766C8.12 5.18766 9.31 5.15766 10.41 5.15766L12 5.09766C16.19 5.09766 18.8 5.25766 19.83 5.53766C20.73 5.78766 21.31 6.36766 21.56 7.26766Z" fill="white" fill-opacity="0.3"/>
</svg>
